<?xml version="1.0" standalone="no"?>
<!DOCTYPE svg PUBLIC "-//W3C//DTD SVG 1.1//EN" "http://www.w3.org/Graphics/SVG/1.1/DTD/svg11.dtd" >
<svg>
<metadata>
Created by FontForge 20090622 at Tue Feb 20 09:51:29 2018
 By deploy user
&#194;&#169; 1999 Digital Graphic Labs - All Rights Reserved
</metadata>
<defs>
<font id="AramisItalic" horiz-adv-x="2048" >
  <font-face 
    font-family="Aramis"
    font-weight="400"
    font-style="italic"
    font-stretch="normal"
    units-per-em="4096"
    panose-1="2 11 6 0 5 3 2 2 2 4"
    ascent="3276"
    descent="-820"
    x-height="1843"
    cap-height="2605"
    bbox="-1945.61 -1502.85 4336.08 3857"
    underline-thickness="0"
    underline-position="0"
    unicode-range="U+0020-U+2122"
  />
<missing-glyph horiz-adv-x="1935" 
d="M0 0v2503h1468v-2503h-1468zM233 2253v-2003h1002v2003h-1002z" />
    <glyph glyph-name=".notdef" horiz-adv-x="1935" 
d="M0 0v2503h1468v-2503h-1468zM233 2253v-2003h1002v2003h-1002z" />
    <glyph glyph-name="glyph1" horiz-adv-x="0" 
 />
    <glyph glyph-name="glyph2" horiz-adv-x="4096" 
 />
    <glyph glyph-name="space" unicode=" " horiz-adv-x="1075" 
 />
    <glyph glyph-name="A" unicode="A" horiz-adv-x="1935" 
d="M1866 2685q-20 -328 -22.5 -651t7.5 -643t29.5 -638.5t44.5 -638.5l306 -69l-35 -67q-244 17 -492.5 18.5t-506.5 -6.5l35 67l327 45l33 899h-967q-65 -111 -135.5 -218.5l-139 -216t-132 -221t-114.5 -231.5l318 -69l-46 -67l-223.5 10.5t-229 8.5t-232.5 2t-234 -9
l33 55l308 69l452.5 589.5l472 619l461 640.5t420.5 654zM675 1092l908 -11l-45 1229z" />
    <glyph glyph-name="B" unicode="B" horiz-adv-x="2475" 
d="M538 2526l34 68q121 -9 241 -22t243 -12q109 1 219.5 7.5l221.5 13.5t221.5 11.5t219.5 1.5q70 -2 124 -13.5t95 -29.5t69 -43.5t46.5 -55.5t28 -64.5t12.5 -71.5t0.5 -76t-7.5 -78q-19 -128 -87.5 -243.5t-180.5 -209.5t-266 -162t-344 -102q117 0 210 -11.5t164 -33
t122 -52t85 -69t53.5 -84t26.5 -97t3.5 -107t-13.5 -115.5q-22 -122 -66.5 -225t-107 -189t-140 -156t-166 -124t-183.5 -94t-193 -66t-195.5 -39.5t-189.5 -15.5q-77 -2 -153 3.5t-151.5 12t-151.5 12t-153 5.5q-120 0 -239.5 -3.5t-239.5 -6.5l47 67l361 57l199.5 585
l194.5 583.5t178 588t151 598.5zM899 1479h274q95 0 175.5 13.5t147 37.5t121.5 58t99.5 76t80.5 90t65.5 100t53 107t44.5 110q16 45 19 88.5t-6 84t-28 77.5t-46 67.5t-61.5 54.5t-74 39.5t-82.5 21t-89 -0.5l-349 -45zM862 1331l-349 -1206l445 -57q59 -7 120 2.5
t120.5 34t117 63t110.5 89t100.5 112t86 131t67.5 147.5t46 161q16 83 15.5 152t-15.5 125t-42.5 100t-64 76.5t-81 54.5t-93 34.5t-100 16t-101.5 -1.5z" />
    <glyph glyph-name="C" unicode="C" horiz-adv-x="2170" 
d="M1899 2628q38 0 80 -1.5t85.5 -6.5t86 -13.5t81 -22t71.5 -32t55.5 -43.5t34 -57.5t8.5 -73.5q-4 -47 -39 -86.5t-83.5 -75.5l-101 -71.5t-92.5 -73.5q4 119 -32 196.5t-97.5 122t-140.5 62t-160 17.5q-197 0 -378.5 -80t-337.5 -251.5t-281.5 -441t-209.5 -649.5
q-16 -73 -22.5 -150t-2 -155t21.5 -153t48.5 -142t77.5 -124t109 -98.5t143.5 -65t180.5 -23.5q92 0 185 18t186.5 48t186.5 69l186 82l-20 -114q-122 -64 -243.5 -120t-243.5 -94.5t-245.5 -58t-250.5 -10.5q-77 5 -150.5 15t-140.5 29.5t-125.5 51.5t-106.5 80.5t-83 117
t-54 160.5t-21.5 210t15.5 268q20 168 73.5 332t135.5 318t188.5 295t232 262t267.5 219.5t293.5 168.5t310.5 107.5t319 37.5z" />
    <glyph glyph-name="D" unicode="D" horiz-adv-x="2834" 
d="M540 2526l48 79q70 -5 139.5 -13l139.5 -15.5t140.5 -12t141.5 -4.5q110 1 221 9t222 18t222.5 19t220.5 11q227 4 380.5 -56.5t241 -181t113.5 -298.5t-2 -409q-18 -149 -70 -303.5t-134 -306t-191.5 -294t-242 -267.5t-286 -227.5t-324 -172.5t-355.5 -103t-380 -20
l-518 33l-517 -33l47 67l364 69l196 580.5l193.5 583l181 587t161.5 593.5zM1253 2435l-202 -568.5l-191 -558t-175 -566.5t-154 -594q57 -6 114 -14l114 -15.5t114.5 -12t115.5 -4.5q188 2 344.5 40.5t285 104.5t231.5 156.5t184.5 197.5t142.5 226.5t107.5 243t78.5 247.5
t55 241q22 115 25 218t-11.5 192.5t-45 165t-73.5 136.5t-98 106.5t-119 75t-136 42.5t-149 8q-138 -9 -278.5 -30.5t-279.5 -37.5z" />
    <glyph glyph-name="E" unicode="E" horiz-adv-x="2285" 
d="M574 2605q85 -4 181.5 -9.5l198.5 -11.5l206 -12l203 -12l905 34q11 0 24.5 -2.5t25 -8.5t18.5 -14.5t3 -19.5q-12 -47 -36 -98l-49 -103t-47 -105t-31 -104l-95 -23l53 171q8 27 -5.5 49.5t-39 38.5t-57.5 25.5t-59 11.5l-719 46l-369 -1058l766 22l129 216l96 23
q-80 -162 -150 -332.5t-119 -349.5l-87 -46l67 319l-734 34l-329 -1161h284q119 11 220.5 16.5l188 10t158.5 10.5t132.5 17.5t110 31.5t90.5 52t74.5 79t62.5 113l84 23l-250 -511q-474 25 -957.5 30.5t-974.5 -19.5l37 79l376 68l204 579t187.5 580.5t171.5 586.5t157 598
l-343 57z" />
    <glyph glyph-name="F" unicode="F" horiz-adv-x="2150" 
d="M573 2605q84 -4 181 -9.5l199 -11.5l206 -12l203 -12l904 34q12 0 25.5 -2.5t25 -8.5t18 -14.5t3.5 -19.5q-13 -47 -36.5 -98l-49 -103t-47 -105t-30.5 -104l-95 -23l52 171q9 27 -4.5 49.5t-39 38.5t-57.5 25.5t-59 11.5l-719 46l-369 -1058l766 22l129 216l95 23
q-80 -162 -149.5 -332.5t-118.5 -349.5l-88 -46l68 319l-734 34l-329 -1161l384 -80l-33 -55l-282.5 10t-280.5 5.5t-280.5 -5t-284.5 -22.5l37 79l376 68l204 579t187.5 580.5t171.5 586.5t157 598l-343 57z" />
    <glyph glyph-name="G" unicode="G" horiz-adv-x="2530" 
d="M1973 2639q42 -2 87 -7.5t89 -13.5t86 -19.5t79 -27t67 -34.5t50 -43t28.5 -53t2.5 -63q-8 -48 -39.5 -86t-75 -72t-93.5 -67t-95 -71q10 102 -21 177.5t-93 124.5t-149 73t-190 24q-100 0 -198.5 -17.5t-193.5 -55t-185 -96t-174.5 -142t-161 -192.5t-144 -246.5
t-125.5 -305t-104 -368.5q-17 -74 -24 -154t-2 -160t22.5 -157t51 -145t83 -125t117.5 -96.5t156 -59.5t198 -13q133 8 264.5 36.5t269.5 88.5l221 740l-299 45l37 80q113 -9 224 -22t225 -13q117 0 235.5 13t237.5 22l-49 -80l-294 -57l-86 -324l-85 -324l-278 -140
t-298.5 -130t-307 -94t-301.5 -33q-128 2 -227 27t-173.5 69t-126 104t-85 131t-51 150.5t-22.5 163t-0.5 167.5t15.5 165q20 147 74.5 301t138 305t193 294t240 269t279 229.5t308.5 175.5t329.5 107.5t342.5 24.5z" />
    <glyph glyph-name="H" unicode="H" horiz-adv-x="3045" 
d="M572 2605q135 -8 269.5 -21t270.5 -13q134 0 270 13t271 21l-26 -79l-351 -57q-22 -43 -45 -96.5t-46.5 -115.5l-47.5 -130l-48 -140l-48.5 -146l-48.5 -147.5l-48 -145l-48 -137.5h1354l289 1058l-365 57l48 79q135 -8 269 -21t271 -13q136 0 275 13t277 21l-48 -79
l-363 -57q-233 -598 -414 -1182.5t-319 -1172.5l351 -69l-44 -55q-130 5 -259 13t-260 8q-139 0 -280.5 -8t-281.5 -13l26 78l386 57l401 1183h-1342q-16 -42 -36 -99.5l-42.5 -125.5l-46.5 -145l-48 -159l-47.5 -167.5t-44.5 -170.5t-39 -167.5t-32 -159.5l354 -57l-46 -67
q-130 5 -259 13t-261 8q-142 0 -285 -8t-287 -13l47 67l375 68q90 294 188 576.5l193 568.5t182.5 582.5t157.5 616.5l-355 57z" />
    <glyph glyph-name="I" unicode="I" horiz-adv-x="1410" 
d="M596 2605q132 -8 263.5 -21t264.5 -13q137 0 275.5 13t276.5 21l-29 -68l-381 -68l-200.5 -564.5l-205.5 -591.5t-186 -602.5t-142 -596.5l354 -57l-37 -79q-132 9 -263.5 20.5t-265.5 12.5q-139 2 -279.5 -7t-280.5 -14l23 67l376 68l203 587.5l194 584.5l181 585
t165 587l-356 62z" />
    <glyph glyph-name="J" unicode="J" horiz-adv-x="1420" 
d="M614 2526l36 79q143 -11 285 -27t287 -18q131 -1 264.5 12t265.5 22l-37 -79l-372 -46q-120 -316 -231.5 -649.5l-218.5 -670.5l-212.5 -670.5l-212.5 -648.5q-22 -66 -63 -129t-94.5 -122t-117 -113t-131.5 -102t-137.5 -89.5t-136 -74.5t-126 -58t-106.5 -40l-33 68
q24 7 57 21.5t70.5 35t78.5 47.5t81.5 58t79.5 66t73 72.5t60.5 76.5t44.5 78q152 347 269 699.5t219.5 708.5l200 713.5t209.5 711.5z" />
    <glyph glyph-name="K" unicode="K" horiz-adv-x="2580" 
d="M576 2605q135 -8 269.5 -21t271.5 -13q139 0 280.5 13t282.5 21l-49 -79l-373 -57l-399 -1161l171.5 122l187 133l196.5 142.5l198.5 149l194 153l183 155.5t164.5 155t139 151l-238 68l46 68q104 -8 206.5 -21t208.5 -13q100 0 201.5 13t202.5 21l-37 -79l-224 -45
l-314 -218.5l-340 -238.5l-339.5 -249.5t-313.5 -249.5q45 -101 89.5 -213l90.5 -228l95.5 -232t103.5 -223.5t114 -203t127 -171t143 -127t162 -70.5q-17 -26 -40.5 -46t-50.5 -35t-55.5 -23.5t-55.5 -8.5q-53 -1 -110.5 0t-110.5 11t-98 30.5t-72 59.5
q-101 144 -180.5 302t-149 323l-135.5 332t-139 329l-269 -171l-285 -1035l352 -68l-26 -79q-133 17 -259.5 24.5t-257.5 8.5q-142 2 -285.5 -7t-286.5 -14l25 78l374 57l197 580.5l193 583l181 587t161 593.5l-355 57z" />
    <glyph glyph-name="L" unicode="L" horiz-adv-x="2200" 
d="M574 2605q135 -8 269.5 -21t271.5 -13q133 0 269 13t271 21l-24 -68l-364 -68q-220 -572 -407.5 -1159t-335.5 -1185h546q123 9 215 16.5t160.5 17t118 22t86 30.5t65 43t55.5 60t57.5 81l70.5 106l84 21l-247 -499q-8 -15 -22 -23.5t-31.5 -13.5t-35.5 -6.5t-33 -1.5
q-244 8 -486 21.5t-487 11.5q-111 0 -228.5 -1t-233.5 -5t-226 -12.5t-207 -25.5l51 90l364 68l207 585.5l192 582t175.5 584.5t157.5 592l-355 57z" />
    <glyph glyph-name="M" unicode="M" horiz-adv-x="3500" 
d="M696 2526l59 79q61 -12 141.5 -17.5t169 -7.5t180 -3t174.5 -6q-6 -520 6 -1040.5t48 -1041.5l380 511.5l382.5 504.5l377 517.5t365.5 548.5q95 3 186.5 4l184 2t190 4.5t205.5 12.5l-34 -68l-386 -57l-174.5 -597t-156 -593.5t-131.5 -587t-101 -577.5l354 -57l-35 -67
q-129 5 -258.5 13t-260.5 8q-137 0 -275 -8t-275 -13l37 78l360 46l277.5 1086.5l276.5 1086.5l-173.5 -217l-207 -263.5l-226 -292.5l-230.5 -305l-220.5 -300l-196 -276.5t-157 -236.5t-103.5 -180l-263 -137l-53 2219l-243 -537.5t-227.5 -540.5t-204.5 -544t-175 -551
l342 -68l-47 -67q-127 5 -253 14t-255 7q-121 -1 -245.5 -12.5t-248.5 -20.5l26 79l375 68q160 282 300 573l269.5 586.5l255.5 593l259 591.5z" />
    <glyph glyph-name="N" unicode="N" horiz-adv-x="2925" 
d="M565 2605q92 -8 183.5 -21t185.5 -13q72 0 145 13t146 21q64 -290 148 -579t182 -574t207 -563.5l224 -547.5l149.5 525t140.5 530.5t126.5 535t106.5 537.5l-354 57l59 79q127 -8 252.5 -21t254.5 -13q120 0 241 13t242 21l-23 -68l-376 -68l-211.5 -582.5t-200 -581
t-178.5 -593.5t-148 -621l-265 -147l-205 572.5l-201.5 574.5l-207.5 572t-223 567q-89 -265 -166.5 -531t-144.5 -531.5t-124.5 -529.5t-108.5 -524l354 -57l-34 -67q-119 5 -236.5 14t-237.5 7q-131 -1 -263.5 -12.5t-265.5 -20.5l35 67l364 69l204.5 567.5t201.5 588.5
t182 599t146 600l-341 68z" />
    <glyph glyph-name="O" unicode="O" horiz-adv-x="2550" 
d="M1819 2639q77 3 150.5 -7.5t139.5 -35.5t123.5 -65t103.5 -96t79.5 -129t50.5 -163.5t17 -199t-21 -236.5q-23 -142 -73 -292t-124 -298t-171 -290t-213 -269.5t-250.5 -235t-284 -187.5t-312.5 -127t-337 -52q-128 -5 -225.5 17t-168 64t-117 102t-74.5 131t-40 150.5
t-13.5 161t4.5 162.5t15 155q17 136 64.5 282.5t122 292.5t173.5 287.5t217 268.5t253.5 236t283.5 190t306 129t321 54zM1597 2481q-101 4 -201 -26t-194.5 -89t-182.5 -143t-167 -189t-146.5 -226.5t-121.5 -255t-91.5 -275.5t-57.5 -287q-9 -68 -16 -141t-8 -147.5
t6.5 -146.5t28.5 -137.5t57 -121t93 -96t136.5 -63.5t185.5 -23t205.5 26.5t192.5 77t178 124t160.5 167.5t140.5 207t119.5 242.5t96 274.5t69.5 303q23 134 30.5 245.5t0 202.5t-28.5 162t-54.5 125t-78 92.5t-99 63.5t-118.5 38t-135 16z" />
    <glyph glyph-name="P" unicode="P" horiz-adv-x="2180" 
d="M583 2605q54 -8 118.5 -14.5t133.5 -10.5t140 -6.5t137 -2.5q89 0 178 4.5t178 10.5l178 11.5t178 7.5q79 3 142.5 -9t112.5 -35t85 -55.5t60 -72.5t38.5 -85t19.5 -93t2.5 -97.5t-11.5 -98.5q-13 -74 -41 -153.5t-71.5 -158t-102.5 -154.5t-134 -143.5t-166 -125
t-198 -98.5t-231 -64.5t-264 -23.5q-66 0 -130 8.5t-128 13.5q-35 -132 -74.5 -265.5l-77 -266t-70 -261.5t-54.5 -253q86 -14 170.5 -34t170.5 -35l-47 -67q-129 9 -257.5 21t-259.5 12q-139 0 -280.5 -12t-282.5 -21l49 79l181 28.5l181 28.5l198.5 574l200 592
t184.5 600.5t153 600.5l-345 45zM1254 2469l-401 -1172q78 -8 156 -20t157 -14q91 -2 171 18.5t148.5 58t126.5 90t105.5 113.5t85 129t66 136.5t47.5 135.5t30 127q13 75 7 152t-43 139t-111.5 101.5t-197.5 39.5q-85 0 -172.5 -13t-174.5 -21z" />
    <glyph glyph-name="Q" unicode="Q" horiz-adv-x="2550" 
d="M748 -44q-120 0 -211 22.5t-158.5 64t-113 98.5t-74.5 125t-42.5 143.5t-17 154.5t1.5 158.5t14 153.5q18 150 69 304t128.5 304.5t180 293t223.5 269t257.5 232.5t283.5 183t301.5 120.5t310.5 45.5q77 2 150 -9t139.5 -36t124.5 -64.5t104 -94.5t78 -127t46.5 -162.5
t10 -199.5t-31.5 -240q-22 -109 -58 -220.5t-83 -222.5t-104.5 -219t-124 -210t-141.5 -195.5t-157 -175.5t-170 -150.5t-180 -119.5q50 -105 115.5 -205t142 -192t162.5 -173.5t177.5 -148t186 -115t188 -74.5t184.5 -27.5t175 26.5l6 -71q-65 -26 -132.5 -41.5t-134 -23.5
t-131 -7.5t-121.5 6.5q-95 11 -182 37.5t-168 66.5t-156.5 91.5t-146.5 112.5t-138 129.5t-130 142.5l-124 151.5l-119 155.5q-109 -33 -209.5 -50t-200.5 -17zM1669 2469q-122 -2 -234 -39.5t-213 -102t-189 -154t-163 -195.5t-135 -225.5t-104.5 -245t-72 -254
t-36.5 -252.5q-5 -68 -12 -142.5t-10 -149.5t1.5 -148.5t22.5 -139.5t53 -122.5t93 -97.5t142.5 -64t202.5 -23q104 0 203.5 31.5t191.5 88.5t176 138t158.5 180t138.5 214t116 240.5t90.5 259.5t62.5 270q13 71 21.5 149t8.5 157.5t-9 157.5t-32 148t-61 130t-95 103
t-135 66.5t-181 21.5z" />
    <glyph glyph-name="R" unicode="R" horiz-adv-x="2560" 
d="M586 2605q57 -5 114 -13l114 -15.5t114.5 -12t116.5 -4.5q101 1 203.5 10t205 19.5t205 19t203.5 8.5q145 0 245 -46t156.5 -120.5t72 -168t-7.5 -189.5q-31 -125 -100 -246t-170.5 -224t-232 -182t-282.5 -121q22 -71 45.5 -165l51 -199t60 -215.5t70.5 -214t83.5 -194
t99.5 -155t117 -98t138 -22.5l-35 -67q-29 -2 -58 -7l-58.5 -10.5l-59 -10.5t-58.5 -6q-57 -3 -100.5 -1.5t-75.5 6.5t-54.5 14t-39.5 22.5t-30 32t-26 42t-27.5 53.5t-34.5 65q-58 105 -107.5 237.5t-91.5 272.5t-77.5 277.5l-66.5 251.5q-92 -6 -182 -9t-184 -3
q-49 -136 -93 -276t-82.5 -278.5t-71 -274t-59.5 -263.5q40 -12 83 -21t86 -16l86.5 -14.5t85.5 -16.5l-35 -67q-142 5 -282.5 13t-282.5 8q-128 0 -257 -8t-258 -13l23 67q104 9 194.5 26t181.5 42l202 577.5l195.5 585t179 587t152.5 583.5q-99 17 -185 29.5t-167 38.5z
M878 1354q28 -4 55 -10.5l54.5 -12.5t55.5 -9.5t56 -1.5q168 8 311 53t255.5 133.5t192.5 225t122 327.5q21 94 10.5 177t-53 143.5t-117.5 94.5t-182 29q-93 -4 -186 -19t-186 -26l-100 -275l-101 -274l-97.5 -275.5t-89.5 -279.5z" />
    <glyph glyph-name="S" unicode="S" horiz-adv-x="1860" 
d="M1579 2639q32 0 67.5 -3t72.5 -8.5t73.5 -14t69 -20.5t60 -28t46 -37t27 -47t2.5 -57q-3 -18 -15.5 -38t-31.5 -42t-42.5 -44.5t-48.5 -44t-50 -40.5l-47 -34.5l-39 -26.5t-27 -15q8 94 -17 161.5t-71.5 111t-108.5 63t-128 17.5q-107 -4 -200 -43.5t-164.5 -99
t-117.5 -133t-58 -145.5q-9 -51 -6.5 -103t15.5 -101.5t34 -93.5t50 -78q41 -50 89 -97l97.5 -94l98.5 -95.5t92 -100t77.5 -107.5t55.5 -119t25.5 -134t-11.5 -152q-16 -79 -50.5 -157.5t-85 -153t-115.5 -143.5t-142 -128.5t-164 -108.5t-181.5 -82.5t-195 -51.5
t-204.5 -15q-36 0 -77 4t-83.5 11t-84.5 17.5t-78.5 25t-68 33.5t-52.5 42.5t-31 52.5t-4 63q9 50 40 94.5t73 84.5t90 75t92 64q-7 -85 24 -162.5t86.5 -135.5t129 -91.5t152.5 -31.5q128 5 235.5 53.5t188 124.5t133 169.5t72.5 187.5q14 69 8.5 128.5t-26 112.5
t-53 100.5t-73.5 92t-87 86.5l-93 83.5l-92.5 83.5t-84.5 87q-36 41 -63 91.5t-44 106.5t-22.5 115.5t1.5 118.5q8 73 36 146t72.5 143t103.5 135.5t131 123t155 104t174 79.5t189 50.5t200 14.5z" />
    <glyph glyph-name="T" unicode="T" horiz-adv-x="2256" 
d="M1509 2571q124 0 251 6t254 13t253 15t250 12q16 1 32.5 -7.5t28.5 -22t17 -29.5t-2 -32l-190 -433h-68q9 22 21.5 43t24 42.5t20 43t9.5 42.5q1 19 -1.5 39t-9 37.5t-18 31t-28.5 17.5q-84 22 -171 34t-176 18.5t-178.5 12t-177.5 15.5l-207 -583.5t-190.5 -580
t-171.5 -584t-151 -596.5q44 -8 85.5 -18l84 -20t87 -18t95.5 -12l-47 -67q-121 5 -241.5 13t-243.5 8q-147 0 -296.5 -8t-299.5 -13l24 67q52 4 99.5 11t93 15l90 16t91.5 15q112 294 211.5 590l191.5 591.5l176.5 589.5l165.5 584q-79 -9 -159 -12.5t-159.5 -9
t-159.5 -15.5t-160 -31q-34 -10 -71 -23.5t-71 -33.5t-61.5 -48t-42.5 -66q-13 -33 -34.5 -62l-44.5 -63l-81 -12l214 444q20 40 62 64.5t100 15.5q66 -10 170 -18.5t224.5 -14.5t247.5 -9.5t238 -3.5z" />
    <glyph glyph-name="U" unicode="U" horiz-adv-x="2770" 
d="M520 2605q132 -8 263.5 -21t265.5 -13t269.5 13t271.5 21l-24 -68q-91 -17 -184 -38t-180 -30l-172.5 -435t-155 -437t-134 -438.5t-109.5 -441.5q-21 -99 -23.5 -177t10 -139.5t38.5 -107.5t62 -79.5t80.5 -55.5t94 -36t102.5 -21t106 -10q184 -11 326.5 37.5t252.5 140
t191.5 220t141.5 279t104 314.5t79.5 327t66 318t64.5 287q14 51 21.5 106t13 111.5t10 113.5t11.5 113l-350 79l46 68q123 -8 246 -21t249 -13q127 0 257.5 13t259.5 21l-23 -68q-97 -17 -190.5 -38l-187.5 -41l-148.5 -428l-153 -434.5l-144 -421t-122.5 -389.5
q-23 -78 -58.5 -156.5t-82.5 -153t-106 -143.5t-129 -128t-151 -107t-172 -80.5t-192 -49t-211 -11.5q-237 9 -387 63.5t-229 146t-95 214.5t14 268q22 107 51 217.5t62.5 224l69 229l71 231.5l70 232.5t64 232t53.5 229.5t39 225l-168.5 34l-172.5 34z" />
    <glyph glyph-name="V" unicode="V" horiz-adv-x="2525" 
d="M324 2605q113 -8 224 -21t226 -13q133 0 269 13t271 21l-23 -68q-86 -17 -172 -39.5t-172 -39.5q-13 -269 -12.5 -537.5t10 -534t26.5 -527.5l35 -518l186 260l190.5 266l191.5 270l188.5 272l181 271.5l170.5 268.5l155.5 263.5t136.5 256.5q-87 12 -159.5 27.5
t-149.5 29.5l37 79q104 -8 206.5 -21t208.5 -13q122 0 246.5 13t248.5 21l-24 -68l-162 -34l-168 -34l-455.5 -605l-453.5 -615.5l-445.5 -619.5l-432.5 -618l-238 -55q5 318 1 631t-15.5 624.5t-28 624.5t-37.5 633l-152 34l-154 34z" />
    <glyph glyph-name="W" unicode="W" horiz-adv-x="3679" 
d="M300 2605q121 -8 246 -22t247 -14q128 0 253 14t255 22l-31 -69l-158 -33l-165 -34q-39 -269 -58.5 -541t-26 -544t-2.5 -542t13 -535l181.5 294l198 312l202.5 319l195 314l176.5 298.5t145 272t101.5 234.5t47 186l288 91q-41 -285 -63 -581.5t-30 -594t-4 -592
t14 -576.5l323 532l315.5 539l300.5 550t277 564q-75 9 -153 26t-155 31l47 79q54 -5 106.5 -13t105.5 -15t106 -12t107 -5q60 0 120.5 5t121.5 12t122 15t122 13l-48 -79l-172 -34l-170 -34l-377.5 -579.5l-366.5 -590l-354 -594l-341 -592.5l-368 -146q19 250 29 496.5
t13.5 491.5t3 491.5t-3.5 498.5l-587 -911.5l-555 -920.5l-343 -135q22 315 31 625.5t10.5 620.5t-2 623t-7.5 633q-82 17 -156 34l-151 34z" />
    <glyph glyph-name="X" unicode="X" horiz-adv-x="2325" 
d="M573 2605q129 -8 258 -21t259 -13q137 0 275.5 13t276.5 21l-48 -79l-328 -57l78 -910l205.5 218.5l202 227.5l200.5 232l201 232q-67 12 -131.5 31.5t-129.5 36.5l35 68q112 -8 223.5 -21t225.5 -13q103 0 207.5 13t207.5 21l-34 -68l-72 -17l-69.5 -17t-73 -17
l-82.5 -17l-280 -254l-274 -254l-270 -259l-268 -268q14 -163 33 -330t44 -334.5t55.5 -332.5t66.5 -323q80 -14 163 -27t157 -30l-37 -79q-109 9 -217.5 21t-219.5 12q-151 0 -304 -12t-305 -21l27 90q54 13 98.5 19.5t86 10.5t81.5 7t83 9q-5 136 -16 272.5t-24 273.5
l-26.5 273t-25.5 273q-275 -256 -513.5 -526t-447.5 -544q18 -17 44.5 -27.5t57 -18.5t62.5 -15.5t60 -17.5l-23 -67q-110 5 -219 13t-220 8q-105 0 -211.5 -8t-213.5 -13l35 67q77 14 152.5 31t153.5 26l313.5 302l315 301l313 304l307.5 310l-152 1138l-377 57z" />
    <glyph glyph-name="Y" unicode="Y" horiz-adv-x="2255" 
d="M333 2605q62 -2 123.5 -7.5l122.5 -10.5t122.5 -9t124.5 -3q58 1 118 5.5t119.5 11.5l119.5 14t119 11l-48 -80l-283 -56q13 -145 40 -294t60 -299.5l68.5 -301.5t64.5 -300l260.5 300l248 293l240 295l235.5 307q-60 14 -118 34t-118 34l31 56q107 -5 213.5 -13.5
t214.5 -8.5q91 0 183.5 8.5t184.5 13.5l-31 -56q-73 -14 -148.5 -34t-149.5 -34l-303.5 -304l-305.5 -312.5l-299 -323t-284 -335.5q-80 -265 -154.5 -542l-151.5 -550l176.5 -28.5l177.5 -28.5l-37 -79q-126 9 -252 21t-254 12q-145 0 -292 -12t-294 -21l37 79l192.5 28.5
l192.5 28.5q88 256 168 514.5t153 531.5q-61 325 -141 656.5t-183 664.5l-149 28l-149 28z" />
    <glyph glyph-name="Z" unicode="Z" horiz-adv-x="2055" 
d="M780 2617q55 -4 148.5 -13.5t205 -18t231 -13.5t226.5 -1q94 4 184.5 7t182.5 7t186 11.5t195 20.5l-18 -102l-553 -588l-544.5 -588.5l-533 -595l-518.5 -607.5h78t155 1t208.5 4.5t236 12t239 23t217.5 37t170 54t98 73.5q5 8 17 25l26.5 37.5l28 40.5t20.5 34l82 11
l-230 -466q-12 -24 -30 -36t-37.5 -17t-40.5 -4.5t-39 1.5l-428.5 22l-428.5 22q-97 -5 -197 -8t-199.5 -6.5t-196 -10t-187.5 -19.5l22 124l551.5 572l545 597.5l542 607l542.5 601.5q-89 0 -196 -3.5t-221 -9l-230 -11.5t-223 -10q-108 -4 -194 -19.5t-155.5 -50.5
t-123 -95t-96.5 -154l-95 -23q30 59 55 119l51 119.5t56 117t69 111.5q12 16 29 27.5t37 18.5t40.5 9.5t39.5 1.5z" />
    <glyph glyph-name="a" unicode="a" horiz-adv-x="1890" 
d="M1815 1843l-146 -342.5t-139.5 -348.5t-123 -361.5t-94.5 -380.5q-4 -19 -10 -43.5t-8.5 -47t2.5 -39t24 -18.5q24 -3 47 10t45.5 33.5t44.5 43t44 38.5l37 -46q-59 -46 -125.5 -107.5t-137 -117t-144 -94.5t-146.5 -44q-21 -1 -34 13.5t-18.5 37.5t-5.5 49t4 47
q24 105 56.5 209t69 207.5l74.5 207t72 207.5l-126 -143l-146.5 -157.5l-160.5 -161.5t-168 -155.5t-168.5 -139.5t-161.5 -113.5t-148.5 -77t-127.5 -30.5q-38 -1 -54.5 28.5t-19.5 74t2 94l9 87.5q11 113 46 241t92 260.5t135.5 264t176 251t213 223t247 179.5t278 119
t306.5 43h388zM1450 1650h-307q-94 0 -176.5 -27.5t-155 -78.5t-135 -123t-116.5 -161t-100 -191.5t-84.5 -215.5t-70 -233.5t-58.5 -243.5q-4 -20 -7 -46t-1.5 -49.5t10.5 -39t29 -13.5q56 4 133 51.5t165.5 125.5t183.5 180.5t187 216.5t176.5 233.5t152 232t114 211
t60.5 171.5z" />
    <glyph glyph-name="b" unicode="b" horiz-adv-x="1850" 
d="M1676 3254q31 3 60 -5.5t51.5 -28.5t34.5 -51t9 -74q-2 -21 -11.5 -41t-22.5 -39.5l-27 -39t-24 -39.5q-40 11 -81 27l-81 30.5t-79 24t-73 9.5q-77 -3 -157 -67.5t-159.5 -175t-157.5 -257t-151.5 -312t-141 -340.5t-126.5 -343l-107.5 -319l-83.5 -268l114.5 131
l136 148.5l151 155t159.5 151t162.5 135.5t159 110t149.5 74t133 27q53 0 84.5 -38.5t45 -95.5t12.5 -122.5t-14 -118.5q-17 -70 -50 -169.5t-86 -214.5t-127.5 -239.5t-173 -245.5t-223.5 -232t-278.5 -199.5t-338.5 -147.5t-402 -76q-30 -2 -61 1.5t-60.5 9t-58 12
t-53.5 10.5q36 87 76 173l79 172.5t72.5 173.5t53.5 175q48 199 107.5 410t133 422t160.5 415.5t189 390t219.5 344.5t251.5 279t285 195.5t320 92.5zM1221 1638q-54 -19 -124.5 -64.5t-149 -112.5t-162 -152.5t-165.5 -185t-159 -209.5t-142 -226t-114 -235t-76 -237
q27 -3 53 -5.5l52.5 -5t55 -5.5t62.5 -7q82 -8 160.5 11t152 61.5t141 107t128.5 145.5t113.5 177t96 202.5t76 222t53.5 234.5q4 19 7.5 42.5t6 49t4 52t0.5 50t-5 43t-12 32.5t-21 17.5t-32 -2.5z" />
    <glyph glyph-name="c" unicode="c" horiz-adv-x="1270" 
d="M1116 1502q-25 25 -52.5 49t-56.5 41t-59 27t-60 8q-72 -4 -133 -35.5t-113 -83t-96 -119.5t-80.5 -146t-66.5 -162t-55 -167.5t-44.5 -163l-35.5 -147.5q-7 -30 -12 -63.5t-6 -68.5t2 -70t11.5 -66.5t22.5 -58.5t34.5 -46t49 -29t64.5 -8q70 4 137.5 33.5t132.5 72
t127.5 93l121.5 97.5l26 -45l-71.5 -67t-89 -77l-103 -81t-113.5 -79.5t-120 -72t-122.5 -58t-122.5 -39t-118 -14.5q-81 0 -128.5 40t-70.5 101.5t-24 133t12 133.5q39 186 98 346.5t133 298t160 251t177.5 205.5t186.5 162t188 119.5t180.5 79t163.5 40.5q31 5 65.5 -4.5
t62.5 -28.5t43.5 -46t9.5 -58q-8 -39 -36.5 -71.5t-66 -60t-78.5 -51z" />
    <glyph glyph-name="d" unicode="d" horiz-adv-x="1890" 
d="M2588 3243q30 0 58 -12.5t49 -34.5t31 -53.5t3 -70.5q-4 -21 -11 -39t-18 -36t-25 -38.5l-31 -45.5q-36 12 -75 29t-77 32t-73.5 26.5t-64.5 14.5q-88 9 -173.5 -64t-168 -206t-161.5 -314t-153.5 -389.5t-144.5 -433.5l-134.5 -444l-123.5 -421.5l-111 -366.5
q-11 -36 -9.5 -73.5t30.5 -63.5q46 31 92 68t92 69l37 -46q-33 -22 -68 -50l-71.5 -58l-73.5 -61.5l-73.5 -60.5l-71.5 -54.5t-67.5 -43.5t-62 -27.5t-54.5 -7.5q-20 2 -35.5 9t-24.5 22t-11 40.5t4 63.5q19 105 49.5 209t66.5 207.5l74 207t70 207.5q-65 -81 -142 -165.5
l-160 -168l-169.5 -162.5l-171.5 -149.5t-165.5 -129.5t-152 -101.5t-131 -66t-101.5 -23.5q-38 0 -56.5 29.5t-24 73t-2.5 93t7 87.5q12 103 42 223t80.5 247t121 256.5t164.5 250.5t211.5 228.5t260 191.5t311.5 138.5t366 69.5q55 130 117 258.5t130.5 250.5t142 234.5
t152.5 210.5t161.5 178t168 137t173.5 88t178 31zM1293 1638h-285q-88 0 -166.5 -26.5t-147.5 -76t-129 -119.5t-113 -156t-99 -187t-86 -212t-74.5 -231t-65.5 -243q-5 -22 -10 -52t-4.5 -57t10 -45t31.5 -17q45 2 113 40.5t149.5 105t171 156.5t179 196t174.5 222.5
t155 236.5t121.5 238t75.5 227z" />
    <glyph glyph-name="e" unicode="e" horiz-adv-x="1320" 
d="M1203 1855q60 8 101.5 -12t64 -54t28.5 -75.5t-5 -75.5q-17 -57 -52.5 -114.5t-84.5 -114t-110.5 -109.5t-131 -100.5t-145 -88.5t-153.5 -72.5t-156 -53t-152 -29.5q-15 -54 -34 -108l-36.5 -108t-32 -108t-19.5 -109l-8 -106t9 -101.5t51.5 -80t117.5 -42.5
q64 -7 126 21t122.5 72.5t121.5 96.5t124 95l39 -34q-97 -94 -199 -178t-208 -149.5t-216.5 -107.5t-224.5 -53q-43 -5 -76 3.5t-56 26t-38.5 43.5t-24 57t-11.5 65.5t-2 69.5t6 68.5t11 63.5q43 190 100.5 353t128.5 300.5t152 251t168 204.5t177.5 159.5t181 117t178 77
t168.5 39.5zM446 1047q103 0 203.5 34.5t184 96t142 147.5t76.5 188q7 39 0 67t-22.5 47.5t-38 30.5t-48.5 14q-33 5 -68 -8t-71 -39.5t-71 -65t-69 -84.5t-65.5 -99t-59 -108t-51.5 -111.5t-42 -109.5z" />
    <glyph glyph-name="f" unicode="f" horiz-adv-x="1110" 
d="M1840 3243q34 0 72.5 -7.5t70 -24.5t49 -45t10.5 -71q-5 -26 -27.5 -74.5l-50.5 -107.5q-36 8 -74.5 24t-81.5 31.5t-93 26t-110 9.5q-77 -2 -144.5 -44t-126.5 -112t-109.5 -162t-95 -194t-82.5 -209.5l-71.5 -207l-62.5 -186t-54 -148.5q51 0 122 -9t148.5 -12.5
t154 6.5t138.5 49q7 4 14 -1t11.5 -13t5.5 -17.5t-5 -14.5q-60 -51 -135.5 -88.5t-159 -59t-172 -25t-175.5 13.5q-40 -155 -90.5 -328t-109.5 -353t-126 -362.5t-138.5 -357t-148 -337t-155 -302.5t-158.5 -252.5t-159 -186.5q-94 -89 -174 -158t-151.5 -122.5t-138 -92.5
t-134.5 -67.5t-140.5 -48t-156.5 -34t-182.5 -25t-217.5 -21.5q-92 -8 -164.5 8.5t-121 49.5t-70.5 78t-13 91q4 26 17 51t30 48.5l34.5 47t31.5 47.5q28 -34 75.5 -77.5t119.5 -82t173 -64.5t236 -25q163 1 304 49.5t261 135.5t219 208t178 267q69 128 131.5 271t119 293.5
t108.5 306.5l99 308.5l89.5 299.5l82 280l75.5 249t69 208q-42 -7 -84.5 -9t-85.5 -5.5t-85.5 -12.5t-84.5 -30q-7 -3 -16 0.5t-16.5 9.5t-10.5 13.5t4 10.5q50 30 105.5 69t113 71t114.5 49t110 5q42 136 98.5 273.5t125 268.5t147.5 253t165 229t177.5 194.5t184.5 151
t186 98t182 34.5z" />
    <glyph glyph-name="g" unicode="g" horiz-adv-x="1840" 
d="M1956 1843q-68 -130 -125 -263t-106 -267t-92 -269l-83 -269l-79 -266l-79.5 -261t-85 -253.5t-95.5 -243.5q-46 -109 -104.5 -218t-129.5 -214t-154 -203.5t-177.5 -185.5t-201.5 -160t-226 -128t-249 -89t-273 -43q-46 -2 -98 10t-94.5 37.5t-69 62.5t-22.5 84
q2 20 11 38.5t21.5 37t26 36t24.5 36.5q64 -18 126 -41.5l124.5 -45t127 -36.5t132.5 -14q137 2 254 58t218.5 154.5t189 234.5t163.5 297.5t144 343.5t130 373l121 386l117 383q-70 -86 -150.5 -173.5l-166 -172l-173.5 -164.5l-173.5 -150.5t-166 -129t-151 -100.5
t-128.5 -65t-99 -23q-39 0 -58 29.5t-25 73t-2.5 93t10.5 87.5q32 179 86.5 343t128 309.5t164 271.5t193.5 231t217 186.5t234.5 137.5t246 85t251.5 29h376zM1603 1650h-341q-94 0 -177 -34.5t-155.5 -94.5t-135 -142t-116.5 -177.5t-98.5 -200t-81.5 -211t-66.5 -209.5
t-52.5 -194q-5 -23 -8.5 -53t-0.5 -57.5t13.5 -45t33.5 -15.5q57 7 133 54t163 124t180.5 177t184.5 212.5t176 231.5t155 233t120.5 217.5t73.5 184.5z" />
    <glyph glyph-name="h" unicode="h" horiz-adv-x="1980" 
d="M1666 3243l65 -4.5t62.5 -16t40.5 -43t-1 -84.5q-5 -20 -12 -37.5t-17.5 -36t-24 -39.5t-31.5 -46q-35 17 -73.5 32.5t-78 28t-77.5 20t-73 10.5q-70 4 -145 -55.5t-152 -166t-155 -251.5t-153 -312.5t-146.5 -349l-136 -360.5l-120 -347l-99.5 -309q88 100 185 197.5
l196 188.5l197.5 173.5t189.5 151.5t171.5 123.5t144.5 90.5t108 50t61 4q17 -11 35.5 -25.5t32.5 -31.5t21 -37.5t1 -42.5q-42 -168 -101 -331.5l-122 -327.5l-123.5 -330.5t-104.5 -341.5q-4 -16 -4.5 -36t3 -38t13 -29.5t25.5 -10.5q26 3 49.5 18t45.5 36l43.5 43
t44.5 40l49 -46q-68 -48 -133.5 -104.5l-131.5 -110.5t-135 -99.5t-146 -71.5q-25 -9 -41.5 7t-25.5 44t-10 61t4 58q42 171 99.5 340l119.5 337.5l121 337.5t104 339q5 16 1.5 36t-12 36t-21.5 25.5t-30 4.5q-36 -10 -99.5 -51.5t-144 -107.5t-173 -154t-187 -192
t-184.5 -221t-166 -241.5t-133 -254t-83 -257.5l-362 -181q82 191 147 365.5t119 335.5l101 310.5l91 291.5l88.5 279.5t94.5 274t108.5 274t130.5 280.5q39 78 91.5 158t115.5 158t133.5 151.5t145 138.5t150.5 118.5t149 91t141.5 56.5t128.5 16z" />
    <glyph glyph-name="i" unicode="i" horiz-adv-x="1015" 
d="M870 2594q27 0 55 -13t48.5 -34t30 -47.5t0.5 -53.5q-15 -41 -41.5 -85.5t-62 -81t-78.5 -60t-90 -23.5q-55 0 -86 35.5t-24 112.5q4 47 24 92t53 80t76.5 56.5t94.5 21.5zM706 1855q19 1 34 -11.5t24.5 -31.5t12.5 -41t-2 -42q-47 -166 -107 -331l-122 -330l-120.5 -332
t-101.5 -338q-4 -14 -5.5 -32.5t1 -35t10 -27t21.5 -7.5q30 5 56.5 22t52 38.5t50 45t50.5 42.5q6 -12 12.5 -23l13.5 -23q-65 -76 -141 -153.5t-153 -140.5t-151 -103.5t-134 -44.5q-22 -2 -37 14t-22.5 40t-8 52.5t5.5 51.5q45 169 104 337l122 335l125 334.5t112 336.5
q5 15 7 35.5t0 38.5t-9 29.5t-23 9.5q-30 -4 -56.5 -21t-51.5 -39l-49.5 -45.5t-51.5 -42.5l-48 46q72 48 146 113l147.5 124.5t145.5 102.5t141 47z" />
    <glyph glyph-name="j" unicode="j" horiz-adv-x="975" 
d="M951 2594q25 0 52 -7t47.5 -24t31 -45.5t2.5 -71.5q-7 -42 -31 -86.5t-59.5 -81t-79 -59.5t-90.5 -23q-38 0 -63.5 14.5t-39.5 37.5t-18 51.5t1 55.5q7 39 30.5 81t57 77t75 58t84.5 23zM788 1866q25 9 42 -7.5t26 -44.5t10.5 -61t-5.5 -58l-142.5 -511.5t-156 -514
t-172 -504t-191.5 -483.5q-46 -105 -104.5 -210t-129 -205t-154.5 -193t-179 -174.5t-201.5 -149t-223.5 -117t-244.5 -78.5t-264.5 -33q-43 -1 -88 8t-81.5 32t-59.5 60.5t-22 92.5q1 23 12 44.5t26 42.5t32 42t29 42l84 -61t96.5 -55t127.5 -36.5t176 -6.5q106 6 194 31.5
t161.5 66t134 94t110 115.5t91 131t76.5 141t65.5 144l59.5 141q88 214 165 444t147 468l135.5 479l130.5 475q4 13 5.5 32t-1 35.5t-10 26.5t-21.5 8q-32 -5 -61 -22t-57.5 -39t-56 -45.5t-56.5 -41.5l-47 57q69 51 139.5 109l144 113t150.5 101.5t159 74.5z" />
    <glyph glyph-name="k" unicode="k" horiz-adv-x="1688" 
d="M-222 -44q51 127 96 260l87 269.5l83.5 275.5l83 279l84.5 279t90 275.5t99 270.5t112 262q53 118 122.5 238.5t148 232t163.5 208t169 164.5q62 50 134 99t147.5 88.5t153 66t150.5 30.5q30 2 60 -10t53 -33t35.5 -48.5t7.5 -56.5q-4 -25 -13.5 -47t-21.5 -42.5
t-25.5 -40t-26.5 -40.5l-83.5 25.5t-86 24.5t-82.5 19t-75 10q-72 5 -146 -51t-148 -156t-147 -236t-142.5 -292t-135 -324.5l-124.5 -333.5l-110 -318.5l-92 -279.5q61 55 125 119l129.5 131l133 134l135 129.5t135 117.5t133.5 97t129.5 69t124.5 34q29 3 54.5 -11
t44 -37.5t28 -53t5.5 -58.5q-6 -35 -25 -67.5t-46.5 -64.5t-60 -63.5t-63.5 -65.5q-30 25 -52.5 48t-44 39.5t-45 23.5t-54.5 2q-94 -15 -182 -71t-161 -133q0 -60 4.5 -139.5t12.5 -169t20.5 -184t29.5 -183.5t38 -168t46.5 -137.5t55.5 -91.5t65 -31q34 2 65.5 21t61 45
l59 54.5t60.5 50.5l37 -46q-31 -24 -63.5 -53.5l-65.5 -61.5l-66.5 -64.5l-66 -62.5t-64.5 -56.5t-62 -46t-58.5 -30.5t-53.5 -11q-45 0 -80.5 33t-63.5 91.5t-49 137.5t-36.5 169.5t-26 189t-18 195t-12.5 188t-8 167.5q-113 -107 -188.5 -237t-128 -267.5t-87 -274.5
l-63.5 -256z" />
    <glyph glyph-name="l" unicode="l" horiz-adv-x="974" 
d="M1665 3243q32 -1 62 -5t52.5 -21t33.5 -51t5 -94q-2 -20 -11 -37.5t-22 -35t-29 -36l-33 -39.5q-70 34 -142 57t-138 34q-43 7 -87 -7.5t-88.5 -49.5t-88.5 -87.5t-88 -120t-87.5 -148t-86.5 -171.5t-84.5 -190.5l-82 -205l-79.5 -215l-76 -220l-72.5 -220.5l-68 -216
l-62.5 -207.5l-57.5 -194.5l-52 -176l-45.5 -153q-4 -16 -5 -35.5t3.5 -36.5t13.5 -29.5t25 -12.5q23 -2 44.5 12.5t43 33l41 35.5t37.5 21l39 -34q-36 -27 -72 -58.5l-72.5 -65.5l-72.5 -68.5l-72.5 -67t-72.5 -60.5t-72 -49.5t-70.5 -35t-68.5 -15.5q-23 -1 -34 16t-14 44
t0.5 57t8.5 52q34 138 75.5 288.5l89 307.5t102.5 319t116 323.5t127.5 320t138 309t147 291t154.5 265.5q98 155 202.5 281.5t211.5 216t216 138t218 47.5z" />
    <glyph glyph-name="m" unicode="m" horiz-adv-x="2960" 
d="M165 1445q72 50 140.5 112l138.5 120t144.5 103.5t158.5 62.5q24 5 40.5 -10.5t26 -40.5t11.5 -55t-4 -53q-26 -103 -58 -206.5l-66 -207.5l-68.5 -208.5l-67.5 -208.5q75 99 156.5 193.5t165.5 182.5t168.5 167.5t166 148t157.5 123.5t143 94t122.5 60t95.5 21
q22 0 38.5 -13t27 -33.5t14 -44.5t-0.5 -45q-25 -111 -61 -220.5t-77 -219l-84 -218.5t-80 -218l127 147l142.5 161.5l153.5 165.5l159 160t160 144t156.5 117.5t147.5 81.5t133 35q24 2 42.5 -12t30.5 -36.5t16 -49t-1 -50.5q-40 -168 -99 -331l-121.5 -327l-121 -331
t-98.5 -342l-5 -31.5t-3 -35t5.5 -27t19.5 -8.5q29 4 55 19.5t51 36l49.5 42t50.5 38.5l51 -34q-68 -48 -136 -111.5l-135.5 -122t-136.5 -101t-138 -51.5q-26 -3 -42.5 13.5t-25.5 43t-10 57.5t5 56q42 171 98.5 340l117.5 337.5l120.5 337.5t106.5 339q4 13 3 30.5t-6 32
t-14.5 23t-22.5 5.5q-34 -9 -95 -52t-139.5 -113.5t-168.5 -163.5t-181 -201.5t-178 -227.5t-158.5 -242t-122.5 -244.5t-71 -234.5l-349 -170l138 380.5l140 389.5l132.5 394t114.5 394q4 14 4.5 29.5t-3.5 29.5t-14 23t-28 9q-12 0 -60 -33.5t-118.5 -95t-158 -147.5
t-180.5 -190.5t-186 -224.5t-173.5 -249.5t-142.5 -266t-95 -272.5l-322 -158l120 371l123.5 372.5l120.5 372.5l113 373q4 14 5 29.5t-2 29.5t-11 23t-21 9q-35 0 -65.5 -13.5t-58.5 -33.5t-54 -44l-51 -45z" />
    <glyph glyph-name="n" unicode="n" horiz-adv-x="2075" 
d="M747 1843q23 0 39 -13.5t25 -36t9 -51t-10 -58.5q-33 -102 -61 -204.5l-57 -205t-62.5 -205t-77.5 -204.5l148.5 153l167.5 163l178 163l180.5 155t175.5 137t162.5 109t140.5 72t112 26q22 0 39 -14.5t27 -37t13 -48t-3 -48.5q-41 -168 -104 -334.5l-127.5 -332.5
t-121.5 -332t-86 -332q-3 -13 -6 -32t-2.5 -35.5t5.5 -27t19 -7.5q30 6 56 22.5t51 38.5l50 45t51 42l37 -46q-66 -48 -130 -105l-128.5 -111.5t-132.5 -100t-144 -69.5q-27 -9 -45 8t-28.5 47t-12.5 65t5 61q41 170 99 337.5l120.5 335l124 334.5t109.5 336q4 14 3 29.5
t-6.5 29t-15 22.5t-22.5 10q-36 2 -102 -34.5t-150 -103.5t-181 -160t-195.5 -202.5t-192.5 -232.5t-171.5 -249.5t-134 -253t-78.5 -243.5l-334 -158l137.5 383.5l127 374l117 370l109.5 373.5q4 13 3 30t-6 31.5t-15 23t-23 5.5q-31 -6 -58.5 -23t-54 -38.5l-53 -44.5
t-53.5 -41l-38 45q34 25 71 56l75 63.5l77 66l77.5 64.5t76 58t73 47t69 31.5t63.5 11.5z" />
    <glyph glyph-name="o" unicode="o" horiz-adv-x="1620" 
d="M1202 1855q58 0 102 -13.5t77 -37t55.5 -55.5t36 -70.5t19 -81.5t4.5 -88t-7 -90t-15 -88q-19 -83 -46 -174.5t-64.5 -185.5t-87 -188t-113.5 -180q-50 -68 -106 -131t-116.5 -120.5t-123.5 -108.5t-126.5 -94t-126.5 -76.5t-123 -57t-115.5 -36t-105.5 -12.5
q-61 0 -107 12.5t-78 34t-52 51.5t-31 65.5t-14.5 75t-2 80t6.5 81t11 77.5q25 166 86.5 338t154 330t213.5 291.5t265 223.5l127.5 79.5t132.5 73t135 54t135 21.5zM949 1650q-74 0 -140 -27.5t-123.5 -75t-106.5 -112.5t-90 -140.5t-74.5 -159t-58.5 -167.5t-43 -165.5
t-29 -154.5l-11 -73t-9.5 -79t-3 -79.5t7 -76t21 -67.5t40.5 -53.5t64 -35.5t91 -13q68 0 129 27t116 74.5t103 112t90 139t77.5 156t65 163t52.5 160t40 146.5q29 115 26 208t-32.5 158t-81 100t-120.5 35z" />
    <glyph glyph-name="p" unicode="p" horiz-adv-x="1970" 
d="M1886 1843q53 -7 84.5 -48t46.5 -98t15 -121.5t-9 -118.5q-23 -131 -74 -265t-125.5 -264.5t-169.5 -253.5t-206.5 -232t-237 -198.5t-259.5 -153t-274.5 -97t-282.5 -29.5q-25 -89 -70 -199.5t-111 -231t-150.5 -244t-188.5 -238.5t-226.5 -215.5t-262 -174
t-295.5 -114.5t-328 -37q-45 2 -94 17t-88.5 42t-62.5 64.5t-15 81.5q4 22 14.5 39.5t24 33.5t28 31t25.5 33q54 -34 114.5 -55.5t124.5 -35t130.5 -21t132.5 -13.5q80 -8 153.5 6.5t141.5 48.5t130.5 85.5t120.5 118t111.5 147t103 172t95.5 192t88 208.5l82 220.5
l78 228.5l73 233l69.5 233l67 228.5l65 220l64.5 208l64 191.5q4 11 2 26.5t-8 28.5t-15.5 20.5t-21.5 3.5q-35 -10 -66.5 -30t-61 -44l-59 -49.5t-60.5 -46.5l-35 57q38 25 76 56.5t75.5 66l75.5 69.5l75.5 67.5t75.5 61t76 49t76 31t76 8.5q24 -1 40 -17t25.5 -40
t11.5 -51t-2 -51q-20 -101 -51.5 -200.5t-68 -199l-74.5 -198.5t-72 -198l161.5 182.5l166.5 177.5l168 165.5t165 148t157 123.5t144 92.5t126.5 55t104.5 10.5zM1590 1581q-47 3 -111.5 -31t-141 -96.5t-161 -149t-170 -190.5t-169 -221.5t-157.5 -240.5t-135.5 -248
t-104.5 -245q56 -8 110.5 -20t111.5 -14q95 -2 185 24.5t172.5 76t157 119.5t139 155.5t118.5 183.5t96 203t71.5 214.5t44.5 218.5q5 35 10 79.5t1.5 84.5t-18.5 68t-49 29z" />
    <glyph glyph-name="q" unicode="q" horiz-adv-x="1840" 
d="M1943 1832q-143 -325 -260.5 -656t-224 -661.5l-208 -656.5t-212.5 -642q-24 -68 -51 -137.5t-64.5 -134.5t-88.5 -123.5t-123 -105.5q145 0 275.5 -8.5t266.5 -13.5l-24 -69q-137 -4 -271.5 -9.5t-272 -17.5t-281 -32.5t-299.5 -54.5l26 80q40 13 94 23.5t109.5 24
t108 34.5t88.5 55q49 78 99 187.5t101 240.5t102.5 279l102 304l100.5 314.5l98 311.5l93.5 294.5l88.5 263.5q-61 -71 -134.5 -149l-153.5 -158l-164.5 -158.5l-169.5 -151t-167.5 -134.5t-157.5 -108.5t-141 -74.5t-118 -32q-42 -4 -61 27.5t-23.5 79.5t1 102.5t12.5 96.5
q31 175 85.5 335t128.5 303.5t165.5 268t195.5 228t219 184.5t236.5 136.5t247 85t250.5 29.5h376zM1579 1638h-342q-101 0 -187.5 -37t-160.5 -101t-136 -150t-113 -184t-92.5 -203.5t-74.5 -208t-59 -196.5l-46 -171q-6 -22 -11 -52.5t-4.5 -57t10 -44.5t32.5 -17
q52 4 122.5 43.5t152 106.5t170.5 157t178 195t174 221.5t159 235.5t133 236.5t95 226.5z" />
    <glyph glyph-name="r" unicode="r" horiz-adv-x="1390" 
d="M746 1843q28 3 42 -18t18.5 -53t1.5 -69t-7 -65q-14 -81 -36.5 -162t-49.5 -162l-55.5 -162t-52.5 -162l93.5 125.5l108 139l118 143.5l123.5 138t122.5 123t116.5 98.5t106 64.5t90 21q26 -1 49.5 -16.5t40 -38.5t22.5 -50.5t-3 -53.5q-15 -44 -44 -82.5t-65 -73.5
t-77 -66.5l-80 -61.5l-23.5 43.5t-23 31t-27 19t-33.5 8.5q-55 4 -117 -33t-127.5 -104.5t-133 -160.5t-133 -201t-127.5 -226.5t-116 -236t-99 -230t-77 -208.5l-309 -146l121 368.5l124 369l120.5 369.5t110.5 371q4 14 4 32.5t-5 34.5t-14.5 26.5t-23.5 8.5
q-30 -4 -57.5 -19.5t-54 -35.5t-52.5 -42t-53 -39l-29 34l28.5 29l50 50.5l66.5 64t79 69.5t87 68.5t90 60.5t89 45t83 22z" />
    <glyph glyph-name="s" unicode="s" horiz-adv-x="1140" 
d="M1004 1832q35 -3 77 -8t76 -18.5t51.5 -37t1.5 -61.5q-21 -52 -46.5 -80.5t-53 -44.5t-56 -24.5t-56.5 -21.5q-24 34 -47 62t-47.5 48.5t-53 33t-63.5 15.5q-46 5 -95 -19t-89.5 -63t-68.5 -87t-32 -92q-6 -58 5.5 -112.5t34 -107.5t52.5 -104.5l60 -103.5l57.5 -104
t45.5 -106t23 -110.5t-10 -116.5q-14 -60 -41.5 -117.5t-65 -111t-84.5 -102t-100.5 -89.5t-113 -73.5t-122.5 -54.5t-128.5 -33.5t-130.5 -9.5q-38 1 -81 5.5t-81.5 16t-66.5 33.5t-35 58q-6 30 15 59.5t54 55t70.5 46t64.5 32.5q9 -25 34 -57t59 -59.5t75.5 -46.5
t83.5 -19q60 0 119 27.5t106.5 70t78 95t32.5 103.5q4 59 -8 114t-33.5 108t-50 103.5l-57 101l-55.5 101t-45 103.5t-24.5 108t3.5 115q10 57 35.5 113.5t62.5 109.5t84 101t101.5 89t113.5 74t121 55t123.5 32t120.5 6z" />
    <glyph glyph-name="t" unicode="t" horiz-adv-x="1175" 
d="M1069 2173q-61 -102 -118.5 -211.5t-94.5 -220.5q67 -9 139 -14t141.5 -3t133.5 13.5t116 37.5l26 -46q-72 -46 -152 -81.5t-161 -54.5t-161 -20t-153 20l-93.5 -287l-96 -286.5l-91.5 -287.5t-81 -288q-5 -20 -8 -45t-1 -48t11 -38.5t28 -16.5q31 -1 60 13.5t57 36
t56 45.5t56 42l31 -23l-69.5 -71l-78 -74l-83.5 -73l-85.5 -68.5t-83.5 -60.5t-78 -48.5t-68.5 -33t-55.5 -14.5t-39 15.5t-22 43.5t-6.5 56.5t6.5 53.5q47 182 104 363l119 361.5l125.5 360.5l122.5 360q-49 -3 -97.5 -2.5t-96.5 -3t-96 -14.5t-95 -36l-6 34
q128 68 238.5 134.5t218.5 141.5t220.5 162.5l242.5 198.5z" />
    <glyph glyph-name="u" unicode="u" horiz-adv-x="2020" 
d="M732 1843q24 3 40.5 -12.5t26.5 -40.5t11.5 -53.5t-3.5 -52.5q-44 -174 -103.5 -344l-124 -339.5l-128 -339t-113.5 -342.5q-4 -14 -4 -35t4.5 -40.5t13.5 -31.5t23 -7q59 19 135.5 71.5t163.5 130.5t180 176t183.5 208t174 227t153 233t119.5 226.5t73 206.5l341 193
q-79 -183 -148 -370t-131.5 -375.5l-120 -378l-114.5 -377.5q-5 -16 -7.5 -36t-0.5 -38.5t9.5 -30t23.5 -9.5q32 4 61.5 20.5t57 39l55.5 46t57 42.5l37 -46l-69.5 -62.5l-75.5 -65.5l-78.5 -65l-78.5 -61.5l-76 -55t-70 -44t-61 -30t-50 -13.5q-26 -2 -44 14.5t-28.5 42.5
t-13.5 56.5t2 55.5q19 102 51 203.5t69 202.5l76 201.5t72 201.5l-137 -146.5l-154 -157.5l-164 -160l-168.5 -153.5t-167.5 -138t-159.5 -112.5t-145 -77t-124.5 -33q-24 -2 -43 13.5t-29.5 39.5t-14 52.5t2.5 52.5q40 170 101 334l125.5 328.5l125 333t100.5 347.5
q2 10 3.5 25t-0.5 28t-7 21t-16 5q-30 -6 -57.5 -22t-54 -35.5l-52.5 -40.5t-54 -38l-38 46q71 48 140.5 111l139 121.5t139 102t139.5 51.5z" />
    <glyph glyph-name="v" unicode="v" horiz-adv-x="1650" 
d="M608 1843q39 3 64.5 -13.5t41 -46.5t22 -71.5t7 -90t-4 -100.5t-10.5 -103.5t-12.5 -100t-10.5 -88.5q-14 -124 -44.5 -247.5t-68.5 -247.5l-79 -248t-74 -247q72 56 149.5 125t155.5 147t154.5 163t146.5 171t131.5 172t109 166t79 152.5t42.5 132.5q2 15 0.5 33
t-8 33.5t-17 25.5t-25.5 10q-22 0 -46 -9.5t-45.5 -23.5t-38.5 -29.5t-23 -28.5l-49 46l111.5 99.5t113 90t118 73.5t127.5 50q26 7 49.5 -2t40 -30t24.5 -52.5t2 -69.5q-14 -92 -66.5 -198t-132 -219.5t-180 -231.5t-211.5 -234l-225.5 -226l-222.5 -208l-202.5 -180.5
l-165.5 -141.5q-53 -45 -99 -62t-73 -16q-9 0 -18.5 5.5t-17 13.5t-10.5 17.5t0 19.5q34 124 73.5 248.5l77 250t68.5 251.5t48 251q5 33 10 73t9.5 83t7 87t2 84t-5 75t-14.5 60t-26.5 38.5t-40.5 11.5q-30 -3 -59 -18.5t-56 -37t-53 -46.5t-51 -46l-40 34l56 60.5l62 66.5
l66.5 68.5t70 66.5t72 60t72.5 49.5t71.5 34.5t70.5 15z" />
    <glyph glyph-name="w" unicode="w" horiz-adv-x="2690" 
d="M645 1843q30 -2 51.5 -15.5t36.5 -36t24 -51.5t13.5 -62.5t4.5 -70t-1.5 -72.5t-5.5 -70.5t-8 -64.5q-18 -138 -55 -274.5t-82 -273l-93 -272.5t-88 -273l279 253t267 277.5t244.5 322.5t213.5 387q30 26 63 57.5l66.5 65.5l67.5 69.5l65 69.5l53 -23q-22 -55 -40 -115.5
t-32.5 -123t-26 -126l-22.5 -124.5q-11 -62 -21.5 -138t-19 -159t-14 -167.5t-6 -164t4.5 -148t18 -119.5t35 -79t55 -26q39 2 86 33t98.5 84t105 124t106 153.5t101.5 173.5t91 183t75.5 182t54.5 171q6 24 5.5 51t-8 51.5t-22 43t-36.5 24.5q-23 6 -46.5 -4.5t-47 -28
l-47.5 -37t-48 -32.5l-39 34q60 43 117 99l115 108t119 90t129 44q48 5 73.5 -16t35.5 -54.5t8.5 -73t-6.5 -72.5q-16 -85 -63.5 -199.5t-118.5 -243.5t-160 -266t-187.5 -268t-201 -248t-199 -207t-184 -144.5t-154.5 -60.5q-47 -5 -78 27.5t-49 92.5t-24.5 142.5t-5 176.5
t8 194.5t15.5 197l18 184t15 155.5q-68 -104 -152.5 -210.5t-178.5 -209.5t-193.5 -200.5l-196.5 -184l-187 -159.5t-166 -127t-133.5 -86t-88.5 -39q-10 -2 -22.5 5.5t-7.5 17.5q72 144 133 299.5t112 316.5t93 323.5t78 322.5q5 22 10.5 49t9.5 55t6.5 56.5t2 54.5t-5 49
t-14 40t-25 27t-37.5 10q-26 0 -56 -18.5t-62 -45.5l-65 -56t-64 -50l-26 45l56.5 56.5l63.5 65l69 67.5l72.5 65.5t72.5 58.5t71.5 47t68.5 30t63 8z" />
    <glyph glyph-name="x" unicode="x" horiz-adv-x="1535" 
d="M217 1377q50 64 103.5 140t113.5 144t126 118.5t141 62.5q31 6 51.5 -13t33 -55.5t18.5 -88t7.5 -111t1 -125t-1.5 -130.5t-1 -126t4 -112l90.5 115l97.5 127.5l101.5 130.5l102.5 124.5t101 111t96.5 89t90 58t81.5 18.5q30 -2 56.5 -16t45.5 -36t28 -50t3 -58
q-4 -26 -13 -57t-19 -57q-20 3 -39 7t-39 5q-61 4 -122 -14.5t-119.5 -53t-114.5 -81.5t-107.5 -100t-97.5 -108l-85 -105.5l-70.5 -93l-53.5 -70.5q3 -53 5.5 -112.5t6 -119.5t8 -118.5t11.5 -111.5t18 -97.5t26.5 -75.5t36.5 -47t50 -12q27 4 51 21t46 39t43.5 46t44.5 42
l28 -34q-51 -52 -106.5 -118.5t-113 -127.5t-117 -104t-120.5 -47q-30 -3 -51.5 20t-37 65t-25 99t-15.5 122t-9.5 134.5t-6.5 137t-7 129.5t-10 111q-40 -71 -86.5 -144.5l-96.5 -145.5t-103.5 -141t-107.5 -129.5t-107.5 -111t-104 -86.5t-98.5 -55t-90 -17q-31 2 -60 12
t-52 30t-37.5 49t-15.5 67q-1 14 3 26.5t10.5 25.5t14 25.5t12.5 25.5q31 -3 62 -6.5t61 -4.5q58 -2 113 14t108 46t104.5 72.5t100.5 93t96.5 107.5l93.5 116l89.5 118.5l85.5 114.5q-6 39 -11 86.5l-10 99l-10 104.5t-11.5 101.5t-14.5 90t-19 70.5t-25 43.5t-32 7.5
q-62 -22 -110 -72t-92 -110z" />
    <glyph glyph-name="y" unicode="y" horiz-adv-x="1935" 
d="M1703 1707l335 159l-150.5 -388t-146.5 -397q-63 -184 -123 -386.5t-127.5 -409t-146.5 -410.5t-181 -393t-231.5 -355t-297 -295.5t-377.5 -216t-473 -116.5q-48 -5 -103.5 3.5t-100 33.5t-69 66.5t-9.5 101.5q5 19 15 38t21.5 37l24 36t22.5 37q61 -19 119.5 -44.5
l118 -49t120.5 -39.5t127 -15q163 2 297 72t244.5 188.5t200.5 276.5t164.5 336t136.5 366.5t116 369l103.5 343.5t99.5 289l-125 -143l-145.5 -156l-159 -160t-167.5 -154.5t-169 -139t-164 -113.5t-153 -78.5t-136 -33.5q-25 -2 -42 12t-26.5 35.5t-11.5 48.5t4 51
q40 172 97.5 343t120.5 340.5l125.5 340t113.5 341.5q2 10 1 23t-5 24t-11.5 17.5t-18.5 3.5q-28 -8 -54 -24t-51.5 -35t-50 -39.5t-50.5 -37.5l-30 23q44 55 103.5 115t128 115.5t144 102.5t151.5 76q26 10 46.5 -5.5t33.5 -43.5t17.5 -61.5t-1.5 -60.5
q-44 -177 -106 -351.5l-129.5 -348.5l-133.5 -348.5t-118 -350.5q-3 -13 0.5 -30t11.5 -30.5t19.5 -20t23.5 0.5q81 52 168.5 118.5t176 147t176 172t170.5 191.5t158.5 207.5t139.5 220t115 227.5t84 230z" />
    <glyph glyph-name="z" unicode="z" horiz-adv-x="1470" 
d="M712 1843q76 0 148.5 -15t144.5 -34t144 -35t148 -18q32 -1 63.5 7.5t63 21.5l63 26.5t63.5 23.5l51 -34l-780 -745l-780 -745q28 5 56.5 14t56.5 16.5t56 12t55 2.5q66 -5 128.5 -20t124.5 -32t124.5 -31.5t128.5 -18.5q67 -4 120.5 15.5t101.5 58t96.5 93l106.5 117.5
l53 -22q-28 -39 -54 -81l-52.5 -84.5l-54.5 -84.5t-59 -80.5t-67 -72t-79 -59t-93 -41.5t-111 -20q-85 -6 -165.5 12t-160 43t-159.5 47t-164 22q-40 1 -89 -10.5t-95 -30t-85 -40.5t-59 -43l-31 22q167 196 357 395.5l393.5 397l414.5 390l418 376.5q-30 -6 -59.5 -14
l-59 -15.5t-59 -12.5t-58.5 -4q-58 2 -114.5 13l-112.5 23t-112 22t-115 10q-64 0 -115.5 -25t-97 -64.5t-88 -88t-89.5 -95.5l-43 12l38 68t50 80.5t61 86.5t71 86t80 78.5t87.5 64t94 43.5t99.5 16z" />
    <glyph glyph-name="zero" unicode="0" horiz-adv-x="2140" 
d="M1658 2628q125 4 224.5 -34t162 -130.5t82.5 -247t-17 -384.5q-27 -175 -85.5 -349t-141 -340t-185 -319t-219.5 -286t-245 -242t-260.5 -186t-265.5 -117t-260 -37q-91 2 -159.5 25t-117 63t-79.5 93.5t-49 116t-24 131.5t-4.5 139.5t8.5 139.5t16 132q17 120 57.5 261
t103 291t147 302t188.5 293t227.5 264t265 215.5t299.5 147t331 58.5zM1414 2469q-109 -4 -206 -47.5t-181.5 -116.5t-157.5 -171t-135 -211t-113.5 -236.5t-93 -248t-74 -244.5t-54.5 -227q-13 -59 -23 -125.5t-14 -136t0 -138.5t18 -131.5t40 -116t67 -92.5t99 -60
t135 -19q107 3 203 46.5t181 117t159.5 173t137.5 215.5t116 242.5t95.5 254.5t74.5 252t54 235q36 175 32 321t-45.5 251t-120.5 161.5t-194 51.5z" />
    <glyph glyph-name="one" unicode="1" horiz-adv-x="1440" 
d="M1330 2594q-226 -606 -419 -1224.5t-344 -1233.5l486 -79l-11 -67q-176 5 -350.5 12.5t-351.5 8.5q-167 2 -335 -3t-337 -8l23 68l524 68q105 282 197.5 558l179.5 550.5l170.5 548l170.5 551.5q-71 -17 -138.5 -35.5l-133.5 -35.5t-131 -31.5t-131 -22.5l24 68
q130 38 242 77t215 80.5t203 87l207 96.5z" />
    <glyph glyph-name="two" unicode="2" horiz-adv-x="1960" 
d="M1404 2628q50 -1 101 -7.5t100 -20t94 -35t82 -52.5t65.5 -72.5t45 -96t18.5 -122.5t-12 -151q-20 -109 -94.5 -235t-187 -259.5t-253 -270.5t-291 -268l-300.5 -252l-282.5 -222.5l-237.5 -179.5l-164 -122q126 3 251.5 5.5t251.5 5.5h557q115 0 205.5 89.5t162.5 251.5
h79l-112 -250q-88 -196 -186 -285t-220 -79q-193 17 -382.5 30.5t-382.5 14.5q-148 2 -298 -11.5t-299 -22.5l-22 68l242 174.5l278 209.5l294.5 235.5t291 254t268 264t225.5 264.5t164.5 257t83.5 242q19 120 -7 210.5t-81.5 151t-133 90t-160.5 26.5q-108 -4 -190 -43
t-140.5 -96.5t-93 -126.5t-45.5 -133q-6 -34 -9 -65t-3.5 -63t2 -67t7.5 -78q-17 -5 -35.5 -14t-36.5 -8q-59 4 -92 25t-48 51t-17 67t2 73q5 53 34 109.5t76 113t108.5 110.5t132.5 102t148 88t154 68.5t151.5 43.5t140.5 13z" />
    <glyph glyph-name="three" unicode="3" horiz-adv-x="1935" 
d="M1304 2617q51 0 103 -5t101.5 -16.5t95 -30t84.5 -45t70.5 -62.5t51 -81.5t27 -101.5t0.5 -125q-8 -65 -39 -129.5t-78.5 -126t-108.5 -119t-130 -108.5t-142 -94t-143 -76.5t-134.5 -55.5t-117.5 -30q59 -4 119 -13t117 -24t109 -38t95 -56t75.5 -77.5t50 -102.5
t18.5 -130.5t-19 -161.5q-39 -174 -142 -327.5t-263 -269t-374 -183.5t-476 -72q-41 -1 -87.5 3.5t-95 14t-95 23.5t-88 33t-76 43.5t-56.5 53.5t-29.5 62.5t3.5 72.5q11 38 32.5 75.5t51.5 69.5t68 56.5t83 37.5q-12 -43 -10.5 -85t13 -82t32.5 -76.5t50 -68t65 -57t76 -43
t84 -26t89 -6.5q86 4 163.5 23t145.5 49.5t127 71.5t108.5 90t88 103.5t67 112t46 116.5t23.5 117q5 54 8.5 106.5t0.5 101.5t-14.5 94t-36 85t-64 73.5t-99 60t-140.5 44.5t-188 26l37 80q68 -2 140 12t144 42t142 68t133 89.5t116.5 106t94 118.5t64.5 127t28 131
q6 107 -19.5 183.5t-72 126t-110.5 73.5t-136 27q-34 0 -72.5 -8t-78.5 -24t-79.5 -38.5t-75 -50.5t-66 -60.5t-53 -68t-34 -73t-9.5 -76.5q1 -36 6 -67.5t4 -68.5q-60 -26 -104 -18t-72.5 35t-39.5 66t-6 76q8 62 36.5 115.5t70.5 98.5t96.5 82t115.5 66.5t127 51t131.5 36
t128 21.5t117.5 7z" />
    <glyph glyph-name="four" unicode="4" horiz-adv-x="2040" 
d="M1904 2605q-89 -192 -159.5 -383.5t-130.5 -381l-114.5 -377l-112.5 -371.5h120h119q60 0 116 36t104 112l55 -11q-15 -24 -26.5 -51.5l-22.5 -56.5l-22 -58.5t-25.5 -57t-33.5 -51t-44.5 -41t-59.5 -27.5t-79 -10h-130.5h-131.5q-69 -196 -121 -396.5t-86 -388.5
l-308 -135l-66 11l83.5 234.5l86 236.5l82 234t72.5 227q-145 4 -283.5 5.5t-274.5 -3t-271 -15.5t-271 -33l-33 137l409 358l387.5 355.5t374 377.5t369.5 422l375 125zM1550 2401l-318 -351l-334 -346.5l-349 -333t-363 -312.5q120 26 238 35.5t235.5 12t234.5 2.5t235 7z
" />
    <glyph glyph-name="five" unicode="5" horiz-adv-x="1890" 
d="M2016 2685q-16 -53 -32.5 -98.5t-36 -83.5t-45 -68.5t-60 -55t-78.5 -42t-102 -28.5t-131.5 -16.5t-164.5 -5.5l-529 34q-19 -107 -51 -213t-71 -210.5l-80.5 -206.5l-80.5 -200q51 21 106 32.5t112 18.5t114.5 12.5t113.5 15.5q44 8 95 4.5t104.5 -18.5t106.5 -41
t99 -63t83 -85t58.5 -107.5t25 -129.5t-15.5 -151q-38 -156 -101 -282t-143 -227t-173.5 -177.5t-192.5 -133t-199.5 -95t-196 -61.5t-181.5 -34t-154 -13q-41 -2 -85 2t-87.5 12.5t-86.5 22t-81 32t-69 43t-51.5 54t-29 64.5t-1.5 76q6 37 28 72.5t54 65.5t71.5 53t79.5 36
q-11 -111 20 -187.5t88.5 -124.5t133 -71t152.5 -27q84 -4 164.5 14t154.5 52.5t141 84.5t125.5 109.5t106.5 127.5t84.5 138.5t60.5 142.5t33 140q16 115 -0.5 214.5t-68.5 173t-141 116t-217 42.5q-57 0 -116 -10t-117 -28.5t-114.5 -43.5t-108.5 -55l-38 46
q78 127 136.5 257.5t102.5 265t76 274t58 284.5l200 170q67 -4 132.5 -12t131 -15t132 -10t133.5 3q34 3 74 4t81.5 1.5t84 2t83 5.5t77 11.5t66 21t50.5 32.5t30 47h68z" />
    <glyph glyph-name="six" unicode="6" horiz-adv-x="2000" 
d="M1851 2628q36 5 79.5 -0.5t80.5 -21t60 -41.5t20 -62q-3 -31 -20 -63.5t-41 -62.5t-51.5 -53.5t-50.5 -36.5q-19 38 -50 72t-70 58.5t-83 37.5t-90 10q-113 -6 -215.5 -45.5t-194.5 -103t-174 -148t-154.5 -181.5t-135.5 -203t-116.5 -213t-98 -212t-80.5 -199
q44 43 94 87t105 86.5t114 83t120.5 75.5t124.5 64.5t126.5 51t126 33t123.5 11.5q96 -1 172.5 -45t125.5 -117.5t68 -171t1 -203.5q-27 -149 -80.5 -278t-126 -239.5t-161.5 -201t-186 -163t-198.5 -126t-199.5 -87.5t-189 -50.5t-168 -13.5q-94 2 -163.5 22t-119 52.5
t-81 77t-49 96.5t-23.5 109.5t-4 116.5t9 118t15 114q25 170 78 340t130.5 333.5t178.5 317t221 290t257.5 252.5t289.5 205t316.5 148t337.5 80zM1128 1434q-68 2 -136.5 -16t-134.5 -52.5t-129 -83.5t-118.5 -107.5t-102.5 -125t-83 -137.5t-58 -143.5t-28 -142.5
q-4 -43 -5 -88.5t3 -91t13 -89.5t26.5 -84t43 -73t62 -57.5t85 -38t110.5 -13.5q64 0 128 21.5t125 60t118.5 91.5t108.5 115.5t94.5 132t77 141t56.5 143t32 137.5q6 39 9 81t1.5 84t-8 82.5t-20.5 77t-36.5 68t-55 55t-76.5 37.5t-102 16z" />
    <glyph glyph-name="seven" unicode="7" horiz-adv-x="1735" 
d="M2252 2591l10 -65q-184 -109 -348.5 -239t-310.5 -275.5t-274 -304t-238.5 -325t-203.5 -338t-169 -342.5t-135.5 -339.5t-102.5 -328.5l-339 -142l-39 64q102 336 268.5 661.5t386 629.5t488.5 581t575 516q-19 -2 -32.5 -5l-25 -5.5t-21.5 -5.5t-22.5 -5.5t-29.5 -5
t-42 -4t-59 -2.5t-81 -1h-694q-47 0 -101 -6.5t-104.5 -26.5t-92.5 -58.5t-66 -102.5l-66 11q24 42 45 85.5l42.5 86.5t47.5 83.5t60 75.5q26 26 57.5 51.5t65.5 45t69.5 30.5t69.5 9l186.5 -8t198 -7t202.5 -5t200.5 -3t190.5 -0.5t172.5 3t147 6.5t114.5 11z" />
    <glyph glyph-name="eight" unicode="8" horiz-adv-x="1895" 
d="M1441 2639q48 -1 97 -7.5t95.5 -20t90 -34.5t80 -50.5t65 -68.5t46 -88t22.5 -109.5t-6 -133.5q-9 -58 -31.5 -113t-56 -107t-77.5 -100.5t-94 -94t-106.5 -87t-115 -79t-118.5 -71.5t-119 -64q69 -43 141 -111.5t126 -156t79.5 -190t1.5 -213.5q-16 -78 -51 -153
t-85.5 -144.5t-115 -131.5t-140 -115t-161.5 -95.5t-179 -72t-192.5 -45.5t-201.5 -16q-51 0 -106 6t-108 19t-103 35t-91.5 53t-73 71.5t-49.5 92.5t-19 116t19 141q35 133 107.5 252t176.5 224.5t236.5 197t286.5 168.5q-56 42 -109 98t-89.5 126.5t-50 156t8.5 188.5
q15 69 45 137.5t73.5 133.5t98.5 124.5t119.5 111t138 93t154 71t166 44.5t175.5 12zM1322 2549q-124 -6 -218 -56t-160.5 -125t-108 -166t-60.5 -177q-21 -94 0 -175t71.5 -151.5t124.5 -130.5t159 -111q116 55 208.5 129.5t160 162t110.5 184t60 194.5q13 75 -4 151.5
t-61.5 138t-115.5 99t-166 33.5zM784 1297q-141 -72 -247 -153t-180 -170.5t-117.5 -187.5t-60.5 -206q-7 -44 -8.5 -89.5t4.5 -89.5t19 -86t36 -78.5t55.5 -66.5t77 -51t101.5 -31.5t127 -8.5q133 5 247.5 52.5t202 122t143 169t71.5 191.5q17 113 -10.5 211.5t-90.5 183.5
t-158 156.5t-212 131.5z" />
    <glyph glyph-name="nine" unicode="9" horiz-adv-x="1990" 
d="M1556 2628q56 0 107 -6.5t97 -21.5t84.5 -41t69 -64.5t51.5 -90.5t30.5 -121t6 -155.5t-20.5 -193.5q-27 -162 -81 -331t-133 -335.5t-182 -325t-226.5 -301t-267 -263.5t-304 -211.5t-337 -145.5t-366.5 -65q-73 -5 -114 5t-63 30t-30.5 49t-15.5 62q-5 28 9.5 54.5
t38.5 52t52 50t48 48.5q14 -42 46 -79.5t75.5 -64.5t94 -43t101.5 -18q96 -2 191.5 26.5t187.5 83t180 132t169 173t153 206.5t133.5 232t110.5 250.5t83 262.5q-96 -86 -196.5 -161t-206 -132.5t-214 -94t-221.5 -45.5q-88 -6 -167.5 28t-135.5 100.5t-81.5 161.5t-5.5 211
q17 96 52 194t87 193t119.5 184t149 167.5t176 143.5t201 111.5t223.5 72.5t242 26zM1339 2492q-70 0 -134.5 -18t-123 -50.5t-110 -78t-96.5 -100t-83 -117.5t-68 -130.5t-53 -138.5t-37 -141q-8 -38 -11.5 -78.5t-1.5 -81.5t10 -81t22.5 -76.5t36.5 -67t52.5 -53.5
t70 -36.5t87.5 -14.5q81 -2 154 15.5t138.5 50.5t123 79t107 101.5t90.5 118t73.5 127.5t56.5 131t38 128q32 132 14 228.5t-69 159.5t-127 93.5t-160 30.5z" />
    <glyph glyph-name="exclam" unicode="!" horiz-adv-x="1280" 
d="M1100 2639q21 5 40.5 -6.5t33.5 -30.5t19.5 -43t-1.5 -44q-81 -243 -176.5 -482l-197.5 -477l-205.5 -476l-200.5 -477l-78 11l120.5 404l123 403.5l117.5 403.5t106 405q5 23 9 49.5t1.5 50.5t-13.5 43t-35 28q-13 4 -26.5 -0.5t-27.5 -12.5t-28.5 -17.5t-28.5 -15.5
l-15 46l110 75.5t114.5 69.5t118 56.5t120.5 36.5zM242 353q28 3 55.5 -11.5t47.5 -38t28.5 -53t0.5 -57.5q-13 -39 -34 -81.5t-52.5 -77t-74.5 -56.5t-98 -22q-27 0 -52.5 14.5t-43 37t-25 51t1.5 55.5q11 39 35 79.5t56.5 74.5t72 57.5t82.5 27.5z" />
    <glyph glyph-name="quotedbl" unicode="&#x22;" horiz-adv-x="1345" 
d="M446 2947q39 0 70 -14.5t50 -40.5t24.5 -61.5t-7.5 -77.5l-313 -1001h-57l40 1001q1 31 15.5 65t40 62.5t60.5 47.5t77 19zM1106 2947q39 0 70 -14.5t50 -40.5t24.5 -61.5t-7.5 -77.5l-313 -1001h-57l40 1001q1 31 15.5 65t40 62.5t60.5 47.5t77 19z" />
    <glyph glyph-name="numbersign" unicode="#" horiz-adv-x="3150" 
d="M2067 2936l-514 -979h581l523 967h228l-513 -967h626l-104 -205h-626l-309 -592h671l-88 -181h-683l-514 -979h-239l525 979h-580l-537 -979h-216l512 967h-671l102 193h671l312 609h-698l83 188h717l514 979h227zM2043 1764h-592l-309 -592h591z" />
    <glyph glyph-name="dollar" unicode="$" horiz-adv-x="1595" 
d="M1452 2970l-152 -410q20 5 54.5 9.5t77.5 7.5t91.5 3t94.5 -4.5t87.5 -15.5t71.5 -30.5t45.5 -48t9.5 -69.5q-5 -31 -25 -56.5t-49.5 -46.5t-65.5 -38t-72 -30q-24 60 -65.5 99.5t-91 63t-101 33t-93.5 9.5l-299 -921q77 -73 152.5 -152.5t130 -167.5t77 -184t-6.5 -202
q-36 -132 -110.5 -253.5t-184 -223t-252.5 -178t-317 -119.5l-138 -522l-144 23l189 488q-55 -9 -112.5 -13.5t-114 -4t-109 5.5t-98.5 16.5t-83 29t-61 42t-33.5 56.5t-0.5 73q16 69 67 125.5t142 90.5q11 -85 47.5 -137t95 -82t136.5 -43.5t170 -21.5l340 1024l-70 54
l-72 61t-70.5 67t-64 73t-53 79t-38 84.5t-19 89.5t3.5 95q10 55 31 113t53 115.5t74 114t95 108t116 97.5t136 83.5t156 65t175 42.5l135 444zM1164 2435q-99 -4 -180.5 -43.5t-143 -99t-102 -132.5t-58.5 -146q-15 -66 -1.5 -129t45 -120t75 -107t88.5 -88zM818 1115
l-315 -944q119 21 204.5 66t145.5 105.5t98.5 133t64.5 150.5q24 70 13.5 139t-41.5 132.5t-76.5 119t-93.5 98.5z" />
    <glyph glyph-name="percent" unicode="%" horiz-adv-x="3100" 
d="M2615 1623q81 4 147.5 -19t110 -81t59 -156t-6.5 -245q-13 -91 -46 -191t-81.5 -201.5t-111 -200.5t-135 -188t-154 -164t-167.5 -127t-175 -79t-178 -20q-63 5 -108 21t-76 40t-49 55.5t-27 68t-10 76t1.5 80.5t7 81l8.5 78q6 73 28 161t59 182.5t87.5 191t114.5 186.5
t140.5 170t165 140.5t188 97.5t208.5 43zM1185 2617q80 4 146.5 -18.5t110 -80.5t59 -156.5t-6.5 -244.5q-13 -91 -46 -191t-81.5 -202t-110.5 -201t-135 -188t-154 -163.5t-167 -127t-175.5 -79.5t-178.5 -20q-63 5 -108 21t-76 40.5t-49 56t-26.5 67.5t-10 76t1 80.5
t7.5 81t8 77.5q6 74 28.5 162t59 182.5t87.5 191t114.5 186.5t140.5 169.5t165 140t187.5 98t209.5 42.5zM2456 1491q-58 -5 -110.5 -34t-99 -76.5t-87 -110t-75.5 -133t-64 -145.5t-52.5 -148t-41 -140.5t-29.5 -123.5q-7 -33 -12 -72.5t-6.5 -80.5t1 -82t10.5 -79
t21.5 -70.5t34.5 -56.5t49.5 -37t66.5 -11q55 2 106 29t97 72t87 105.5t77 129.5t66.5 144.5t56 150.5t45.5 146.5t35 132.5q8 34 12.5 74t4.5 81.5t-4.5 83t-14 79.5t-25 70.5t-37 56t-49 35.5t-63.5 10zM1028 2492q-59 -12 -112 -45.5t-99.5 -83t-87 -111.5t-76 -131
t-64.5 -142.5t-52 -144.5t-41 -137.5t-29 -121.5q-8 -34 -13 -73t-6.5 -80.5t1 -82.5t10.5 -79t21.5 -70.5t34.5 -56t50 -36.5t66 -12q55 2 107 29t99 71.5t88.5 104.5t78.5 129t68 144.5t55.5 150.5t43 147t30.5 135q6 35 11 77t6 86t-1.5 87.5t-10.5 83.5t-22 73
t-35.5 55.5t-51.5 31.5t-69 2zM2614 2708l159 -125l-586 -671l-569.5 -667.5l-559.5 -669.5l-555 -676l-160 124l574 664.5l567.5 665l564.5 671.5z" />
    <glyph glyph-name="ampersand" unicode="&#x26;" horiz-adv-x="2140" 
d="M1487 2003l42 108l42 108q6 81 -11.5 137.5t-51 93t-80 54.5t-99.5 22q-61 4 -119.5 -6.5t-112.5 -32.5t-103.5 -54t-92 -71.5t-77.5 -84.5t-61 -93t-42 -97t-20 -96q-10 -106 20.5 -203.5t97.5 -175.5t169 -131t236 -70h432q108 4 199 18t161 43t117.5 75t67.5 114
q11 36 7.5 70t-15 66.5t-28 64l-32.5 61.5l109 34q36 -13 65 -31.5t48 -42t26.5 -51t-1.5 -57.5q-23 -85 -62 -150.5t-87.5 -114.5t-105 -83t-115 -56.5t-116 -35t-109.5 -18.5t-96 -7.5t-74 -1.5q78 -55 128 -115.5t77 -124.5t33.5 -129.5t-3.5 -130.5t-34 -129.5t-57 -125
t-73.5 -117t-83.5 -106.5q-69 -81 -163.5 -150t-198 -119t-210 -77.5t-199.5 -27.5q-209 0 -374.5 58t-275.5 158.5t-159 235t-27 286.5q9 70 35 140t65.5 135.5t91 125.5t114 111t134.5 92t151.5 68t165.5 39t176 6q-119 47 -226 114t-182.5 152t-110.5 186.5t-11 218.5
q17 83 48 150t72.5 120t93 93.5t108.5 70.5t118 50.5t122.5 35t122.5 23.5t118 14q51 6 106.5 1.5t111 -17.5t109 -34t100 -49.5t83.5 -63t61 -75t31.5 -86.5t-4.5 -96q-14 -55 -37.5 -90.5t-53 -60.5t-63.5 -44.5t-70 -43.5q-11 -7 -21.5 -5.5t-22 7t-22.5 12t-22 9.5z
M1154 1274q-105 0 -190.5 -12t-155 -35t-125 -56t-100 -76t-79 -94.5t-62.5 -110.5t-51.5 -125.5t-44.5 -138.5q-28 -95 -16 -191.5t64 -176t143.5 -131.5t222.5 -59q47 -2 94.5 1t96 13t96 29t93 49t89 72.5t82.5 100t74 132t63 166.5q26 84 34 156t1.5 133t-25 111
t-45.5 89.5t-59.5 68.5t-66.5 48t-68.5 28t-64.5 9z" />
    <glyph glyph-name="quotesingle" unicode="'" horiz-adv-x="690" 
d="M446 2947q39 0 70 -14.5t50 -40.5t24.5 -61.5t-7.5 -77.5l-313 -1001h-57l40 1001q1 31 15.5 65t40 62.5t60.5 47.5t77 19z" />
    <glyph glyph-name="parenleft" unicode="(" horiz-adv-x="1100" 
d="M1864 3254l10 -80q-188 -95 -345.5 -211.5t-289 -247.5t-239 -275t-194.5 -295.5t-155.5 -308t-122.5 -313.5t-95 -311.5t-73 -301.5q-21 -95 -34 -195t-18.5 -201.5t-3.5 -202.5t11.5 -199t26 -191.5t39 -180t52 -164.5t64.5 -144q-26 -5 -53 -13.5t-54 -8.5
q-75 -3 -132 36.5t-98.5 110t-68.5 166.5t-42 206.5t-18.5 231t2.5 240t19.5 232.5t33.5 209q32 162 80 333t113 344.5t149.5 345.5t190 336.5t234 317.5t283 288t336 248.5t392.5 198.5z" />
    <glyph glyph-name="parenright" unicode=")" horiz-adv-x="1100" 
d="M-749 -602l-8 80q187 95 344.5 211.5t289 247t238.5 274.5t194 295.5t155.5 308t122.5 313.5t95 311.5t74 301.5q21 95 34 195t18 201t3 202.5t-11 199.5t-25.5 192t-39.5 180.5t-52 164.5t-65 144q27 6 53.5 14t53.5 8q75 2 132.5 -37t98.5 -109.5t68 -166.5t42 -207
t18.5 -231.5t-2.5 -240t-19.5 -232.5t-32.5 -209q-33 -162 -80.5 -333t-113 -344.5t-149.5 -345.5t-190 -336.5t-234.5 -317t-282.5 -287.5t-335.5 -248.5t-393.5 -198.5z" />
    <glyph glyph-name="asterisk" unicode="*" horiz-adv-x="1615" 
d="M990 1991l552 228q20 8 38 3t35 -16.5t32.5 -27t30.5 -28.5l-34.5 -59.5t-31 -43.5t-33.5 -29t-41 -15l-532 -114l297 -425q10 -15 8.5 -33t-9.5 -38t-20.5 -41.5l-24.5 -43.5q-26 0 -51.5 2t-47 7.5t-38.5 17t-24 30.5l-191 467l-344 -467q-13 -18 -36.5 -29
t-48.5 -17.5t-48 -8.5t-36 -2l-13.5 38.5t-11 43.5t-0.5 42t19 36l438 421l-481 114q-22 4 -39.5 20t-29.5 37t-17 45t-1 45q20 22 44 37t48 22.5t46.5 7t41.5 -9.5l452 -216l39 546q3 43 36.5 77t89.5 60l38 -25t33.5 -25t21.5 -28.5t1 -35.5z" />
    <glyph glyph-name="plus" unicode="+" horiz-adv-x="3415" 
d="M2038 2458l-201 -1138h1104l-32 -182h-1104l-202 -1148h-205l202 1148h-1103l32 182h1104l200 1138h205z" />
    <glyph glyph-name="comma" unicode="," horiz-adv-x="1015" 
d="M195 205l199 159q14 3 30 11.5t31 11.5q29 -4 47.5 -34t27.5 -71t9.5 -86.5t-7.5 -81.5q-21 -94 -76.5 -180.5t-128 -165.5t-153 -149l-151.5 -130l-34 57q71 72 113.5 123t67.5 94t39 85l31 96q11 34 9 66t-10 64t-20.5 64.5t-23.5 66.5z" />
    <glyph glyph-name="hyphen" unicode="-" horiz-adv-x="1330" 
d="M-7 853l115.5 84t117.5 74t125 55t138 26q46 3 90 -4t88 -17t88 -18t90 -6q68 2 134 18t140 50l15 -46q-46 -42 -105 -83t-123.5 -74t-130.5 -55t-127 -26q-48 -4 -93.5 3.5t-90.5 17t-90.5 18t-93.5 6.5q-65 -2 -131 -22t-131 -46z" />
    <glyph glyph-name="period" unicode="." horiz-adv-x="1015" 
d="M390 353q28 3 55.5 -11.5t47 -38t28.5 -53t0 -57.5q-12 -39 -33 -81.5t-53 -77t-74.5 -56.5t-97.5 -22q-27 0 -52.5 14.5t-43 37t-25.5 51t1 55.5q12 39 36 79.5t56.5 74.5t72 57.5t82.5 27.5z" />
    <glyph glyph-name="slash" unicode="/" horiz-adv-x="1100" 
d="M1356 3220l206 -57l-459.5 -967l-443 -959l-434 -953.5l-430.5 -953.5l-218 57l451.5 962.5l449.5 960.5l444 957.5z" />
    <glyph glyph-name="colon" unicode=":" horiz-adv-x="1015" 
d="M677 1563q28 2 55.5 -12t47 -37.5t28.5 -53t0 -57.5q-13 -39 -34 -81.5t-52.5 -77.5t-74 -57.5t-97.5 -22.5q-27 0 -52.5 15t-43 38t-25.5 51.5t1 55.5q12 39 36 79.5t56.5 74.5t71.5 57.5t83 27.5zM283 353q28 3 55.5 -11.5t47 -38t28.5 -53t0 -57.5q-13 -39 -34 -81.5
t-52.5 -77t-74 -56.5t-97.5 -22q-27 0 -52.5 14.5t-43 37t-25.5 51t1 55.5q12 39 36 79.5t56.5 74.5t72 57.5t82.5 27.5z" />
    <glyph glyph-name="semicolon" unicode=";" horiz-adv-x="1015" 
d="M718 1563q28 2 55.5 -12t47 -37.5t28.5 -53t0 -57.5q-13 -39 -34 -81.5t-52.5 -77.5t-74 -57.5t-97.5 -22.5q-27 0 -52.5 15t-43 38t-25.5 51.5t1 55.5q12 39 36 79.5t56.5 74.5t71.5 57.5t83 27.5zM91 205l199 159q14 3 29.5 11.5t30.5 11.5q29 -4 48 -34t28 -71
t9 -86.5t-8 -81.5q-21 -94 -76.5 -180.5t-128 -165.5t-152.5 -149l-151 -130l-35 57q73 72 114.5 123t66.5 94t39 85l31 96q11 34 9.5 66t-9.5 64t-20.5 64.5t-23.5 66.5z" />
    <glyph glyph-name="less" unicode="&#x3c;" horiz-adv-x="3410" 
d="M3075 2287l-37 -216l-2197 -842l1902 -831l-39 -216l-2198 956l30 170z" />
    <glyph glyph-name="equal" unicode="=" horiz-adv-x="3410" 
d="M595 1707h2401l-34 -194h-2401zM463 956h2401l-34 -194h-2401z" />
    <glyph glyph-name="greater" unicode="&#x3e;" horiz-adv-x="3410" 
d="M709 2287l2194 -979l-30 -170l-2535 -956l38 216l2195 831l-1900 842z" />
    <glyph glyph-name="question" unicode="?" horiz-adv-x="1765" 
d="M1236 2628q51 -2 102 -8t99.5 -19t92.5 -32.5t81 -48t65.5 -67.5t45.5 -90t21 -115t-8 -143q-13 -87 -51 -163.5t-95.5 -144.5t-130.5 -130.5t-155 -121.5q-53 -37 -117.5 -73l-133.5 -71l-139.5 -70t-136 -72t-122.5 -76t-99 -82t-65.5 -90.5t-22.5 -100.5q1 -33 0 -63
t5 -59t23 -58t55 -59l-132 -102q-29 4 -50 30.5t-33 63.5t-14.5 79t5.5 77q13 62 41.5 121t68.5 117.5t89.5 115t106.5 112.5q53 54 115 103l127 97l131 95.5t127.5 98t117 104.5t99.5 114.5t73.5 128.5t40.5 147q16 111 1 178.5t-50 106t-86 54.5t-108 25q-49 7 -108 -10.5
t-111.5 -54.5t-90.5 -90.5t-45 -117.5q-6 -46 -4.5 -88.5t17.5 -93.5q-19 -6 -39 -14.5l-40 -16.5t-39 -12.5t-38 -1.5q-54 8 -83 26t-42 42.5t-14.5 53.5t1.5 60q3 42 23 83t53 78t76 70.5t92.5 62t102.5 50.5t106 37.5t104 22.5t95 5zM347 353q28 3 55.5 -11.5t47 -38
t28.5 -53t0 -57.5q-12 -39 -33 -81.5t-53 -77t-74.5 -56.5t-97.5 -22q-27 0 -52.5 14.5t-43.5 37t-25.5 51t1.5 55.5q12 39 36 79.5t56.5 74.5t72 57.5t82.5 27.5z" />
    <glyph glyph-name="at" unicode="@" horiz-adv-x="4040" 
d="M2547 2924q143 2 282.5 -18t268 -62.5t242.5 -107t207 -151t161.5 -194.5t106 -238t40 -281.5t-36.5 -324.5q-26 -117 -72 -236t-106.5 -233.5t-133.5 -221t-155 -199.5t-171 -168.5t-180.5 -128t-184 -79t-180.5 -19.5q-85 6 -157 38.5t-121 86.5t-69 126.5t-1 157.5
q-71 -89 -152 -166t-167.5 -132.5t-176.5 -85.5t-180 -25q-87 4 -153 23t-114.5 49.5t-81 71t-53 88t-30 100t-11 108t2.5 111t10 109.5q11 85 43.5 177.5t83.5 186.5t118.5 185.5t147 174t169.5 153t187 122.5t199 82.5t204 33.5q74 1 139 -22.5t115 -72t82 -121.5t41 -171
l173 341h251l-621 -1388q-22 -50 -12.5 -99t38 -87t70.5 -59.5t86 -16.5q91 11 179 45t170 88t158.5 124.5t145 154t128.5 178.5t109.5 196.5t88 207.5t64.5 212q39 158 35 298t-42 260.5t-106 222t-158.5 183t-198.5 143t-226 102t-242 60t-246 17.5q-150 -2 -309.5 -28
t-320.5 -77.5t-319.5 -130.5t-305.5 -187t-279 -247t-239.5 -311t-187 -378.5t-122.5 -449.5q-29 -164 -24.5 -314t39.5 -283.5t100 -249.5t157 -212t209.5 -172t258.5 -129.5t304 -83.5t345 -34q163 -4 333.5 24.5t339 82.5t328.5 131.5t300 171.5l66 -80
q-157 -94 -330.5 -174t-352.5 -138t-359.5 -90t-353.5 -30q-236 2 -434 39.5t-359 105t-286.5 162t-218 208t-153 246t-91.5 275.5t-33.5 295t20.5 306q28 181 92.5 356t160 337.5t221.5 310t277 274t324.5 229.5t366 176.5t401 115t428.5 44.5zM2322 1969q-73 0 -147 -35
t-146.5 -95t-142 -141.5t-133 -175.5t-119.5 -196t-101.5 -202.5t-79 -196t-51.5 -176.5q-15 -65 -10 -135.5t33.5 -130t83 -99.5t139.5 -45q86 -4 167 24.5t156 82.5t144 129t131.5 163.5t116.5 186.5t100.5 197t84.5 195.5t67 182.5q9 28 10.5 62.5t-4 72.5t-18 77.5
t-31.5 76.5t-44.5 69t-57 56.5t-69 38.5t-79.5 14z" />
    <glyph glyph-name="bracketleft" unicode="[" horiz-adv-x="1100" 
d="M1533 3208l-10 -57h-319l-1202 -3719h330l-10 -57h-613l1243 3833h581z" />
    <glyph glyph-name="backslash" unicode="\" horiz-adv-x="1100" 
d="M355 3231l233 34q10 -499 25.5 -990.5t34 -980t39 -975.5l40.5 -978l-211 -34q-19 491 -35.5 983l-34.5 983.5t-40 981.5t-51 976z" />
    <glyph glyph-name="bracketright" unicode="]" horiz-adv-x="1100" 
d="M782 3208h580l-1199 -3833h-614l10 57h330l1201 3719h-318z" />
    <glyph glyph-name="asciicircum" unicode="^" horiz-adv-x="4096" 
d="M743 1820l1233 1127h342l848 -1127h-182l-877 899l-1194 -899h-170z" />
    <glyph glyph-name="underscore" unicode="_" 
d="M18 -773h2048l-36 -205h-2047z" />
    <glyph glyph-name="grave" unicode="`" 
d="M1154 2116l-422 512q-31 39 -36.5 62.5t-2.5 40.5q4 17 13.5 35.5t25 33t36 24t46.5 9.5q13 0 28 -7t28.5 -16.5t23.5 -19t12 -14.5l351 -660h-103z" />
    <glyph glyph-name="braceleft" unicode="{" 
d="M1988 2947q-113 13 -211.5 -10t-174 -71t-124 -116t-62.5 -145l-111 -625q-10 -59 -24 -117t-35 -114.5t-50 -110.5t-68.5 -103t-91 -92t-118 -78t-148.5 -61t-183 -41q152 -13 254 -66.5t159.5 -140t72 -202t-9.5 -251.5l-100 -569q-8 -40 -10.5 -80.5t1.5 -77.5t16 -71
t34.5 -63t57 -52.5t82.5 -40t111.5 -25.5t144.5 -9l-20 -115q-123 0 -219.5 12.5t-169.5 35.5t-124 55t-84.5 72.5t-51 88t-23 100.5t-1.5 110t15 117l115 649q16 94 -5 178.5t-82.5 149.5t-163 105t-246.5 44l18 103q160 8 276 49t194 105.5t122.5 147.5t61.5 176l120 683
q21 120 76 227t157.5 185.5t259 121.5t381.5 34z" />
    <glyph glyph-name="bar" unicode="|" 
d="M1284 3151h216l-724 -4106h-216z" />
    <glyph glyph-name="braceright" unicode="}" 
d="M646 2947l18 102q113 5 205 -4.5t164 -29.5t125.5 -51t91 -70.5t59.5 -86.5t32 -99.5t8.5 -110t-12.5 -116.5l-120 -683q-16 -93 -1.5 -176t70.5 -147.5t157.5 -105.5t257.5 -49l-18 -103q-145 -4 -261 -44t-200 -105t-135.5 -149.5t-67.5 -178.5l-115 -649
q-10 -60 -26 -117t-40 -110t-58.5 -100.5t-82 -88t-110 -72.5t-143.5 -55t-181.5 -35.5t-224.5 -12.5l20 115q162 0 268.5 34.5t172 92.5t98.5 134t47 158l101 569q24 136 79 251.5t143 202t209 140t277 66.5q-96 15 -169 41t-127 61t-90 78t-58.5 92t-32.5 103t-11 110.5
t5.5 114.5t16.5 117l111 625q13 77 -12 145t-83.5 116t-149 71t-207.5 10z" />
    <glyph glyph-name="asciitilde" unicode="~" horiz-adv-x="3410" 
d="M304 956l40 227q95 52 197 102.5t207 91t211 66t209 25.5q76 0 148.5 -12.5t143.5 -32.5t140.5 -45.5l138.5 -52l137 -52t136.5 -45.5t138 -32.5t139.5 -12.5q105 0 208.5 29t207 75t207 103l207.5 112l-40 -228l-202.5 -106.5t-206.5 -91t-208.5 -63t-206.5 -23.5
q-76 0 -149.5 12.5t-145.5 33.5t-143 47l-140.5 53.5l-138.5 53t-136.5 45t-134.5 30.5t-134 9q-105 -3 -209 -32.5t-207.5 -74.5t-206.5 -100.5z" />
    <glyph glyph-name="quotesinglbase" unicode="&#x201a;" horiz-adv-x="945" 
d="M195 205l199 159q14 3 30 11.5t31 11.5q29 -4 47.5 -34t27.5 -71t9.5 -86.5t-7.5 -81.5q-21 -94 -76.5 -180.5t-128 -165.5t-153 -149l-151.5 -130l-34 57q71 72 113.5 123t67.5 94t39 85l31 96q11 34 9 66t-10 64t-20.5 64.5t-23.5 66.5z" />
    <glyph glyph-name="florin" unicode="&#x192;" horiz-adv-x="1555" 
d="M1918 2593q34 0 73 -5.5t70.5 -18t51 -33.5t14.5 -53q-4 -18 -24.5 -54l-45.5 -81q-37 7 -76 19t-82.5 23t-94 19t-110.5 7q-77 -2 -142.5 -33t-121 -82.5t-102.5 -120t-86.5 -144.5t-73 -155t-62 -153l-53.5 -138.5t-48 -110.5q51 0 123 -6.5t149.5 -9t153.5 5.5t136 36
q6 3 13.5 -0.5t12.5 -10t6.5 -13t-4.5 -10.5q-57 -38 -131 -66t-156.5 -43.5t-171.5 -18.5t-176 10l-68 -244.5l-74 -265l-82 -273t-91.5 -269.5t-103 -254t-116.5 -226t-132 -186.5t-149 -135.5l-160.5 -106l-128 -80.5t-103.5 -59t-85.5 -40t-75 -24t-71.5 -12t-74.5 -2.5
t-84.5 5q-63 5 -103.5 15.5t-61.5 28.5t-26.5 43.5t0.5 60.5q4 20 20 49.5t36 60.5l40.5 60l32.5 46q15 -12 24.5 -26.5t17.5 -29l16.5 -28.5t20.5 -27t30 -24t45 -19t65.5 -12.5t92.5 -4.5q68 0 119.5 14.5t101 53.5t102.5 108t125 177q63 95 118.5 200.5t105 217
t93.5 226.5t83 228l74.5 221l68 206.5l62.5 184.5t59 154q-42 -6 -93.5 -9t-105 -7.5t-105 -12.5t-92.5 -24q-7 -3 -16.5 0t-17 7.5t-10.5 10t3 8.5l110 50.5t125 52t127.5 36.5t117.5 3q35 102 83.5 203.5t108 198.5t129 187.5t146.5 170t160 144.5t170 112t176 72.5
t179 25.5z" />
    <glyph glyph-name="quotedblbase" unicode="&#x201e;" horiz-adv-x="1500" 
d="M195 205l199 159q14 3 30 11.5t31 11.5q29 -4 47.5 -34t27.5 -71t9.5 -86.5t-7.5 -81.5q-21 -94 -76.5 -180.5t-128 -165.5t-153 -149l-151.5 -130l-34 57q71 72 113.5 123t67.5 94t39 85l31 96q11 34 9 66t-10 64t-20.5 64.5t-23.5 66.5zM759 205l199 159
q15 3 30.5 11.5t30.5 11.5q29 -4 47.5 -34t28 -71t9.5 -86.5t-8 -81.5q-21 -94 -76.5 -180.5t-128 -165.5t-153 -149l-150.5 -130l-36 57q73 72 115 123t67 94t39.5 85t30.5 96q11 34 9.5 66t-10 64t-21 64.5t-23.5 66.5z" />
    <glyph glyph-name="ellipsis" unicode="&#x2026;" horiz-adv-x="4096" 
d="M548 353q28 3 55.5 -11.5t47.5 -38t28.5 -53t0.5 -57.5q-13 -39 -34 -81.5t-52.5 -77t-74.5 -56.5t-98 -22q-27 0 -52 14.5t-43 37t-25.5 51t0.5 55.5q13 39 36.5 79.5t56 74.5t72 57.5t82.5 27.5zM1925 353q28 3 55.5 -11.5t47 -38t28.5 -53t0 -57.5q-13 -39 -34 -81.5
t-52.5 -77t-74 -56.5t-97.5 -22q-27 0 -52.5 14.5t-43 37t-25 51t0.5 55.5q12 39 36 79.5t56.5 74.5t71.5 57.5t83 27.5zM3290 353q28 3 55.5 -11.5t47 -38t28.5 -53t0 -57.5q-12 -39 -33 -81.5t-53 -77t-74.5 -56.5t-97.5 -22q-27 0 -52 14.5t-43 37t-25.5 51t0.5 55.5
q13 39 36.5 79.5t56 74.5t71.5 57.5t83 27.5z" />
    <glyph glyph-name="dagger" unicode="&#x2020;" horiz-adv-x="1710" 
d="M786 1240l251 524l-570 -69q-25 -3 -42.5 8.5t-31.5 30.5t-26 42t-25 44l51.5 43.5t53.5 38.5t54.5 26t53.5 6l512 -68l134 637q6 27 28 55.5t49 51.5t54.5 37.5t44.5 14.5q12 -8 27 -23t27 -33.5t17 -39t-3 -40.5l-276 -660l562 84q25 3 46.5 -12t38 -38t26 -48.5
t11.5 -42.5q-25 -14 -50 -34.5t-50 -38.5t-50 -29t-51 -8l-522 76l-81 -523l-617 -1695h-91z" />
    <glyph glyph-name="daggerdbl" unicode="&#x2021;" horiz-adv-x="1710" 
d="M643 819l159 319l-533 -57q-24 -3 -44.5 8.5t-37.5 29t-29 38.5t-17 38q6 13 29 35t52 43t59.5 35.5t51.5 11.5l510 -80l52 296l119 228l-547 -69q-25 -3 -42.5 8.5t-31.5 30t-26 42t-25 44.5l51.5 43.5t53.5 38.5t54.5 26t53.5 6l512 -68l134 637q6 27 28 55.5t49 51.5
t54.5 37.5t44.5 14.5q12 -8 27 -23t27 -33.5t17 -39t-3 -40.5l-276 -660l562 84q25 3 46.5 -12t38 -38t26 -48.5t11.5 -42.5q-25 -14 -50 -34.5t-50 -38t-50 -29t-51 -8.5l-522 76l-10 -250l-162 -273l556 56q24 3 45 -6.5t38 -26t29 -38t16 -42.5q-21 -26 -48.5 -48
t-57 -38t-60 -23.5t-58.5 -4.5l-491 57l-24 -330l-471 -1251h-91z" />
    <glyph glyph-name="circumflex" unicode="&#x2c6;" 
d="M427 2116l682 706h216l183 -706h-91l-255 489l-633 -489h-102z" />
    <glyph glyph-name="perthousand" unicode="&#x2030;" horiz-adv-x="4495" 
d="M2614 2708l160 -125l-586 -671l-569.5 -667.5l-559.5 -669.5l-556 -676l-160 124l574 664.5l568 665l564.5 671.5zM1029 2492q-59 -12 -112 -45.5t-99.5 -83t-87.5 -111.5t-76 -131t-64 -142.5t-52.5 -144.5t-41 -137.5t-29.5 -121.5q-7 -34 -12 -73t-6.5 -80.5t1 -82.5
t10 -79t21.5 -70.5t35 -56t49.5 -36.5t65.5 -12q56 2 107.5 29t98.5 71.5t89 104.5t78.5 129t67.5 144.5t56 150.5t43.5 147t29.5 135q7 35 11.5 77t6 86t-1 87.5t-10.5 83.5t-22 73t-35.5 55.5t-51.5 31.5t-69 2zM2456 1491q-58 -5 -110.5 -34t-99 -76.5t-87 -110
t-75.5 -133t-64 -145.5t-52 -148t-40.5 -140.5t-29.5 -123.5q-8 -33 -13 -72.5t-6.5 -80.5t1.5 -82t10.5 -79t21.5 -70.5t34.5 -56.5t49.5 -37t66 -11q56 2 107 29t96.5 72t86.5 105.5t77 129.5t66.5 144.5t56 150.5t45.5 146.5t35 132.5q8 34 12.5 74t4.5 81.5t-4.5 83
t-14 79.5t-25 70.5t-37 56t-49 35.5t-63.5 10zM3854 1491q-58 -5 -110.5 -34t-99 -76.5t-87 -110t-75.5 -133t-64 -145.5t-52 -148t-40.5 -140.5t-29.5 -123.5q-8 -33 -13 -72.5t-6.5 -80.5t1 -82t10.5 -79t21.5 -70.5t34.5 -56.5t50 -37t66 -11q56 2 107 29t96.5 72
t86.5 105.5t77 129.5t66.5 144.5t56 150.5t45.5 146.5t35 132.5q8 34 12.5 74t4.5 81.5t-4.5 83t-14 79.5t-25 70.5t-37 56t-49 35.5t-63.5 10zM1185 2617q81 4 147.5 -18.5t110 -80.5t59 -156.5t-6.5 -244.5q-13 -91 -46 -191t-81.5 -202t-111 -201t-135 -188t-154 -163.5
t-167.5 -127t-175.5 -79.5t-177.5 -20q-63 5 -108.5 21t-76 40.5t-48.5 56t-27 67.5t-10.5 76t1.5 80.5t7.5 81t7.5 77.5q7 74 29 162t58.5 182.5t87.5 191t115 186.5t140.5 169.5t165 140t188 98t208.5 42.5zM2616 1623q80 4 146.5 -19t110 -81t59 -156t-5.5 -245
q-14 -91 -46.5 -191t-81 -201.5t-111 -200.5t-135.5 -188t-154 -164t-167 -127t-175.5 -79t-177.5 -20q-63 5 -108.5 21t-76 40t-48.5 55.5t-27 68t-10.5 76t1 80.5t7.5 81t8 78q7 73 29 161t58.5 182.5t87.5 191t115 186.5t140.5 170t164.5 140.5t187.5 97.5t209.5 43z
M4014 1623q80 4 146.5 -19t110 -81t59 -156t-5.5 -245q-14 -91 -46.5 -191t-81 -201.5t-111 -200.5t-135.5 -188t-154 -164t-167 -127t-175.5 -79t-177.5 -20q-64 5 -109 21t-75.5 40t-49 55.5t-27 68t-10 76t1 80.5t7.5 81t8 78q7 73 29 161t58.5 182.5t87.5 191t115 186.5
t140.5 170t164.5 140.5t187.5 97.5t209.5 43z" />
    <glyph glyph-name="Scaron" unicode="&#x160;" horiz-adv-x="1860" 
d="M1039 3595h91l255 -489l632 489h114l-693 -705h-216zM1496 2639q31 0 67 -3t73 -8.5t73.5 -14t69 -20.5t59.5 -28t46 -37t27 -47t2 -57q-3 -18 -15.5 -38t-31 -42t-42 -44.5t-48.5 -44t-50.5 -40.5l-47.5 -34.5l-39 -26.5t-26 -15q8 94 -17.5 161.5t-72 111t-108 63
t-127.5 17.5q-108 -4 -200.5 -43.5t-164 -99t-117.5 -133t-59 -145.5q-9 -51 -6 -103t16 -101.5t34 -93.5t49 -78q41 -50 89 -97l98 -94l99 -95.5t92 -100t77.5 -107.5t55.5 -119t25.5 -134t-11.5 -152q-16 -79 -51 -157.5t-85.5 -153t-115.5 -143.5t-141.5 -128.5
t-163.5 -108.5t-181.5 -82.5t-195.5 -51.5t-205 -15q-36 0 -77 4t-83.5 11t-83.5 17.5t-78.5 25t-68.5 33.5t-52.5 42.5t-31 52.5t-3.5 63q9 50 40 94.5t73 84.5t90.5 75l90.5 64q-6 -85 24.5 -162.5t86 -135.5t129.5 -91.5t153 -31.5q128 5 235 53.5t188 124.5t133.5 169.5
t71.5 187.5q15 69 9.5 128.5t-26 112.5t-53.5 100.5t-73.5 92t-87 86.5l-93 83.5l-92 83.5t-84.5 87q-36 41 -63 91.5t-44 106.5t-23 115.5t1 118.5q9 73 36.5 146t72 143t104 135.5t131.5 123t155 104t174 79.5t189 50.5t200 14.5z" />
    <glyph glyph-name="guilsinglleft" unicode="&#x2039;" horiz-adv-x="1100" 
d="M1115 1684q-24 -36 -57 -78.5t-73 -88l-86 -94l-95.5 -98l-100.5 -98l-101.5 -94.5l-99.5 -87.5l-94 -78.5q38 -77 72 -156.5t60.5 -165t43.5 -177.5t20 -195l-86 -34q-42 98 -89.5 194.5t-102 186.5t-117.5 169.5t-137 143.5l23 68q133 73 256 158.5t243 178.5
l239 189.5l242 190.5z" />
    <glyph glyph-name="OE" unicode="&#x152;" horiz-adv-x="3730" 
d="M1817 2605q47 0 92 -2t91 -6.5t93.5 -10t100.5 -11l112 -11.5t127 -11.5t146.5 -9.5t170.5 -6q110 -2 220.5 5t221 16.5t221 17.5t221.5 7q13 0 29 -2.5t29.5 -8t21 -14t3.5 -21.5q-17 -47 -38 -98l-43.5 -103.5l-46.5 -105.5l-47 -103h-68q6 22 17 44t20 43.5t14.5 42.5
t1.5 41q-8 36 -40 60.5t-70 30.5q-94 16 -190.5 24.5t-194 13t-195.5 8.5t-195 11l-93.5 -262.5l-94.5 -259.5l-91.5 -257t-84.5 -256q97 0 193 -1.5t191 -1.5t190 3t190 11l116 205l95 23q-90 -171 -149.5 -338.5t-103.5 -321.5l-89 -57l54 307q-88 13 -179 19.5
t-183.5 10.5t-185.5 7t-184 9q-47 -145 -90.5 -293.5l-83.5 -297l-76.5 -294.5l-69.5 -287q129 8 259 11.5t260 11t260.5 22.5t260.5 46q44 10 73.5 20t58.5 34t63.5 69.5t87.5 126.5l83 23l-101.5 -215t-110.5 -218q-11 -18 -28.5 -35.5t-39 -30.5t-43.5 -19.5t-42 -3.5
q-41 6 -95 12t-117.5 11t-134 10t-145 8l-152.5 6t-154.5 5t-151 3t-144.5 0q-119 0 -240.5 -9.5t-243 -22t-243 -23t-240.5 -12.5q-148 -2 -264.5 21t-206 65t-153.5 102.5t-106.5 133t-64.5 155.5t-27.5 170t3 177t28.5 177q28 121 73 257t109 275.5t147 277.5t187.5 263
t230 232.5t275 186.5t322.5 123.5t371 44.5zM1763 2492q-134 -6 -255.5 -39.5t-231 -91t-206.5 -138.5t-180.5 -181t-153.5 -217.5t-126.5 -249.5t-98.5 -276t-69 -298q-14 -76 -24 -157t-12 -161t7.5 -157t35.5 -146.5t72 -129t116.5 -103.5t169 -70.5t229.5 -31.5
q47 -1 94.5 1t95 10.5t94.5 23.5t91 40t85.5 61t78 85t68.5 113t57 144l519 1650q21 68 -9 127.5t-95 103.5t-157 68t-195 20z" />
    <glyph glyph-name="quoteleft" unicode="&#x2018;" horiz-adv-x="945" 
d="M692 1923l-199 -160q-15 -3 -30.5 -11t-30.5 -11q-29 4 -47.5 33.5t-27.5 71t-9 87t8 81.5q21 93 76.5 180.5t128 166.5t153 149l150.5 129l36 -56q-73 -73 -115 -124t-67 -94t-39.5 -85t-30.5 -96q-11 -34 -9.5 -66.5t10 -64.5t20.5 -64t23 -66z" />
    <glyph glyph-name="quoteright" unicode="&#x2019;" horiz-adv-x="945" 
d="M521 2458l198 159q15 3 30.5 11.5t30.5 10.5q29 -4 48 -33.5t28 -70.5t9 -86.5t-8 -81.5q-21 -94 -76.5 -181t-128 -166t-153 -149l-150.5 -130l-36 57q73 72 115 123t67 94t39.5 85l31.5 96q10 34 8.5 66.5t-9.5 64.5t-20.5 64.5t-23.5 66.5z" />
    <glyph glyph-name="quotedblleft" unicode="&#x201c;" horiz-adv-x="1500" 
d="M692 1923l-198 -160q-15 -3 -30.5 -11t-30.5 -11q-30 4 -48.5 33.5t-27.5 71t-9 87t8 81.5q20 93 75.5 180.5t128 166.5t153 149l151.5 129l35 -56q-72 -73 -114 -124t-67 -94t-39.5 -85l-31.5 -96q-10 -34 -8.5 -66.5t9.5 -64.5t20.5 -64t23.5 -66zM1238 1923l-198 -160
q-15 -3 -30.5 -11t-30.5 -11q-30 4 -48.5 33.5t-27.5 71t-9 87t8 81.5q20 93 75.5 180.5t128 166.5t153 149l151.5 129l35 -56q-72 -73 -114 -124t-67 -94t-39.5 -85l-31.5 -96q-10 -34 -8.5 -66.5t9.5 -64.5t20.5 -64t23.5 -66z" />
    <glyph glyph-name="quotedblright" unicode="&#x201d;" horiz-adv-x="1500" 
d="M1067 2458l199 159q15 3 30.5 11.5t30.5 10.5q29 -4 47.5 -33.5t27.5 -70.5t9 -86.5t-8 -81.5q-21 -94 -76.5 -181t-128 -166t-153 -149l-150.5 -130l-36 57q73 72 115 123t67 94t39.5 85l31.5 96q10 34 8.5 66.5t-9.5 64.5t-20.5 64.5t-23.5 66.5zM521 2458l199 159
q15 3 30.5 11.5t30.5 10.5q29 -4 47.5 -33.5t27.5 -70.5t9 -86.5t-8 -81.5q-21 -94 -76.5 -181t-128 -166t-153 -149l-150.5 -130l-36 57q73 72 115 123t67 94t39.5 85l31.5 96q10 34 8.5 66.5t-9.5 64.5t-20.5 64.5t-23.5 66.5z" />
    <glyph glyph-name="bullet" unicode="&#x2022;" horiz-adv-x="2415" 
d="M1113 933q-122 0 -221.5 46.5t-166 127t-94 188t-6.5 230.5q22 122 87.5 229.5t160 188t210.5 127t238 46.5t221.5 -46.5t166 -127t94.5 -188t6 -229.5q-22 -123 -87.5 -230.5t-160 -188t-210.5 -127t-238 -46.5z" />
    <glyph glyph-name="endash" unicode="&#x2013;" 
d="M-62 1058h2047l-57 -193h-2058z" />
    <glyph glyph-name="emdash" unicode="&#x2014;" horiz-adv-x="4096" 
d="M-62 1058h4118l-57 -193h-4129z" />
    <glyph glyph-name="tilde" unicode="&#x2dc;" 
d="M1720 2651q-39 -77 -80 -143.5t-89 -115.5t-106 -77t-130 -28q-47 0 -111.5 16t-135.5 36.5t-143.5 39t-136.5 22.5q-30 2 -63 -8.5t-63 -31t-55 -51t-40 -69.5h-80q39 99 84.5 166t95.5 109t103.5 60t108.5 18q52 0 118 -18l137 -39t141.5 -38.5t130.5 -17.5
q64 0 122.5 38t100.5 132h91z" />
    <glyph glyph-name="trademark" unicode="&#x2122;" horiz-adv-x="3365" 
d="M1065 2867q101 0 204.5 7.5t203.5 10.5q13 1 25 -11.5t6 -25.5l-77 -175h-28q8 17 19 34t12 35q1 15 -4.5 31t-18.5 20q-68 18 -141 21t-144 11q-87 -238 -160.5 -471t-130.5 -478q35 -7 68 -15.5t74 -12.5l-19 -28q-49 3 -98 6.5t-98 3.5q-60 0 -120.5 -3.5t-121.5 -6.5
l10 28q42 4 77.5 11t73.5 12q91 238 164 478.5l139 475.5q-65 -7 -129.5 -8.5t-129.5 -19.5q-28 -7 -57.5 -22.5t-42.5 -46.5q-5 -13 -14 -25t-18 -26l-33 -4l87 179q7 17 24 26.5t41 6.5q27 -4 69.5 -7.5t91.5 -6t100 -3.5t96 -1zM1731 2869l23 33q26 -6 59 -8t69.5 -3
t74 -1.5t71.5 -1.5q-2 -214 3 -428t19 -428l156.5 210l157 207.5l155.5 213t150 225.5q39 1 76.5 1t75.5 1l78 2t85 5l-14 -28l-159 -23q-74 -245 -135.5 -489t-95.5 -479l145 -23l-14 -29q-53 3 -106.5 6.5t-106.5 3.5q-56 0 -113 -3.5t-113 -6.5l15 34l148 18l113.5 446.5
l113.5 446.5l-71 -89.5l-85 -108l-93 -120l-94.5 -125.5l-90.5 -123l-80.5 -113.5l-64.5 -97.5t-43 -74l-108 -56l-22 912q-102 -221 -193 -443t-156 -450l140 -28l-19 -29q-52 3 -103.5 7t-104.5 3q-50 -1 -101.5 -6t-101.5 -8l10 33l154 28q66 115 123.5 235l111 241.5
l105 243.5l106.5 243z" />
    <glyph glyph-name="scaron" unicode="&#x161;" horiz-adv-x="1140" 
d="M919 1832q35 -3 77 -8t76 -18.5t51 -37t2 -61.5q-21 -52 -46.5 -80.5t-53 -44.5t-56.5 -24.5t-56 -21.5q-24 34 -47 62t-48 48.5t-53 33t-63 15.5q-46 5 -95 -19t-89.5 -63t-68.5 -87t-32 -92q-6 -58 5.5 -112.5t34 -107.5t52.5 -104.5l60 -103.5l57.5 -104t45.5 -106
t23 -110.5t-10 -116.5q-14 -60 -41.5 -117.5t-65 -111t-84.5 -102t-100.5 -89.5t-113 -73.5t-122.5 -54.5t-128 -33.5t-131 -9.5q-38 1 -81.5 5.5t-81.5 16t-66 33.5t-35 58q-6 30 15 59.5t53.5 55t70.5 46t65 32.5q9 -25 33.5 -57t59.5 -59.5t76 -46.5t83 -19
q60 0 119 27.5t106 70t77.5 95t33.5 103.5q3 59 -8.5 114t-33.5 108t-50 103.5l-57 101l-55.5 101t-44.5 103.5t-24.5 108t3.5 115q10 57 35 113.5t62.5 109.5t84.5 101t101 89t113.5 74t121 55t123.5 32t121 6zM422 2822h80l255 -490l632 490h103l-682 -706h-228z" />
    <glyph glyph-name="guilsinglright" unicode="&#x203a;" horiz-adv-x="1100" 
d="M-158 273q24 37 57 79t72.5 87.5l85.5 94l95.5 98l100.5 98l102 94.5l100 88l93 78q-37 77 -71.5 156.5t-60.5 165t-43 177.5t-21 195l86 34q43 -98 90 -194.5t101.5 -186.5t118 -169.5t137.5 -143.5l-24 -68q-132 -72 -255.5 -158t-243.5 -179l-238.5 -189.5
l-241.5 -190.5z" />
    <glyph glyph-name="oe" unicode="&#x153;" horiz-adv-x="2265" 
d="M1202 1855q60 0 114 -20t93.5 -61.5t60 -106t13.5 -154.5q70 60 151 116t167.5 101.5t176.5 78.5t179 46q39 5 76.5 -4t64.5 -35t39 -69.5t-1 -108.5q-15 -72 -53.5 -138.5t-93.5 -126t-123.5 -112.5t-143.5 -97.5t-153.5 -81.5t-153.5 -64.5t-143 -46t-123 -26.5
q-15 -52 -32 -103l-33 -102t-30 -102t-23 -103q-13 -73 -9.5 -135.5t22.5 -109.5t54.5 -75.5t85.5 -32.5q67 -6 134.5 23.5t132 76t126 100l115.5 96.5l49 -45q-106 -94 -220 -181t-225.5 -152.5t-217 -104.5t-195.5 -39q-54 0 -96 21.5t-67.5 64.5t-33 109t8.5 156
l-156.5 -122.5t-167 -113.5t-174.5 -83t-179 -32q-59 0 -103.5 12.5t-76.5 34.5t-52 53.5t-31.5 68t-15.5 76.5t-3 81.5t6 82.5t11 79q29 182 91.5 357t158.5 332t224.5 291t289.5 234l111.5 68.5t120 63t125.5 47t128 18.5zM940 1661q-75 -2 -140.5 -32.5t-122 -82.5
t-105 -121.5t-88.5 -149t-72.5 -165.5t-57.5 -170.5t-43.5 -165t-30.5 -148.5q-6 -32 -10.5 -68.5t-5.5 -74t1.5 -74.5t11 -70t23.5 -62t39 -50t57.5 -33t77.5 -12q77 0 143.5 27.5t124 75.5t106 113t89 139.5t73 155.5t58.5 161t45 155.5t33 139.5q25 120 23.5 215.5
t-28 162t-77.5 101.5t-124 33zM1401 1047q94 4 184.5 33t169 85.5t140.5 142.5t100 205q10 30 4.5 56.5t-20.5 46.5t-37 32t-46 13q-45 2 -87 -14.5t-82 -47.5t-76.5 -73t-69 -91t-60.5 -101t-51 -103t-40.5 -98.5t-28.5 -85.5z" />
    <glyph glyph-name="Ydieresis" unicode="&#x178;" horiz-adv-x="2255" 
d="M267 2605q62 -2 123 -7.5l122 -10.5t123 -9t124 -3q59 1 118.5 5.5t119.5 11.5l119.5 14t118.5 11l-47 -80l-283 -56q13 -145 40 -294t60 -299.5l68 -301.5t64 -300l261 300l248.5 293l240 295l235.5 307q-60 14 -118.5 34t-118.5 34l32 56q106 -5 213 -13.5t215 -8.5
q91 0 183.5 8.5t184.5 13.5l-31 -56q-74 -14 -149.5 -34t-148.5 -34l-304 -304l-305.5 -312.5l-298.5 -323t-284 -335.5q-81 -265 -155.5 -542l-150.5 -550l176.5 -28.5l176.5 -28.5l-36 -79q-127 9 -252.5 21t-253.5 12q-145 0 -292.5 -12t-293.5 -21l36 79
q100 14 193.5 28.5l192.5 28.5q88 256 167.5 514.5t153.5 531.5q-62 325 -141.5 656.5t-183.5 664.5l-148.5 28l-148.5 28zM1297 3027q-35 0 -64 13.5t-48 36.5t-27 54t-2 66q6 36 25.5 66.5t46.5 54t60.5 37t68.5 13.5t64 -13.5t48 -37t26.5 -54t1.5 -66.5q-6 -35 -25 -66
t-46 -54t-60.5 -36.5t-68.5 -13.5zM1979 3027q-35 0 -64 13.5t-48 36.5t-27 54t-2 66q6 36 25.5 66.5t46.5 54t60.5 37t68.5 13.5t64 -13.5t48 -37t26.5 -54t1.5 -66.5q-6 -35 -25 -66t-46 -54t-60.5 -36.5t-68.5 -13.5z" />
    <glyph glyph-name="exclamdown" unicode="&#xa1;" horiz-adv-x="1280" 
d="M118 -33q-21 -4 -40.5 7t-33 30t-19 42.5t1.5 44.5q82 242 177 481.5l197 477.5l205.5 476l200.5 477l78 -12l-120.5 -403l-123 -403.5l-117.5 -403.5t-106 -405q-5 -23 -8.5 -49.5t-1.5 -50.5t13 -43t35 -28q13 -4 26.5 0.5t27.5 12.5t28.5 17.5t28.5 15.5l15 -46
l-110 -75.5t-114.5 -69.5t-118 -56t-121.5 -37zM977 2253q-28 -3 -55.5 11.5t-47.5 38t-28.5 53t-0.5 57.5q13 39 34 81.5t52.5 77.5t74.5 57t98 22q27 0 52.5 -14.5t43 -37.5t25 -51.5t-0.5 -55.5q-12 -39 -36 -79.5t-56.5 -74.5t-72 -57t-82.5 -28z" />
    <glyph glyph-name="cent" unicode="&#xa2;" horiz-adv-x="1478" 
d="M1385 2571l-167 -432l53 25t52 20.5t59 12t74 -0.5q29 -3 59.5 -15.5t54.5 -31.5t36 -45t5 -56q-9 -38 -38.5 -69t-66.5 -57.5t-75.5 -51t-64.5 -50.5q-36 35 -62 57t-49 37t-46.5 24.5t-56.5 18.5l-505 -1445q74 9 141.5 35.5t132.5 68t129 96.5t131 119l47 -57
q-79 -60 -154 -123.5t-152.5 -122.5t-161 -108t-178.5 -79l-134 -442l-122 23l148 385l-29.5 -9.5t-33.5 -10t-33.5 -7t-29.5 -0.5q-78 13 -127.5 52.5t-74 94t-27.5 118.5t10 126q43 197 118 397t190.5 385.5t277.5 347.5t379 281l177 489h114zM1059 1946q-63 -20 -117 -60
t-100.5 -96t-85 -124.5t-71.5 -145t-60 -157.5t-49.5 -161.5t-41.5 -157.5l-36 -145q-11 -47 -13 -98.5t6 -99.5t28 -88.5t54 -66.5z" />
    <glyph glyph-name="sterling" unicode="&#xa3;" horiz-adv-x="1983" 
d="M1669 2628q73 -1 150 -21t137.5 -63.5t94 -112t20.5 -167.5q-7 -52 -31 -99t-58.5 -82t-76 -54t-83.5 -15q-20 2 -38 9.5t-37 13.5q14 34 33.5 69.5l37.5 71t31 69t14 63.5q3 90 -16 136.5t-52.5 67.5t-76 25.5l-86.5 9.5q-76 8 -142.5 -21t-126 -85t-111.5 -135
t-97.5 -169.5t-84.5 -188t-72 -192.5l-60.5 -181l-50.5 -155q158 -8 305.5 -4t297.5 4l-46 -136q-74 1 -149.5 4.5t-150.5 6.5t-148 3.5t-142 -3.5q-39 -123 -87 -252.5t-110.5 -253.5t-141.5 -236.5t-180 -201.5l127 11q100 9 193.5 -7t185.5 -41l184 -51t187 -37
q37 -4 86 5t104.5 44.5t114.5 102t117 177.5l74 -20l-56 -107.5l-55 -105t-58 -98.5t-62.5 -88t-69 -74.5t-79 -55.5t-91.5 -33t-106 -8q-148 9 -268.5 35.5t-223 55.5t-192 50t-175.5 17q-50 -2 -99 -19.5t-98 -42l-97 -50.5t-97 -46l-32 78q148 111 255 243.5t189 288.5
t145 335.5t120 384.5q-46 6 -94.5 6t-97.5 -3.5t-98.5 -8t-97.5 -5.5l21 125q49 0 94.5 -2t92 -3t95.5 0t105 5q15 85 40.5 183t63 200.5t88 204.5t115.5 195.5t145.5 173.5t177.5 138.5t212 91t249 30.5z" />
    <glyph glyph-name="currency" unicode="&#xa4;" horiz-adv-x="2483" 
d="M1137 1137q134 0 261 51t230.5 139.5t175.5 206.5t96 252q23 134 -7 252t-103 206t-182 139.5t-243 51.5t-261 -51.5t-230.5 -139.5t-175.5 -206t-96 -252t6.5 -252t103 -206.5t182 -139.5t243.5 -51zM1105 952q-148 0 -273 49t-217 135q-69 -46 -131.5 -97.5
l-123 -105.5l-120 -109l-121.5 -107l-102 136l248 205.5l243 207.5q-66 107 -91.5 240t0.5 280q25 146 96 277.5t173 237.5q-78 109 -166.5 211l-173.5 207l147 125l169.5 -209.5t172.5 -204.5q123 89 268 140t295 51q146 0 269.5 -47.5t214.5 -130.5q67 48 129 99.5
l122 103.5l119 105l120 105l102 -137l-245 -199t-238 -207q69 -107 95.5 -242t0.5 -285q-27 -150 -102 -286t-183 -244q38 -57 80.5 -108.5l86.5 -100l88.5 -96t87.5 -98.5l-149 -136l-170 209.5t-176 203.5q-120 -83 -260 -130.5t-285 -47.5z" />
    <glyph glyph-name="yen" unicode="&#xa5;" horiz-adv-x="2140" 
d="M276 2605q63 -2 124 -7.5l122 -10.5t123 -9t124 -3q59 1 118.5 5.5t119.5 11.5l119.5 14t118.5 11l-47 -80l-283 -56q12 -145 39 -294t60.5 -299.5l68.5 -301.5t64 -300l260.5 300l248.5 293l240 295l236 307q-60 14 -118.5 34t-118.5 34l31 56q107 -5 214 -13.5
t215 -8.5q91 0 183 8.5t185 13.5l-31 -56q-74 -14 -149.5 -34t-148.5 -34l-394 -394.5l-393 -410.5l507 -4l-31 -113l-583 -2l-152 -174l-146 -177h773l-33 -125h-778l-135 -481l-134 -486l177.5 -28.5l176.5 -28.5l-36 -79q-127 9 -252.5 21t-253.5 12q-145 0 -292.5 -12
t-294.5 -21l37 79l193 28.5l193 28.5l156 478t144 492l-767 -3l33 125l746 2q-16 84 -34.5 170l-36.5 169h-569l45 125h496q-46 201 -100 403.5t-117 405.5l-148.5 28l-148.5 28z" />
    <glyph glyph-name="brokenbar" unicode="&#xa6;" 
d="M1239 2890h216l-269 -1525h-216zM874 820h216l-269 -1524h-216z" />
    <glyph glyph-name="section" unicode="&#xa7;" horiz-adv-x="1705" 
d="M1596 2321q-12 30 -43 69t-75.5 73t-98 56.5t-109.5 17.5q-64 -5 -131 -28.5t-126 -66t-103.5 -104t-63.5 -142.5q-10 -44 -6.5 -88t16.5 -85t34.5 -77.5t47.5 -68.5q42 -51 89 -98.5l95 -93l95 -90t88 -90.5t74 -94t54 -100t28.5 -109t-3.5 -121q-17 -95 -70.5 -187
t-136 -166.5t-190 -123.5t-233.5 -58q33 -30 74 -76t73 -107t47 -135t-5 -160q-25 -110 -83.5 -204.5t-156 -165.5t-237 -116.5t-325.5 -58.5q-30 -2 -64.5 -1t-70 5.5t-70 12.5t-65.5 20t-57.5 27.5t-45.5 35t-28.5 43t-6.5 51.5q2 22 13 43t27 41.5t34 38.5t34 36
q34 -47 76 -92.5t92 -81.5t107 -60t121 -28q68 -4 144.5 21t144 75t116.5 123.5t61 166.5q7 51 -2.5 99t-32 93t-55 87.5t-71 84t-81.5 81.5l-85 79.5l-82 79t-73 79.5q-35 42 -66 88.5t-52 96.5t-29.5 103t1.5 110q14 81 63.5 166.5t130.5 159t193 127t251 70.5
q-48 43 -89.5 97t-70.5 115.5t-40.5 129t0.5 136.5q8 45 26.5 92.5t47 94t68 92t90.5 86t113.5 75t136 60t160 40.5t184.5 17q46 1 97 -7.5t95 -26.5t75 -46.5t37 -66.5q3 -22 -9.5 -44t-32.5 -43.5t-42 -42.5t-37 -41zM771 1513q-63 5 -128 -24t-120.5 -77t-96 -109
t-54.5 -120q-8 -34 -3 -75t21.5 -85t43 -89.5t60.5 -88.5t74.5 -81t85.5 -67t92.5 -48t96.5 -23q57 -5 121 24t120 77.5t96.5 109t50.5 119.5q7 42 1 88t-23 92.5t-43.5 91.5t-60.5 86t-74 76t-83 61.5t-87.5 42.5t-89.5 19z" />
    <glyph glyph-name="dieresis" unicode="&#xa8;" 
d="M1408 2241q-36 0 -65.5 14t-49.5 38t-28 56t-2 68q6 37 25.5 69t48 56t63 38t70.5 14q37 0 66 -14t49 -38t28.5 -56t1.5 -69q-6 -36 -25.5 -68t-48 -56t-62.5 -38t-71 -14zM726 2241q-36 0 -65.5 14t-49.5 38t-28 56t-2 68q6 37 25.5 69t48 56t63 38t70.5 14
q37 0 66.5 -14t49 -38t28 -56t1.5 -69q-6 -36 -25.5 -68t-47.5 -56t-62.5 -38t-71.5 -14z" />
    <glyph glyph-name="copyright" unicode="&#xa9;" horiz-adv-x="3365" 
d="M1466 125q128 0 253.5 25t245 72.5t230.5 115t210.5 151.5t184.5 183.5t151.5 211t113.5 232.5t69 249q23 128 19 249.5t-31.5 232.5t-77.5 210.5t-119.5 184t-157 151.5t-190.5 114.5t-219.5 72.5t-244.5 25q-129 0 -254.5 -25t-245 -72.5t-231 -114.5t-210.5 -151.5
t-184 -184t-151.5 -210.5t-113.5 -232.5t-69 -249.5q-23 -128 -19 -249t31.5 -232.5t77.5 -211t119.5 -183.5t157 -151.5t190.5 -115t219.5 -72.5t245.5 -25zM1436 -45q-146 0 -279 28t-250 82t-216.5 130.5t-178.5 172.5t-136 209.5t-88.5 239.5t-36 264t21.5 284t79 284
t129 264.5t172.5 239.5t209.5 209t239.5 172.5t262.5 130.5t279 82.5t289 28.5t279 -28.5t249.5 -82.5t216.5 -130.5t179 -172.5t135.5 -209t88 -239.5t36 -264.5t-21.5 -284t-79 -284t-129 -264t-172.5 -239.5t-209.5 -209.5t-239.5 -172.5t-262.5 -130.5t-279 -82
t-288 -28zM1801 2219q62 -5 116 -16t107 -29t111 -43.5t128 -59.5q18 -8 35 2.5t33 30.5t30.5 45.5l26.5 46.5h68l-108 -615h-80q1 103 -30.5 204.5t-92 181.5t-148 128t-199.5 44t-213 -51.5t-182 -140.5t-139.5 -232t-87.5 -327q-9 -59 -17 -123.5t-10.5 -130t2.5 -130
t21 -122.5t45.5 -108.5t76 -87.5t112.5 -59t155 -24q84 -2 163.5 17.5t157.5 63t157.5 111t164.5 161.5l48 -46q-56 -98 -139.5 -178.5t-183 -136.5t-208.5 -84t-214 -22q-104 7 -189.5 31.5t-155 64t-123 92t-92 114.5t-62.5 131.5t-35.5 143t-10.5 149.5t14 150
q12 73 41 150t72 152.5t98 147.5t119.5 135.5t137.5 115.5t151.5 88.5t161 53.5t167.5 11z" />
    <glyph glyph-name="ordfeminine" unicode="&#xaa;" horiz-adv-x="1420" 
d="M1346 2598l-104 -242.5t-99 -247t-86.5 -256.5t-67.5 -270q-2 -14 -6.5 -31t-6 -33t2 -27.5t16.5 -13.5q17 -2 33.5 7.5t32 24l31.5 30t32 26.5l26 -31q-42 -34 -89 -77t-97 -82.5t-102 -68t-104 -31.5q-15 -1 -24 10t-13.5 27t-4.5 35t4 33q16 74 39 148t49 147.5
l53 146.5l52 147l-91 -101.5l-106.5 -111.5l-117.5 -114.5t-123.5 -110.5t-123.5 -99t-118 -80.5t-108 -54.5t-92 -22q-27 -1 -38 20.5t-13.5 53t1 66.5t6.5 62q8 80 33.5 171t68 184.5t100 187t128.5 178.5t155 158t179 127t200 84.5t218 30.5h275zM1087 2461h-217
q-67 0 -126.5 -19.5t-112.5 -55.5t-99.5 -87t-87 -114t-75 -136t-63.5 -153t-52.5 -165.5t-41.5 -172.5q-3 -14 -5.5 -32.5t-1 -35t7.5 -27.5t20 -10q40 3 96 36.5t120 89t133.5 128t136.5 153.5t129.5 166t112 164.5t83 149.5t43.5 121z" />
    <glyph glyph-name="guillemotleft" unicode="&#xab;" horiz-adv-x="1840" 
d="M1115 1684q-24 -36 -57 -78.5t-73 -88l-86 -94l-95.5 -98l-100.5 -98l-101.5 -94.5l-99.5 -87.5l-94 -78.5q38 -77 72 -156.5t60.5 -165t43.5 -177.5t20 -195l-86 -34q-42 98 -89.5 194.5t-102 186.5t-117.5 169.5t-137 143.5l23 68q133 73 256 158.5t243 178.5
l239 189.5l242 190.5zM1843 1684q-24 -36 -57 -78.5t-73 -88l-86 -94l-95 -98l-100.5 -98l-102 -94.5l-99.5 -87.5l-94 -78.5q38 -77 72 -156.5t60.5 -165t43.5 -177.5t20 -195l-86 -34q-42 98 -89 194.5t-102 186.5t-118 169.5t-137 143.5l24 68q132 73 255.5 158.5
t243 178.5l238.5 189.5l242 190.5z" />
    <glyph glyph-name="logicalnot" unicode="&#xac;" horiz-adv-x="3410" 
d="M601 1729h2401l-178 -1012h-194l143 808h-2208z" />
    <glyph glyph-name="uni00AD" unicode="&#xad;" horiz-adv-x="1325" 
d="M-7 853l114.5 79.5t116.5 74.5t122 57.5t132 27.5q47 3 92.5 -4t91 -17t91 -18t92.5 -6q34 1 65.5 3.5t63.5 10t67.5 20.5t77.5 34l26 -46q-59 -46 -123 -87.5t-128.5 -73.5t-126.5 -52.5t-119 -24.5q-48 -4 -95.5 1t-95.5 12l-95.5 14t-94.5 7q-68 0 -126 -15.5
t-123 -41.5z" />
    <glyph glyph-name="registered" unicode="&#xae;" horiz-adv-x="3365" 
d="M1466 125q128 0 253.5 25t245 72.5t230.5 115t210.5 151.5t184.5 183.5t151.5 211t113.5 232.5t69 249q23 128 19 249.5t-31.5 232.5t-77.5 210.5t-119.5 184t-157 151.5t-190.5 114.5t-219.5 72.5t-244.5 25q-129 0 -254.5 -25t-245 -72.5t-231 -114.5t-210.5 -151.5
t-184 -184t-151.5 -210.5t-113.5 -232.5t-69 -249.5q-23 -128 -19 -249t31.5 -232.5t77.5 -211t119.5 -183.5t157 -151.5t190.5 -115t219.5 -72.5t245.5 -25zM1436 -45q-146 0 -279 28t-250 82t-216.5 130.5t-178.5 172.5t-136 209.5t-88.5 239.5t-36 264t21.5 284t79 284
t129 264.5t172.5 239.5t209.5 209t239.5 172.5t262.5 130.5t279 82.5t289 28.5t279 -28.5t249.5 -82.5t216.5 -130.5t179 -172.5t135.5 -209t88 -239.5t36 -264.5t-21.5 -284t-79 -284t-129 -264t-172.5 -239.5t-209.5 -209.5t-239.5 -172.5t-262.5 -130.5t-279 -82
t-288 -28zM1092 2200q79 -7 158.5 -17.5t160.5 -10.5q69 1 138 6.5l138 11.5l138.5 11.5t138.5 5.5q100 0 173 -28.5t120 -74t67.5 -103.5t14.5 -117q-7 -77 -41.5 -151.5t-93 -138t-139 -112.5t-180.5 -75q23 -43 44 -101t42 -123l44 -133.5t48.5 -132t55 -119.5t64.5 -96
t76.5 -60.5t91.5 -13.5l-16 -42q-39 -2 -78 -11t-78 -11q-79 -2 -121.5 4t-69 23t-46.5 46t-55 73q-51 65 -79.5 146.5t-49 168l-40 171t-53.5 155.5q-62 -3 -123 -5t-126 -2q-39 -169 -61 -342.5t-31 -331.5q58 -16 120 -23t121 -19l-17 -42q-97 3 -194 8.5t-195 5.5
q-87 0 -175 -5.5t-175 -8.5l8 42q70 5 130.5 15.5t119.5 26.5l77 356.5t71 360.5t59 362t42 360q-70 11 -130 18.5t-118 23.5zM1426 1428q39 -5 77.5 -14t77.5 -7q114 5 207 32.5t160.5 82.5t108 139t48.5 202q4 58 -12 109t-51.5 88.5t-90.5 58.5t-128 18
q-63 -2 -125 -11.5t-125 -16.5q-37 -170 -78.5 -338.5t-68.5 -342.5z" />
    <glyph glyph-name="macron" unicode="&#xaf;" 
d="M620 2515h1024l-80 -194h-1024z" />
    <glyph glyph-name="degree" unicode="&#xb0;" horiz-adv-x="1350" 
d="M597 1934q87 0 169.5 33t149.5 90.5t114 134t62 163.5q16 87 -4 164t-67 134t-118 90t-158 33t-169.5 -33t-149.5 -90t-114 -134t-62 -164t4.5 -163.5t66.5 -134t118 -90.5t158 -33zM571 1792q-116 0 -210.5 44.5t-157.5 121t-89.5 179t-5.5 218.5q20 117 82.5 219.5
t152.5 179t200 120.5t227 44q116 0 210.5 -44t157.5 -120.5t89.5 -179t6.5 -219.5q-21 -116 -83.5 -218.5t-152.5 -179t-200 -121t-227 -44.5z" />
    <glyph glyph-name="plusminus" unicode="&#xb1;" horiz-adv-x="3410" 
d="M347 296h2412l-32 -182h-2412zM2007 2355l-123 -694h1115l-36 -204h-1104l-122 -695h-205l122 695h-1103l36 204h1103l123 694h194z" />
    <glyph glyph-name="uni00B2" unicode="&#xb2;" horiz-adv-x="1294" 
d="M910 2610q66 -1 132.5 -16t116 -52t74 -101t6.5 -164q-11 -65 -59 -140t-120 -154.5t-163 -161.5t-188 -160.5l-194.5 -150.5l-183 -133l-153.5 -107.5l-106 -72.5q82 2 164.5 3.5t164.5 2.5h366q75 0 133.5 54t103.5 150h52l-71 -149q-55 -117 -118 -170.5t-144 -47.5
q-127 11 -251 19t-252 8q-96 1 -194 -7t-196 -13l-15 41l156.5 104l180.5 125l190.5 141t188 151.5t173 157.5t145.5 158t105 153.5t52 144.5q11 72 -7 126t-55 90.5t-87.5 53.5t-105.5 15q-71 -2 -124.5 -25t-91 -57.5t-59 -75.5t-28.5 -79q-8 -42 -7.5 -77t8.5 -87
q-12 -3 -24 -8.5t-24 -4.5q-38 2 -60 14.5t-32 30.5t-11.5 40.5t-0.5 43.5q3 32 21.5 65.5t48.5 67.5t70 66t86 61t96 53t100.5 41t99 26t91.5 7z" />
    <glyph glyph-name="uni00B3" unicode="&#xb3;" horiz-adv-x="1280" 
d="M865 2608q66 0 132.5 -13t118 -45t80 -86t19.5 -136q-4 -39 -23.5 -77.5t-50 -75.5t-70 -71.5t-83.5 -65t-91 -56.5t-92.5 -46t-87 -33.5t-75.5 -17.5q38 -3 77 -8t76.5 -14.5t71.5 -23t62 -33.5t49.5 -46.5t33.5 -61.5t13 -78.5t-11 -97.5q-24 -104 -89.5 -196
t-168.5 -161t-241.5 -110.5t-308.5 -43.5q-26 -1 -56.5 2t-62 8.5t-62 14t-57.5 20.5t-49.5 26.5t-37 32t-20 37.5t1.5 43t20.5 45.5t32.5 41.5t44 34t53 22q-14 -51 3 -100t55.5 -86.5t92.5 -59.5t112 -20q112 5 201 43.5t151.5 97t98.5 129.5t43 140q3 32 5 63.5t-0.5 61
t-10 56.5t-24 51t-42.5 44t-65 36t-92 27t-122 16l23 48q44 -2 91 7t93.5 25.5t91.5 40.5t85.5 53.5t75 63.5t60 71.5t40.5 76.5t17 78q3 64 -14 110t-47.5 76t-72.5 44.5t-89 15.5q-44 1 -97.5 -19t-99.5 -53.5t-76.5 -77t-27.5 -89.5q2 -22 5.5 -41t2.5 -41
q-38 -15 -67 -10.5t-47.5 20.5t-26.5 39.5t-5 45.5q6 37 23.5 69t44.5 59.5t62 49.5t74.5 39.5t82.5 31t85 22t82.5 12.5t76.5 4z" />
    <glyph glyph-name="acute" unicode="&#xb4;" 
d="M927 2116h-103l583 660q4 5 17.5 14.5t30 19t34.5 16.5t30 7q26 0 43 -9.5t27.5 -24t13.5 -33t1 -35.5q-3 -17 -16.5 -40.5t-58.5 -62.5z" />
    <glyph glyph-name="uni00B5" unicode="&#xb5;" horiz-adv-x="2158" 
d="M915 1786l-441 -1149q-14 -35 -21.5 -73.5t-9 -78t4 -78.5t19 -74.5t34.5 -66t51 -53.5t68.5 -37.5t87.5 -16.5q44 -2 90 8.5t92 31t90.5 49.5t86 64.5t80 76t70.5 83.5t57.5 88t43.5 88l449 1127h250l-498 -1342q-14 -38 -10 -86t21.5 -89t47.5 -64.5t67 -11.5
q66 22 117 47t96.5 68.5t90.5 113t98 180.5q6 13 16.5 26t23 23t26.5 16t26 4q11 -2 19 -10.5t12.5 -20t4.5 -25t-5 -24.5l-51 -108t-57 -108t-64.5 -102.5t-73 -93.5t-82 -80t-92.5 -61.5t-104 -38t-117 -10.5q-61 2 -116 22.5t-90 67t-43.5 122t24.5 186.5
q-61 -103 -133 -181.5t-151.5 -132t-164.5 -80t-171 -26.5q-78 0 -147.5 17.5t-122 64t-83 128t-28.5 210.5l-326 -1012q-11 -35 -31 -69t-47 -62t-60 -48t-69 -26q-24 -4 -46 10t-37 36.5t-20.5 50.5t4.5 51l494.5 1239.5l476.5 1239.5h273z" />
    <glyph glyph-name="paragraph" unicode="&#xb6;" 
d="M948 1570q-191 5 -322 64t-207.5 154t-103 216t-9.5 249q9 62 30 126.5t53.5 126.5t76.5 120.5t98 110t117.5 94.5t136 74t152.5 48t168 17h1012l-24 -137h-262l-498 -2833h-160l499 2833h-375l-499 -2833h-160z" />
    <glyph glyph-name="periodcentered" unicode="&#xb7;" horiz-adv-x="1020" 
d="M478 1103q-40 0 -72.5 15.5t-54 42t-30.5 61.5t-2 75t28 75t52 61t69 41.5t78 15.5t72.5 -15.5t54 -41.5t30.5 -61t2 -75t-28.5 -75t-52 -61.5t-68.5 -42t-78 -15.5z" />
    <glyph glyph-name="periodcentered" unicode="&#x2219;" horiz-adv-x="1020" 
d="M478 1103q-40 0 -72.5 15.5t-54 42t-30.5 61.5t-2 75t28 75t52 61t69 41.5t78 15.5t72.5 -15.5t54 -41.5t30.5 -61t2 -75t-28.5 -75t-52 -61.5t-68.5 -42t-78 -15.5z" />
    <glyph glyph-name="cedilla" unicode="&#xb8;" 
d="M556 0h103l-113 -249l128 11q59 6 117.5 -13t102 -60t63.5 -102.5t2 -142.5q-21 -90 -74.5 -153t-123.5 -102.5t-147.5 -57.5t-145.5 -18q-73 0 -145.5 14t-138.5 37.5t-122.5 54.5t-96.5 65l62 103l101.5 -47.5t109.5 -48t111.5 -37.5t106.5 -15q60 0 109 17t85.5 45
t60 65t32.5 78q7 38 -3 73t-36.5 61.5t-68.5 42.5t-97 16q-43 0 -86.5 -4l-86.5 -8z" />
    <glyph glyph-name="uni00B9" unicode="&#xb9;" horiz-adv-x="950" 
d="M866 2584q-142 -363 -262 -733t-213 -738l319 -48l-7 -41q-115 4 -229.5 9t-229.5 5q-110 1 -220 -2t-220 -5l15 41l341 41q66 169 124 334l112 329l106.5 328l106.5 330q-93 -20 -178 -42t-170 -33l14 41q85 23 158 46.5t140 48t132 52l135 57.5z" />
    <glyph glyph-name="ordmasculine" unicode="&#xba;" horiz-adv-x="1210" 
d="M886 2594q85 0 132.5 -34.5t68 -88t18.5 -118t-15 -124.5q-13 -57 -32 -121t-46 -130t-63 -131t-83 -125q-72 -94 -162 -175t-183 -141t-183 -94t-162 -34q-46 0 -79.5 8.5t-57.5 24t-38.5 36.5t-23 45.5t-11.5 52t-2 56t4.5 56.5t7.5 54q17 116 61 236t111 230
t155.5 203t193.5 155l94 56t97 51t98.5 37.5t99.5 14.5zM702 2451q-55 0 -103.5 -18.5t-90.5 -52t-78 -79t-65.5 -98t-53.5 -110.5t-42 -116.5t-30.5 -115.5t-20.5 -108q-3 -24 -7.5 -51t-6.5 -54.5t-2 -55.5t5.5 -53t16.5 -47t30 -37.5t47 -25t68 -9.5q50 0 95 19t85 52.5
t75 78t65.5 96.5t56 109t46.5 114t37.5 111.5t28.5 101.5q21 81 17.5 145.5t-25 110t-60 69.5t-88.5 24z" />
    <glyph glyph-name="guillemotright" unicode="&#xbb;" horiz-adv-x="1832" 
d="M581 273q24 37 57 79t73 87.5l86 94l95 98l100.5 98l102 94.5l99.5 88l94 78q-38 77 -72 156.5t-60.5 165t-43.5 177.5t-20 195l86 34q42 -98 89 -194.5t102 -186.5t118 -169.5t137 -143.5l-24 -68q-132 -72 -255.5 -158t-243 -179l-238.5 -189.5l-243 -190.5zM-146 273
q23 37 56 79t73 87.5l85.5 94l95 98l100.5 98l102 94.5l100 88l94 78q-38 77 -72.5 156.5t-60.5 165t-43 177.5t-21 195l86 34q43 -98 90 -194.5t102 -186.5t118 -169.5t137 -143.5l-24 -68q-132 -72 -255.5 -158t-243 -179l-238.5 -189.5l-242 -190.5z" />
    <glyph glyph-name="onequarter" unicode="&#xbc;" horiz-adv-x="2880" 
d="M926 2586q-136 -341 -250.5 -689t-203.5 -694l311 -44l-7 -39q-111 4 -222.5 8.5t-223.5 4.5q-106 1 -213.5 -2t-213.5 -4l14 38l331 38q63 159 118.5 314l107.5 309.5l101.5 308.5l101.5 310q-90 -19 -172.5 -40t-165.5 -30l14 38q82 22 153 43.5t136 45t128 49
l130 54.5zM2678 1463q-53 -107 -94.5 -213.5t-77 -212t-67 -209.5l-65.5 -206h74.5h74.5t72 19.5t63 62.5l35 -6q-18 -27 -29 -60.5t-28.5 -64t-47.5 -51.5t-86 -21h-82h-82q-41 -109 -71.5 -220.5t-48.5 -215.5l-192 -75l-41 6l49.5 130l51 132l48.5 130t42 126
q-181 5 -349.5 2t-339.5 -27l-22 76l252 199l238.5 198l230 209.5t226.5 234.5l233 69zM2459 1349l-195 -195l-205 -192.5l-214.5 -185t-222.5 -173.5q74 14 148 19.5t147.5 6.5t147 1t146.5 4zM2308 2708l162 -114l-582 -672.5l-572.5 -672.5l-566.5 -677l-565 -685
l-147 136l1151.5 1334z" />
    <glyph glyph-name="onehalf" unicode="&#xbd;" horiz-adv-x="2830" 
d="M926 2586q-136 -341 -250.5 -689t-203.5 -694l311 -44l-7 -39q-111 4 -222.5 8.5t-223.5 4.5q-106 1 -213.5 -2t-213.5 -4l14 38l331 38q63 159 118.5 314l107.5 309.5l101.5 308.5l101.5 310q-90 -19 -172.5 -40t-165.5 -30l14 38q82 22 153 43.5t136 45t128 49
l130 54.5zM2308 2708l162 -114l-582 -672.5l-572.5 -672.5l-566.5 -677l-565 -685l-147 136l1151.5 1334zM2354 1472q63 -2 127 -16t112 -48.5t72 -94t8 -152.5q-11 -61 -56.5 -131t-115 -144.5t-156.5 -151t-180 -150l-186.5 -141l-176 -124l-148 -100l-102.5 -68.5
q80 2 159.5 3.5t158.5 3.5h352q73 0 129 50t99 140h50l-67 -140q-53 -109 -113.5 -158.5t-138.5 -44.5q-122 10 -242 17.5t-242 8.5q-93 1 -188 -7t-190 -13l-14 39l151 97l173.5 116.5l183 131.5t180 141.5t166 147.5t139.5 148t100.5 143.5t49.5 134.5q10 67 -7.5 117.5
t-53 84.5t-85 50.5t-102.5 14.5q-68 -3 -119.5 -24.5t-87.5 -54t-57 -70.5t-27 -74q-6 -38 -6 -71.5t8 -80.5q-11 -3 -22.5 -8t-22.5 -4q-38 2 -59 13.5t-31 28.5t-11.5 37.5t0.5 40.5q2 30 19.5 61.5t46.5 63t67.5 61.5t82.5 57t92.5 49t96.5 38t95 24.5t89 7.5z" />
    <glyph glyph-name="threequarters" unicode="&#xbe;" horiz-adv-x="3185" 
d="M2974 1463q-53 -107 -94.5 -213.5t-77 -212t-67 -209.5l-65.5 -206h74.5h74.5q38 0 72.5 19.5t62.5 62.5l35 -6q-18 -27 -29 -60.5t-28.5 -64t-47.5 -51.5t-86 -21h-81.5h-82.5q-41 -109 -71 -220.5t-49 -215.5l-192 -75l-41 6l49.5 130l50.5 132l48.5 130t42.5 126
q-181 5 -349.5 2t-339.5 -27l-22 76l252 199l238.5 198t229.5 209.5t226 234.5l234 69zM2755 1349l-195 -195l-205 -192.5l-214.5 -185t-223.5 -173.5q75 14 149 19.5t147.5 6.5t146.5 1t148 4zM2604 2708l162 -114l-582 -672.5l-572.5 -672.5l-566.5 -677l-565 -685
l-147 136l1151 1334zM894 2605q63 0 126 -12t112 -41.5t76.5 -80t19.5 -126.5q-4 -36 -22.5 -72.5t-47 -71t-66 -66.5t-79.5 -60.5t-86.5 -52.5t-88 -43t-83 -31t-71.5 -17q73 -4 146.5 -20t127.5 -53t79.5 -100t2.5 -164q-23 -97 -85 -183t-159.5 -150.5t-229.5 -103
t-293 -40.5q-26 -1 -55 1.5t-59 8t-59 13.5t-55.5 19t-47 24.5t-34.5 29.5t-19 35t1 41q13 42 50 80.5t92 52.5q-14 -48 3 -93.5t53.5 -80.5t88 -56t107.5 -18q107 4 191 40.5t144 90.5t94 120t39 131q3 30 4.5 59.5t-0.5 56.5t-10 52.5t-23.5 48t-40.5 41.5t-61.5 33.5
t-87 24.5t-117.5 15l23 44q42 -1 86.5 7t89 23.5t87 38t81 50t71 59.5t57 66.5t38.5 71t15 73.5q3 59 -13 102t-45.5 70.5t-69.5 41t-84 15.5q-42 0 -93.5 -18.5t-95 -50t-72 -72t-25.5 -83.5q1 -20 4.5 -37.5t2.5 -38.5q-36 -14 -63.5 -9.5t-45 19.5t-25.5 37t-5 42
q5 35 22 65t42.5 55t59 46t71 37.5t78 28.5t80.5 20t79 11.5t73 3.5z" />
    <glyph glyph-name="questiondown" unicode="&#xbf;" horiz-adv-x="1765" 
d="M454 -35q-51 2 -102 8.5t-99.5 19t-92.5 32t-81 48t-65 67.5t-45 90t-21 115t8 143q13 87 50.5 163t95 144.5t130.5 131t155 120.5q53 38 117.5 73.5l133.5 70.5l139.5 70.5t136 72.5t122.5 76t99 81.5t65.5 90t22.5 101.5q-1 32 0 62.5t-5 59.5t-23 58t-55 58l132 103
q29 -4 50 -30.5t33 -63.5t14.5 -79t-5.5 -77q-13 -62 -41.5 -121.5t-68.5 -117.5t-89.5 -114.5t-106.5 -113.5q-53 -53 -115 -102.5l-127 -97l-131 -95t-127.5 -98t-117 -104.5t-99.5 -114.5t-73.5 -129t-40.5 -147.5q-15 -111 -0.5 -178t49.5 -105.5t86 -55t108 -24.5
q49 -8 108 10t112 55t90.5 90.5t44.5 116.5q6 47 5 89.5t-18 93.5q19 6 39 14.5l40 16.5t39 12.5t38 1.5q54 -8 83 -26t42 -42.5t14.5 -53.5t-1.5 -60q-3 -43 -23 -83.5t-53 -78t-76 -70.5t-92.5 -61.5t-103 -51t-106.5 -37t-103.5 -21.5t-94.5 -6zM1343 2240
q-28 -3 -55.5 11t-47 38t-28.5 53.5t0 56.5q12 40 33 82.5t53 77.5t74.5 57t97.5 22q27 0 52.5 -14.5t43.5 -38t25.5 -51.5t-1.5 -55q-12 -39 -36 -79.5t-56.5 -74.5t-72 -57t-82.5 -28z" />
    <glyph glyph-name="Agrave" unicode="&#xc0;" horiz-adv-x="2550" 
d="M1785 2685q-20 -328 -22.5 -651t7.5 -643t29.5 -638.5t44.5 -638.5l306 -69l-35 -67q-244 17 -492.5 18.5t-506.5 -6.5l35 67l326 45l34 899h-967l-136 -218.5l-138.5 -216t-132 -221t-114.5 -231.5l318 -69l-46 -67l-223.5 10.5t-229 8.5t-232.5 2t-234 -9l33 55l308 69
l453 589.5l471.5 619l461 640.5t419.5 654zM594 1092l908 -11l-45 1229zM1855 2890l-422 512q-31 39 -36.5 62.5t-2.5 40.5q4 17 13.5 35.5t25 33t36 24t46.5 9.5q13 0 28 -7t28.5 -16.5t23.5 -19t12 -14.5l350 -660h-102z" />
    <glyph glyph-name="Aacute" unicode="&#xc1;" horiz-adv-x="2550" 
d="M1783 2685q-19 -328 -21.5 -651t7 -643t29.5 -638.5t44 -638.5l307 -69l-35 -67q-244 17 -492.5 18.5t-506.5 -6.5l35 67l326 45l33 899h-967q-65 -111 -135 -218.5l-139 -216t-132 -221t-114 -231.5l318 -69l-46 -67l-223.5 10.5t-229 8.5t-232.5 2t-234 -9l33 55
l308 69l452.5 589.5l471.5 619l461.5 640.5t419.5 654zM593 1092l908 -11l-45 1229zM1582 2901h-102l583 660q4 5 17 14.5t30 19t35 16.5t30 7q26 0 43.5 -9.5t27.5 -24t13.5 -33t0.5 -35.5t-16.5 -40.5t-58.5 -62.5z" />
    <glyph glyph-name="Acircumflex" unicode="&#xc2;" horiz-adv-x="2550" 
d="M1785 2685q-19 -328 -21.5 -651t7.5 -643t29.5 -638.5t43.5 -638.5l307 -69l-35 -67q-244 17 -492.5 18.5t-506.5 -6.5l35 67l326 45l33 899h-967q-65 -111 -135 -218.5l-138.5 -216t-132 -221t-114.5 -231.5l318 -69l-46 -67l-223.5 10.5t-229 8.5t-232.5 2t-234 -9
l33 55l308 69l452.5 589.5l471.5 619l461.5 640.5t419.5 654zM595 1092l908 -11l-45 1229zM1821 3595h216l183 -705h-91l-267 489l-621 -489h-113z" />
    <glyph glyph-name="Atilde" unicode="&#xc3;" horiz-adv-x="2550" 
d="M1801 2685q-20 -328 -22.5 -651t7.5 -643t29.5 -638.5t44.5 -638.5l306 -69l-35 -67q-244 17 -492.5 18.5t-506.5 -6.5l35 67l326 45l34 899h-967l-136 -218.5l-138.5 -216t-132 -221t-114.5 -231.5l318 -69l-46 -67l-223.5 10.5t-229 8.5t-232.5 2t-234 -9l33 55l308 69
l452.5 589.5l471.5 619l461.5 640.5t419.5 654zM610 1092l908 -11l-45 1229zM2420 3425q-39 -77 -80 -143.5t-89 -115.5t-106 -77t-130 -28q-47 0 -111.5 16t-135.5 36l-143.5 38.5t-136.5 22.5q-30 2 -62.5 -8t-63 -30.5t-55.5 -51t-40 -69.5h-80q39 98 84.5 165.5
t95.5 109t103.5 60t108.5 18.5q52 0 118 -18l137 -39t141.5 -39t130.5 -18q64 0 122.5 38.5t100.5 132.5h91z" />
    <glyph glyph-name="Adieresis" unicode="&#xc4;" horiz-adv-x="2550" 
d="M1806 2685q-20 -328 -22.5 -651t7.5 -643t29.5 -638.5t43.5 -638.5l307 -69l-35 -67q-244 17 -492.5 18.5t-506.5 -6.5l35 67l326 45l33 899h-967q-65 -111 -135 -218.5l-138.5 -216t-132 -221t-114.5 -231.5l318 -69l-46 -67l-223.5 10.5t-229 8.5t-232.5 2t-234 -9
l33 55l308 69l452.5 589.5l471.5 619l461.5 640.5t419.5 654zM615 1092l908 -11l-45 1229zM2109 3015q-36 0 -66 14t-50 38t-28 56.5t-2 68.5q7 36 26.5 68t47.5 56t62.5 38t70.5 14q37 0 66.5 -14t49 -38t28 -56t1.5 -68q-6 -36 -25.5 -68.5t-47.5 -56.5t-62.5 -38
t-70.5 -14zM1427 3015q-36 0 -66 14t-50 38t-28 56.5t-2 68.5q7 36 26.5 68t47.5 56t62.5 38t70.5 14q37 0 66.5 -14t49.5 -38t28 -56t2 -68t-26 -68.5t-48 -56.5t-62.5 -38t-70.5 -14z" />
    <glyph glyph-name="Aring" unicode="&#xc5;" horiz-adv-x="2550" 
d="M1763 2685q-20 -328 -22.5 -651t7.5 -643t29.5 -638.5t43.5 -638.5l307 -69l-35 -67q-244 17 -492.5 18.5t-506.5 -6.5l35 67l326 45l33 899h-967q-65 -111 -135 -218.5l-138.5 -216t-132 -221t-114.5 -231.5l318 -69l-46 -67l-223.5 10.5t-229 8.5t-232.5 2t-234 -9
l33 55l308 69l452.5 589.5l471.5 619l461.5 640.5t419.5 654zM572 1092l908 -11l-45 1229zM1726 3061q66 0 128.5 25t113.5 68t86 101.5t47 123.5q12 66 -3 124t-51 101t-89.5 68.5t-119.5 25.5q-65 0 -127.5 -25.5t-113.5 -68.5t-86.5 -101t-46.5 -124q-12 -65 3 -123.5
t50.5 -101.5t89.5 -68t119 -25zM1702 2924q-96 0 -174.5 37t-131 100t-74 148t-4.5 182q17 96 68.5 181t126.5 148t166 100t188 37q96 0 174.5 -37t130.5 -100t74 -148t5 -181q-17 -97 -69 -182t-126.5 -148t-166 -100t-187.5 -37z" />
    <glyph glyph-name="AE" unicode="&#xc6;" horiz-adv-x="3490" 
d="M1575 2605l413 -10.5l413 -11.5l531.5 11.5l530.5 10.5q12 0 22 -7.5t16.5 -19.5t8 -26t-3.5 -26l-157 -376l-72 -23l60 149q8 21 -0.5 44t-26.5 43t-41.5 33.5t-44.5 15.5l-775 57l-97.5 -267.5l-95 -261.5l-90.5 -261.5t-85 -267.5q96 4 190.5 6.5t189.5 6t192 8
t196 13.5l116 205l86 34q-38 -87 -69.5 -169.5t-59.5 -164l-55.5 -163l-57.5 -163.5l-90 -57l64 296q-96 13 -192.5 20t-190.5 10t-185.5 3.5t-176.5 0.5q-38 -144 -82.5 -286.5l-87 -286t-78.5 -287.5t-57 -289q124 7 247 5t246.5 -0.5t247 11.5t247.5 41q49 12 85.5 26
t71.5 42t73.5 76t91.5 129l83 23l-232 -478q-7 -15 -21 -23.5t-31.5 -14t-36 -7t-33.5 -0.5q-126 9 -258 15t-266.5 9.5t-270 6t-268.5 2.5q-191 2 -383 -7t-384 -14l37 78l377 68l397 1161h-807l-239 -296.5l-229 -292.5l-212 -288t-185 -284l329 -68l-50 -90
q-118 9 -235 20.5t-235 12.5q-120 2 -241 -7t-242 -14l26 78l319 68l541 584.5l520 581l508 587l506 603.5l-287 45zM1798 1422l299 1047h-114l-245 -255l-237.5 -264l-227.5 -266.5l-214 -261.5h739z" />
    <glyph glyph-name="Ccedilla" unicode="&#xc7;" horiz-adv-x="2170" 
d="M1971 2628q38 0 80 -1.5t85.5 -6.5t86 -13.5t81.5 -22t71.5 -32t55.5 -43.5t34 -57.5t8 -73.5q-4 -47 -39 -86.5t-83.5 -75.5l-101 -71.5t-92.5 -73.5q4 119 -32 196.5t-97.5 122t-140.5 62t-160 17.5q-197 0 -378.5 -80t-337.5 -251.5t-281 -441t-210 -649.5
q-16 -73 -22.5 -150t-1.5 -155t22 -153t48 -142t77 -124t109 -98.5t143.5 -65t180.5 -23.5q93 0 186 18t186 48t186 69l186 82l-20 -114q-112 -59 -224.5 -111t-225 -90.5t-225.5 -61t-229 -23.5l-93 -202q32 3 64 6.5t64 4.5q82 4 141.5 -23.5t95.5 -73.5t48.5 -104.5
t-0.5 -116.5q-21 -94 -75 -157.5t-123.5 -102t-147 -55t-145.5 -16.5q-55 0 -124 12.5t-139 35t-133.5 54t-107.5 69.5l63 103q101 -60 202 -92.5t218 -44.5q42 -4 91 5t92.5 32.5t75 62t37.5 94.5q8 68 -15.5 106.5t-58.5 57.5t-72.5 24t-58.5 5q-43 0 -86 -4l-87 -8
l166 333q-74 6 -145 17t-135 31.5t-120.5 53.5t-102 82.5t-78.5 117.5t-51.5 159t-20.5 207t16 262q20 168 74 332t135.5 318t188.5 294.5t232.5 262t267 220t293 168.5t310.5 107.5t319 37.5z" />
    <glyph glyph-name="Egrave" unicode="&#xc8;" horiz-adv-x="2285" 
d="M485 2605q85 -4 182 -9.5l199 -11.5l206 -12l202 -12l905 34q12 0 25.5 -2.5t25 -8.5t18 -14.5t3.5 -19.5q-13 -47 -36.5 -98l-49 -103t-47.5 -105t-31 -104l-95 -23l53 171q9 27 -5 49.5t-39 38.5t-57 25.5t-59 11.5l-720 46l-369 -1058l767 22l129 216l95 23
q-80 -162 -149.5 -332.5t-118.5 -349.5l-88 -46l68 319l-734 34l-330 -1161h285q119 11 220.5 16.5l187.5 10t158.5 10.5t132.5 17.5t109.5 31.5t90.5 52t75 79t62 113l84 23l-250 -511q-473 25 -957 30.5t-974 -19.5l37 79l375 68l205 579t187.5 580.5t171.5 586.5t157 598
l-343 57zM1707 2890l-422 512q-31 39 -36 62.5t-2 40.5t13 35.5t25 33t36 24t46 9.5q13 0 28 -7t28.5 -16.5t23.5 -19t12 -14.5l351 -660h-103z" />
    <glyph glyph-name="Eacute" unicode="&#xc9;" horiz-adv-x="2285" 
d="M487 2605q84 -4 181 -9.5l199 -11.5l206 -12l202 -12l905 34q12 0 25.5 -2.5t25 -8.5t18 -14.5t3.5 -19.5q-13 -47 -36.5 -98l-49 -103t-47 -105t-30.5 -104l-95 -23l52 171q9 27 -4.5 49.5t-39 38.5t-57.5 25.5t-59 11.5l-719 46l-370 -1058l767 22l129 216l95 23
q-80 -162 -149.5 -332.5t-118.5 -349.5l-88 -46l68 319l-734 34l-329 -1161h284q119 11 220.5 16.5l188 10t158.5 10.5t132 17.5t109.5 31.5t90.5 52t75 79t63 113l84 23l-250 -511q-474 25 -958 30.5t-974 -19.5l37 79l375 68l205 579t187.5 580.5t171.5 586.5t157 598
l-343 57zM1444 2879h-102l583 660q4 4 17 13.5t30 19t35 16.5t30 7q26 0 43.5 -9t27.5 -24t13.5 -33t0.5 -36q-3 -17 -17 -40.5t-59 -61.5z" />
    <glyph glyph-name="Ecircumflex" unicode="&#xca;" horiz-adv-x="2285" 
d="M487 2605q84 -4 181 -9.5l199 -11.5l206 -12l202 -12l905 34q12 0 25.5 -2.5t25 -8.5t18 -14.5t3.5 -19.5q-13 -47 -36.5 -98l-49 -103t-47 -105t-30.5 -104l-95 -23l52 171q9 27 -4.5 49.5t-39 38.5t-57.5 25.5t-59 11.5l-719 46l-370 -1058l767 22l129 216l95 23
q-80 -162 -149.5 -332.5t-118.5 -349.5l-88 -46l68 319l-734 34l-329 -1161h284q119 11 220.5 16.5l188 10t158.5 10.5t132 17.5t109.5 31.5t90.5 52t75 79t63 113l84 23l-250 -511q-474 25 -958 30.5t-974 -19.5l37 79l375 68l205 579t187.5 580.5t171.5 586.5t157 598
l-343 57zM1674 3595h216l183 -705h-91l-267 489l-621 -489h-113z" />
    <glyph glyph-name="Edieresis" unicode="&#xcb;" horiz-adv-x="2285" 
d="M507 2605q84 -4 181 -9.5l199 -11.5l206 -12l203 -12l904 34q12 0 25.5 -2.5t25 -8.5t18 -14.5t3.5 -19.5q-13 -47 -36.5 -98l-49 -103t-47 -105t-30.5 -104l-95 -23l52 171q9 27 -4.5 49.5t-39 38.5t-57.5 25.5t-59 11.5l-719 46l-369 -1058l766 22l129 216l95 23
q-79 -162 -149 -332.5t-119 -349.5l-88 -46l68 319l-734 34l-329 -1161h284q119 11 220.5 16.5l188 10t158.5 10.5t132 17.5t109.5 31.5t90.5 52t75 79t63 113l84 23l-250 -511q-474 25 -958 30.5t-974 -19.5l37 79l376 68l204 579t187.5 580.5t171.5 586.5t157 598l-343 57
zM1962 3015q-36 0 -66 14t-49.5 38t-28 56.5t-1.5 68.5q6 36 25.5 68t48 56t63 38t70.5 14t65.5 -14t49.5 -38t28 -56t2 -68q-7 -36 -26.5 -68.5t-47.5 -56.5t-62.5 -38t-70.5 -14zM1280 3015q-36 0 -66 14t-49.5 38t-28 56.5t-1.5 68.5q6 36 25.5 68t48 56t63 38t70.5 14
t66 -14t49.5 -38t27.5 -56t2 -68t-25.5 -68.5t-48 -56.5t-63 -38t-70.5 -14z" />
    <glyph glyph-name="Igrave" unicode="&#xcc;" horiz-adv-x="1510" 
d="M508 2605q133 -8 264.5 -21t264.5 -13q137 0 275.5 13t276.5 21l-29 -68l-382 -68l-200.5 -564.5l-205 -591.5t-185.5 -602.5t-142 -596.5l353 -57l-36 -79q-132 9 -263.5 20.5t-265.5 12.5q-139 2 -279.5 -7t-280.5 -14l23 67l375 68l203 587.5l194.5 584.5l181.5 585
t164 587l-356 62zM1285 2879l-422 512q-31 38 -36.5 61.5t-1.5 40.5q3 18 12.5 36t25 33t36.5 24t46 9q13 0 28 -7t28.5 -16.5t23.5 -19t12 -13.5l350 -660h-102z" />
    <glyph glyph-name="Iacute" unicode="&#xcd;" horiz-adv-x="1510" 
d="M506 2605q133 -8 264.5 -21t264.5 -13q136 0 275 13t277 21l-29 -68l-382 -68l-200.5 -564.5l-205 -591.5t-185.5 -602.5t-142 -596.5l353 -57l-36 -79q-132 9 -263.5 20.5t-265.5 12.5q-139 2 -279.5 -7t-281.5 -14l24 67l375 68l203 587.5l194.5 584.5l181.5 585
t164 587l-356 62zM1013 2901h-102l583 660q4 5 17.5 14.5t30 19t34 16.5t30.5 7q25 0 42.5 -9.5t28 -24t13.5 -33t0 -35.5q-2 -17 -15.5 -40.5t-59.5 -62.5z" />
    <glyph glyph-name="Icircumflex" unicode="&#xce;" horiz-adv-x="1510" 
d="M508 2605q133 -8 264.5 -21t264.5 -13q137 0 275.5 13t276.5 21l-29 -68l-382 -68l-200.5 -564.5l-205 -591.5t-185.5 -602.5t-142 -596.5l353 -57l-36 -79q-132 9 -263.5 20.5t-265.5 12.5q-139 2 -279.5 -7t-280.5 -14l23 67l375 68l203 587.5l194.5 584.5l181.5 585
t164 587l-356 62zM1252 3595h216l182 -705h-91l-266 489l-621 -489h-114z" />
    <glyph glyph-name="Idieresis" unicode="&#xcf;" horiz-adv-x="1510" 
d="M528 2605q133 -8 264.5 -21t264.5 -13q137 0 275.5 13t276.5 21l-29 -68l-382 -68l-200 -564.5l-205 -591.5t-186 -602.5t-142 -596.5l353 -57l-36 -79q-132 9 -263.5 20.5t-265.5 12.5q-139 2 -279.5 -7t-280.5 -14l23 67l375 68l203.5 587.5l194 584.5l181.5 585
t164 587l-356 62zM1538 3015q-36 0 -65.5 14t-49.5 38t-28.5 56.5t-1.5 68.5q6 36 26 68t48 56t62.5 38t70.5 14q37 0 66.5 -14t49 -38t27.5 -56t2 -68t-25.5 -68.5t-48 -56.5t-62.5 -38t-71 -14zM856 3015q-36 0 -65.5 14t-49.5 38t-28 56.5t-2 68.5t26 68t48 56t62.5 38
t70.5 14q37 0 66.5 -14t49 -38t28 -56t2.5 -68q-7 -36 -26.5 -68.5t-47.5 -56.5t-62.5 -38t-71.5 -14z" />
    <glyph glyph-name="Eth" unicode="&#xd0;" horiz-adv-x="2835" 
d="M540 2526l48 79q70 -5 139.5 -13l139.5 -15.5t140.5 -12t141.5 -4.5q110 1 221 9t222 18t222.5 19t220.5 11q227 4 380.5 -56.5t241 -181t113.5 -298.5t-2 -409q-18 -149 -70 -303.5t-134 -306t-191.5 -294t-242 -267.5t-286 -227.5t-324 -172.5t-355.5 -103t-380 -20
l-518 33l-517 -33l47 67l364 69l199.5 589.5l195.5 592.5l-539 1l60 148l526 -3l152.5 505.5t137.5 510.5zM1253 2435l-178 -500.5l-169 -490.5l547 1l-71 -148l-525 1q-90 -277 -173 -561.5t-153 -588.5q57 -6 114 -14l114.5 -15.5t114.5 -12t115 -4.5q188 2 344.5 40.5
t285 104.5t231.5 156.5t184.5 197.5t142.5 226t107.5 243t78.5 248t55 241q22 115 25 218t-11.5 192.5t-45 165t-73.5 136.5t-98 106.5t-119 75t-136 42.5t-149 8q-138 -9 -278.5 -30.5t-279.5 -37.5z" />
    <glyph glyph-name="Ntilde" unicode="&#xd1;" horiz-adv-x="2930" 
d="M492 2605q92 -8 183.5 -21t185.5 -13q71 0 144.5 13t145.5 21q64 -290 148 -579t182 -574t207.5 -563.5l224.5 -547.5l149 525l140.5 530.5t126.5 535t107 537.5l-354 57l59 79q127 -8 252.5 -21t253.5 -13q120 0 241.5 13t242.5 21l-23 -68l-376 -68l-212.5 -582.5
t-199.5 -581t-178 -593.5t-148 -621l-265 -147l-205 572.5l-201.5 574.5l-208 572t-222.5 567q-90 -265 -167 -531t-144 -531.5t-124.5 -529.5t-108.5 -524l354 -57l-35 -67q-118 5 -236 14t-238 7q-130 -1 -263 -12.5t-265 -20.5l35 67l363 69l205 567.5l201.5 588.5
t182 599t145.5 600l-340 68zM2572 3436q-39 -76 -80 -143t-89.5 -116t-106 -77t-130.5 -28q-47 0 -111 16t-135 36.5t-143.5 39t-136.5 22.5q-31 2 -63.5 -8.5t-62.5 -31t-55 -51t-40 -68.5h-80q39 98 84 165.5t95 109t104 59.5t109 18q52 0 118 -17.5t137 -39t141.5 -39
t130.5 -17.5q64 0 122.5 38t100.5 132h91z" />
    <glyph glyph-name="Ograve" unicode="&#xd2;" horiz-adv-x="2550" 
d="M1736 2639q77 3 150.5 -7.5t139.5 -35.5t123.5 -65t103.5 -96t79.5 -129t50.5 -163.5t17 -199t-21 -236.5q-23 -142 -73 -292t-124 -298t-171 -290t-213 -269.5t-250.5 -235t-284 -187.5t-312.5 -127t-337 -52q-128 -5 -225 17t-167.5 64t-117 102t-74.5 131t-40 150.5
t-13.5 161t4.5 162.5t15 155q16 136 63.5 282.5t122 292.5t173.5 287.5t217 268.5t253.5 236t283.5 190t306 129t321 54zM1515 2481q-102 4 -201.5 -26t-194.5 -89t-183 -143t-167 -189t-146.5 -226.5t-121 -255t-91.5 -275.5t-57 -287q-9 -68 -16.5 -141t-8.5 -147.5
t6.5 -146.5t28.5 -137.5t57.5 -121t93 -96t136 -63.5t186.5 -23q105 0 205 26.5t192.5 77t177.5 124t160.5 167.5t141 207t119.5 242.5t95.5 274.5t69.5 303q24 134 31 245.5t0 202.5t-28.5 162t-54.5 125t-78 92.5t-99.5 63.5t-118 38t-134.5 16zM2016 2879l-421 512
q-31 38 -36.5 61.5t-2.5 40.5q3 18 13 36t25.5 33t36 24t45.5 9q14 0 29 -7t28.5 -16.5t23.5 -19t12 -13.5l350 -660h-103z" />
    <glyph glyph-name="Oacute" unicode="&#xd3;" horiz-adv-x="2550" 
d="M1735 2639q77 3 150.5 -7.5t139.5 -35.5t124 -65t104 -96t79 -129t50 -163.5t17 -199t-20 -236.5q-23 -142 -73 -292t-124.5 -298t-171 -290t-213 -269.5t-251 -235t-284 -187.5t-312.5 -127t-336 -52q-129 -5 -226 17t-167.5 64t-117 102t-74.5 131t-39.5 150.5
t-13.5 161t4.5 162.5t15.5 155q15 136 62.5 282.5t122.5 292.5t173.5 287.5t216.5 268.5t254 236t283.5 190t305.5 129t321 54zM1514 2481q-102 4 -201.5 -26t-194 -89t-183 -143t-167.5 -189t-146.5 -226.5t-121 -255t-91.5 -275.5t-57 -287q-9 -68 -16.5 -141t-8.5 -147.5
t7 -146.5t28.5 -137.5t57 -121t93 -96t136 -63.5t186.5 -23q105 0 205 26.5t192.5 77t177.5 124t160.5 167.5t141 207t119.5 242.5t95.5 274.5t69.5 303q24 134 31 245.5t0 202.5t-28 162t-54.5 125t-78.5 92.5t-99.5 63.5t-118 38t-134.5 16zM1756 2890h-103l583 660
q5 5 18 14.5t30 19t34.5 16.5t30.5 7q25 0 42.5 -9.5t27.5 -24t13.5 -33t0.5 -35.5t-16.5 -40.5t-58.5 -62.5z" />
    <glyph glyph-name="Ocircumflex" unicode="&#xd4;" horiz-adv-x="2550" 
d="M1984 3595h216l183 -705h-91l-267 489l-620 -489h-114zM1735 2639q78 3 151.5 -7.5t139.5 -35.5t123.5 -65t103.5 -96t79 -129t50.5 -163.5t17 -199t-20.5 -236.5q-23 -142 -73 -292t-124 -298t-171 -290t-213.5 -269.5t-251 -235t-284 -187.5t-312.5 -127t-336 -52
q-129 -5 -226 17t-167.5 64t-117 102t-74.5 131t-39.5 150.5t-13.5 161t4.5 162.5t15.5 155q15 136 63 282.5t122.5 292.5t173 287.5t217 268.5t254 236t283 190t305.5 129t321 54zM1514 2481q-101 4 -201 -26t-194.5 -89t-183 -143t-167 -189t-146.5 -226.5t-121.5 -255
t-91 -275.5t-57.5 -287q-9 -68 -16 -141t-8.5 -147.5t6.5 -146.5t28.5 -137.5t57 -121t93.5 -96t136.5 -63.5t185.5 -23q105 0 205 26.5t192.5 77t177.5 124t160.5 167.5t141 207t119.5 242.5t95.5 274.5t69.5 303q24 134 31 245.5t0 202.5t-28 162t-54.5 125t-78.5 92.5
t-99 63.5t-118 38t-135 16z" />
    <glyph glyph-name="Otilde" unicode="&#xd5;" horiz-adv-x="2550" 
d="M1750 2639q77 3 150.5 -7.5t139.5 -35.5t123.5 -65t103.5 -96t79.5 -129t50.5 -163.5t17 -199t-21 -236.5q-23 -142 -73 -292t-124 -298t-171 -290t-213 -269.5t-250.5 -235t-284 -187.5t-312.5 -127t-337 -52q-128 -5 -225 17t-167.5 64t-117 102t-74.5 131t-40 150.5
t-13.5 161t4 162.5t14.5 155q17 136 64.5 282.5t122 292.5t173.5 287.5t217 268.5t253.5 236t283.5 190t306 129t321 54zM1529 2481q-102 4 -201.5 -26t-194.5 -89t-183 -143t-167 -189t-146.5 -226.5t-121 -255t-91.5 -275.5t-57 -287q-9 -68 -16.5 -141t-8.5 -147.5
t6.5 -146.5t28.5 -137.5t57.5 -121t93 -96t136 -63.5t186.5 -23q105 0 205 26.5t192.5 77t177.5 124t160.5 167.5t141 207t119.5 242.5t95.5 274.5t69.5 303q23 134 30.5 245.5t0 202.5t-28.5 162t-54 125t-78 92.5t-99.5 63.5t-118.5 38t-134 16zM2595 3436
q-39 -76 -80 -143t-89 -116t-105.5 -77t-130.5 -28q-47 0 -111.5 16t-135.5 36.5t-143.5 39t-135.5 22.5q-31 2 -63.5 -8.5t-62.5 -31t-55 -51t-41 -68.5h-79q39 98 84 165.5t95 109t103.5 59.5t109.5 18q51 0 117 -17.5t137 -39t141.5 -39t130.5 -17.5q65 0 123.5 38
t99.5 132h91z" />
    <glyph glyph-name="Odieresis" unicode="&#xd6;" horiz-adv-x="2550" 
d="M1756 2639q77 3 150.5 -7.5t139.5 -35.5t123.5 -65t104 -96t79.5 -129t50 -163.5t17 -199t-21 -236.5q-23 -142 -72.5 -292t-124 -298t-171 -290t-213 -269.5t-251 -235t-284 -187.5t-312.5 -127t-337 -52q-128 -5 -225 17t-167.5 64t-117 102t-74.5 131t-39.5 150.5
t-13.5 161t4 162.5t15 155q16 136 63.5 282.5t122 292.5t173.5 287.5t217 268.5t253.5 236t283.5 190t306 129t321 54zM1535 2481q-102 4 -201.5 -26t-194.5 -89t-183 -143t-167 -189t-146.5 -226.5t-121 -255t-91.5 -275.5t-57 -287q-9 -68 -16.5 -141t-8.5 -147.5
t6.5 -146.5t28.5 -137.5t57.5 -121t93 -96t136 -63.5t186.5 -23q105 0 205 26.5t192.5 77t177.5 124t160.5 167.5t141 207t119.5 242.5t95.5 274.5t69.5 303q24 134 31 245.5t0 202.5t-28.5 162t-54.5 125t-78 92.5t-99.5 63.5t-118 38t-134.5 16zM2272 3015q-36 0 -66 14
t-49.5 38t-28 56.5t-1.5 68.5q6 36 25.5 68t48 56t63 38t70.5 14t65.5 -14t49.5 -38t28 -56t2 -68t-26 -68.5t-48 -56.5t-62.5 -38t-70.5 -14zM1590 3015q-36 0 -66 14t-49.5 38t-27.5 56.5t-2 68.5t25.5 68t48 56t63 38t70.5 14t66 -14t49.5 -38t28 -56t1.5 -68
q-6 -36 -25.5 -68.5t-48 -56.5t-63 -38t-70.5 -14z" />
    <glyph glyph-name="multiply" unicode="&#xd7;" horiz-adv-x="3412" 
d="M947 2344l797 -967l1126 967l125 -137l-1140 -978l796 -967l-162 -148l-795 978l-1137 -967l-113 137l1138 967l-808 967z" />
    <glyph glyph-name="Oslash" unicode="&#xd8;" horiz-adv-x="2550" 
d="M1845 2628q135 -1 251 -48.5t229 -133.5l79.5 94l79.5 92.5l79.5 96l79.5 104.5l169 -137q-57 -38 -110 -82.5t-103.5 -92l-100.5 -95.5l-102 -94q12 -17 23.5 -44t21.5 -62.5t19 -77t15 -86.5t9.5 -92.5t2.5 -94.5t-6 -92.5t-16 -87.5q-50 -200 -122.5 -382t-163.5 -343
t-198.5 -299.5t-228 -252.5t-251 -202.5t-268.5 -149t-280.5 -91.5t-286.5 -31q-111 0 -181 17t-119.5 43.5t-89.5 58.5t-90 62l-99 -108.5l-101 -109.5l-97 -108.5t-85 -104.5l-135 136q120 103 227 204.5l219 204.5q-31 68 -44.5 148t-15.5 165.5t6.5 173.5t22.5 173
q26 164 83 326t138.5 315t185.5 294t224.5 262.5t255.5 220.5t278.5 169t294 107t301.5 35zM1603 2481q-109 0 -213.5 -35t-202 -97t-186.5 -148.5t-167 -190.5t-143.5 -222t-116.5 -243.5t-86 -254.5t-50 -255l-15.5 -119.5t-11 -118t-1.5 -116t14 -112.5l1640 1627
q-22 68 -69.5 121t-110.5 89.5t-135.5 55.5t-145.5 19zM2107 2048l-1657 -1650q22 -68 66.5 -122t103.5 -92.5t127.5 -59t140.5 -22.5q123 -2 236 31.5t215 96t192 149.5t167.5 192.5t141 226t113.5 249t84.5 261t53.5 262.5q17 120 18.5 239t-2.5 239z" />
    <glyph glyph-name="Ugrave" unicode="&#xd9;" horiz-adv-x="2770" 
d="M432 2605q132 -8 263.5 -21t265.5 -13q133 0 269 13t272 21l-24 -68q-91 -17 -184 -38t-180 -30l-172.5 -435t-155 -437t-134 -438.5t-109.5 -441.5q-21 -99 -23.5 -177t10 -139.5t38.5 -107.5t62 -79.5t80.5 -55.5t94 -36t102.5 -21t106 -10q183 -11 326 37.5t253 140
t191 220t141.5 279t104.5 314.5t79 327l66 318t65 287q14 51 21.5 106t13 111.5t10 113.5t11.5 113l-350 79l46 68q123 -8 246 -21t248 -13q128 0 258.5 13t259.5 21l-23 -68q-97 -17 -190.5 -38l-187.5 -41l-148.5 -428l-153 -434.5l-144 -421t-122.5 -389.5
q-23 -78 -58.5 -156.5t-82.5 -153t-106 -143.5t-129 -128t-151 -107t-172 -80.5t-192 -49t-211 -11.5q-237 9 -387 63.5t-229 146t-95 214.5t14 268q22 107 51 217.5t62.5 224l69 229l71 231.5l70 232.5t64 232t53.5 229.5t39 225l-168.5 34l-172.5 34zM2007 2890l-422 512
q-31 39 -36.5 62.5t-2.5 40.5q4 17 13.5 35.5t25 33t36 24t46.5 9.5q13 0 28 -7t28.5 -16.5t23 -19t12.5 -14.5l350 -660h-102z" />
    <glyph glyph-name="Uacute" unicode="&#xda;" horiz-adv-x="2770" 
d="M433 2605q132 -8 263.5 -21t265.5 -13q133 0 269 13t271 21l-23 -68q-91 -17 -184.5 -38t-179.5 -30l-172.5 -435t-155.5 -437t-134.5 -438.5t-108.5 -441.5q-21 -99 -23.5 -177t10 -139.5t38.5 -107.5t62 -79.5t80.5 -55.5t94 -36t102.5 -21t105 -10q184 -11 327 37.5
t253 140t191 220t141.5 279t104.5 314.5t79 327l66 318t65 287q14 51 21.5 106t12.5 111.5l10 113.5t12 113l-350 79l45 68q124 -8 247 -21t248 -13q128 0 258.5 13t259.5 21l-23 -68q-97 -17 -190.5 -38l-187.5 -41l-148.5 -428l-153 -434.5l-144 -421t-122.5 -389.5
q-23 -78 -58.5 -156.5t-83 -153t-106 -143.5t-129 -128t-151 -107t-171.5 -80.5t-192 -49t-211 -11.5q-237 9 -387 63.5t-229 146t-95 214.5t14 268q22 107 51 217.5t62.5 224l69 229l71 231.5l70 232.5t64 232t53.5 229.5t39 225l-169 34l-172 34zM1754 2879h-102l583 660
q4 4 17 13.5t30 19t35 16.5t30 7q26 0 43.5 -9t27.5 -24t13.5 -33t0.5 -36q-3 -17 -17 -40.5t-59 -61.5z" />
    <glyph glyph-name="Ucircumflex" unicode="&#xdb;" horiz-adv-x="2770" 
d="M433 2605q132 -8 263.5 -21t265.5 -13q133 0 269 13t271 21l-23 -68q-91 -17 -184.5 -38t-179.5 -30l-172.5 -435t-155.5 -437t-134.5 -438.5t-108.5 -441.5q-21 -99 -23.5 -177t10 -139.5t38.5 -107.5t62 -79.5t80.5 -55.5t94 -36t102.5 -21t105 -10q184 -11 327 37.5
t253 140t191 220t141.5 279t104.5 314.5t79 327l66 318t65 287q14 51 21.5 106t12.5 111.5l10 113.5t12 113l-350 79l45 68q124 -8 247 -21t248 -13q128 0 258.5 13t259.5 21l-23 -68q-97 -17 -190.5 -38l-187.5 -41l-148.5 -428l-153 -434.5l-144 -421t-122.5 -389.5
q-23 -78 -58.5 -156.5t-83 -153t-106 -143.5t-129 -128t-151 -107t-171.5 -80.5t-192 -49t-211 -11.5q-237 9 -387 63.5t-229 146t-95 214.5t14 268q22 107 51 217.5t62.5 224l69 229l71 231.5l70 232.5t64 232t53.5 229.5t39 225l-169 34l-172 34zM1973 3595h216l183 -705
h-91l-267 489l-621 -489h-113z" />
    <glyph glyph-name="Udieresis" unicode="&#xdc;" horiz-adv-x="2770" 
d="M453 2605q132 -8 263.5 -21t265.5 -13q133 0 269 13t271 21l-23 -68q-91 -17 -184.5 -38t-179.5 -30l-172.5 -435t-155.5 -437t-134 -438.5t-109 -441.5q-21 -99 -23.5 -177t10 -139.5t38.5 -107.5t62 -79.5t80.5 -55.5t94 -36t102.5 -21t105 -10q184 -11 327 37.5
t253 140t191 220t141.5 279t104.5 314.5t79 327l66 318t65 287q14 51 21.5 106t12.5 111.5l10 113.5t12 113l-350 79l46 68q123 -8 246 -21t248 -13q128 0 258.5 13t259.5 21l-23 -68q-97 -17 -190.5 -38l-187.5 -41l-148.5 -428l-153 -434.5l-144 -421t-122.5 -389.5
q-23 -78 -58.5 -156.5t-82.5 -153t-106 -143.5t-129.5 -128t-151 -107t-171.5 -80.5t-192 -49t-211 -11.5q-237 9 -387 63.5t-229 146t-95 214.5t14 268q22 107 51 217.5t62.5 224l69 229l71 231.5l70 232.5t64 232t53.5 229.5t39 225l-169 34l-172 34zM2260 3015
q-36 0 -65.5 14t-49.5 38t-28 56.5t-2 68.5t26 68t48 56t62.5 38t70.5 14q37 0 66.5 -14t49 -38t28 -56t1.5 -68q-6 -36 -25.5 -68.5t-48 -56.5t-62.5 -38t-71 -14zM1578 3015q-36 0 -65.5 14t-49.5 38t-28 56.5t-2 68.5t26 68t48 56t62.5 38t70.5 14q37 0 66.5 -14
t49.5 -38t28 -56t2 -68q-7 -36 -26.5 -68.5t-47.5 -56.5t-62.5 -38t-71.5 -14z" />
    <glyph glyph-name="Yacute" unicode="&#xdd;" horiz-adv-x="2255" 
d="M247 2605q62 -2 123 -7.5l122 -10.5t123 -9t124 -3q59 1 118.5 5.5t119.5 11.5l119.5 14t118.5 11l-47 -80l-283 -56q12 -145 39.5 -294t60.5 -299.5l68 -301.5t64 -300l260.5 300l248.5 293l240.5 295l235.5 307q-60 14 -118.5 34t-118.5 34l31 56q107 -5 214 -13.5
t215 -8.5q91 0 183.5 8.5t184.5 13.5l-31 -56q-74 -14 -149.5 -34t-148.5 -34l-304 -304l-305.5 -312.5l-298.5 -323t-284 -335.5q-81 -265 -155.5 -542l-151.5 -550l177.5 -28.5l176.5 -28.5l-36 -79q-127 9 -252.5 21t-253.5 12q-145 0 -292.5 -12t-293.5 -21l36 79
q100 14 193.5 28.5l192.5 28.5q88 256 167.5 514.5t153.5 531.5q-62 325 -141.5 656.5t-183.5 664.5l-148.5 28l-148.5 28zM1420 2879h-102l583 660q4 4 17.5 13.5t30.5 19t34.5 16.5t30.5 7q25 0 42.5 -9t27.5 -24t13.5 -33t0.5 -36q-3 -17 -16.5 -40.5t-58.5 -61.5z" />
    <glyph glyph-name="Thorn" unicode="&#xde;" horiz-adv-x="2180" 
d="M538 2537l46 68q135 -8 269 -21t271 -13q133 0 269 13t272 21l-23 -68l-387 -68l-156 -432q56 8 119.5 18t129.5 18.5t132.5 14t128.5 5.5q81 0 147 -13t117.5 -36.5t90 -56.5t65 -73t42 -85.5t21.5 -94t2.5 -98.5t-14.5 -100q-21 -96 -59 -186.5t-90.5 -173t-118 -156
t-143 -135.5t-164.5 -111t-182 -82.5t-196.5 -50.5t-208.5 -15q-68 2 -130.5 2.5t-128.5 8.5q-44 -129 -74 -260.5t-64 -262.5l352 -69l-35 -67q-130 6 -259.5 14t-260.5 8q-139 0 -279 -8t-281 -14l23 67l375 69l196.5 575.5l190.5 567.5t180.5 585t166.5 627zM1062 1938
q-3 -7 -19.5 -59l-41.5 -133l-56.5 -182l-65 -206.5l-65.5 -207l-57.5 -183l-42.5 -133.5t-20 -60q40 -13 76 -22t70.5 -14.5t69.5 -8t72 -1.5q92 2 170 23t144.5 57t121.5 84.5t99.5 106t80 122t64 132.5t49.5 137t37 135q9 38 12.5 78t0 80t-14 78t-29 72t-46 61.5
t-64.5 47.5t-83.5 30t-104.5 8q-89 -4 -178.5 -18t-178.5 -24z" />
    <glyph glyph-name="germandbls" unicode="&#xdf;" horiz-adv-x="2035" 
d="M1770 3243q47 0 94 -8.5t91.5 -24.5t85 -41t73.5 -58t57 -74.5t36.5 -92t11 -109.5t-19.5 -127q-32 -124 -92.5 -228t-138 -191.5t-165.5 -160t-175.5 -132t-168 -108l-143.5 -89.5t-101.5 -74.5t-41.5 -63.5t21 -71t64.5 -92l92.5 -111t105 -128t100.5 -142.5t80 -154.5
t44 -164t-7.5 -172q-14 -62 -42.5 -123.5t-69 -120t-91 -112t-110 -99.5t-125.5 -84t-136.5 -64.5t-144.5 -41t-148 -14.5q-56 0 -120.5 13t-119 39t-87 67t-22.5 96q4 22 10 41t17 38.5t27.5 39t41.5 40.5l81 -84.5t87 -77t97.5 -58.5t111.5 -30q84 -9 161.5 17t140 77
t105 123.5t57.5 158.5q16 89 4.5 170t-41 155t-72 142t-88 131.5l-90 123t-78 117.5t-51 115t-9.5 115q7 55 46.5 106.5t100 104t137 108.5l159 121t165.5 141t156 169.5t131 206t91 249.5q16 69 3 138.5t-48 126.5t-88 94t-116 39q-96 4 -189 -29.5t-176.5 -100
t-154.5 -163t-122 -218.5q-53 -123 -105.5 -260l-103.5 -280.5l-100.5 -290.5l-97.5 -291l-93 -282.5l-87 -264.5l-80.5 -236.5l-72.5 -200.5q-42 -108 -90 -220t-105 -221t-125 -213.5t-150 -199t-179.5 -176t-213 -145t-251.5 -106.5t-294 -60q-42 -5 -89 2.5t-83.5 30
t-56.5 61.5t-10 99q5 26 18 50.5t29.5 48.5t34.5 47t32 47q41 -34 78.5 -72t82.5 -69t101 -49.5t134 -13.5q102 6 196.5 68t181.5 163.5t166.5 235t151 283.5t133.5 309t116 312t98 291.5l78 247.5l98 305.5t115.5 327t136 328.5t160.5 311.5t188 276t219 221t253.5 146.5
t291.5 53z" />
    <glyph glyph-name="agrave" unicode="&#xe0;" horiz-adv-x="1890" 
d="M1727 1843l-145 -342.5t-140 -348.5t-123 -361.5t-95 -380.5q-3 -19 -9.5 -43.5t-8.5 -47t3 -39t23 -18.5q25 -3 48 10t45.5 33.5t44 43t44.5 38.5l37 -46q-59 -46 -125.5 -107.5t-137 -117t-144 -94.5t-146.5 -44q-21 -1 -34 13.5t-19 37.5t-5.5 49t4.5 47
q24 105 56.5 209t69 207.5l74.5 207t72 207.5l-126 -143l-146.5 -157.5l-160.5 -161.5t-168 -155.5t-168.5 -139.5t-162 -113.5t-148 -77t-127.5 -30.5q-39 -1 -55 28.5t-19.5 74t2 94t8.5 87.5q12 113 47 241t92 260.5t135.5 264t175.5 251t212.5 223t247.5 179.5
t278.5 119t306.5 43h387zM1363 1650h-307q-94 0 -176.5 -27.5t-155 -78.5t-135 -123t-116.5 -161t-100 -191.5t-84.5 -215.5t-70.5 -233.5t-58 -243.5q-4 -20 -7 -46t-1.5 -49.5t10.5 -39t29 -13.5q56 4 133 51.5t165.5 125.5t183.5 180.5t187 216.5t176.5 233.5t152 232
t113.5 211t61 171.5zM1547 2116l-421 512q-32 39 -37 62.5t-2 40.5t13 35.5t25.5 33t36 24t46.5 9.5q13 0 28 -7t28.5 -16.5t23 -19t12.5 -14.5l350 -660h-103z" />
    <glyph glyph-name="aacute" unicode="&#xe1;" horiz-adv-x="1890" 
d="M1729 1843l-146 -342.5t-139.5 -348.5t-123 -361.5t-94.5 -380.5q-4 -19 -10 -43.5t-8.5 -47t2.5 -39t24 -18.5q24 -3 47 10t45.5 33.5t44.5 43t44 38.5l37 -46q-59 -46 -125.5 -107.5t-137 -117t-144 -94.5t-146.5 -44q-21 -1 -34 13.5t-19 37.5t-5.5 49t4.5 47
q24 105 56.5 209t69 207.5l74.5 207t72 207.5l-126 -143l-146.5 -157.5l-160.5 -161.5t-168 -155.5t-168.5 -139.5t-161.5 -113.5t-148 -77t-128 -30.5q-38 -1 -54.5 28.5t-19.5 74t2 94l9 87.5q11 113 46.5 241t92 260.5t135 264t176 251t213 223t247 179.5t278 119
t306.5 43h388zM1364 1650h-307q-94 0 -176.5 -27.5t-155 -78.5t-135 -123t-116.5 -161t-100 -191.5t-84.5 -215.5t-70 -233.5t-58.5 -243.5q-4 -20 -7 -46t-1.5 -49.5t10.5 -39t29 -13.5q56 4 133 51.5t165.5 125.5t183.5 180.5t187 216.5t176.5 233.5t152 232t114 211
t60.5 171.5zM1296 2105h-102l582 660q5 5 18 14.5t30 18.5t34.5 16.5t30.5 7.5q25 0 42.5 -9.5t28 -24.5t13.5 -33t0 -36q-2 -16 -15.5 -40t-59.5 -62z" />
    <glyph glyph-name="thorn" unicode="&#xfe;" horiz-adv-x="1945" 
d="M1875 3254q30 3 56 -5.5t43.5 -28.5t26 -51t5.5 -74q-1 -21 -11 -44.5t-24 -47.5l-28.5 -47t-24.5 -43q-40 11 -71 30.5l-59.5 38.5t-57.5 32t-63 13q-77 -3 -158.5 -69.5t-163 -179t-162.5 -262t-157.5 -318t-146.5 -347l-131 -348.5t-111 -323t-85 -270l116 133
l139.5 152.5l155.5 160.5t165.5 157t168.5 142.5t164 115.5t153 77.5t135 28.5q52 0 83.5 -38.5t45 -95.5t12.5 -122.5t-14 -118.5q-17 -70 -48 -170t-81.5 -215.5t-121 -241t-165.5 -248t-215.5 -234.5t-272 -201.5t-334.5 -148.5t-401 -76q-56 -150 -121 -297.5
t-148 -287.5t-189 -268t-245 -239q-121 -97 -227.5 -162.5t-213 -107.5t-219 -64t-246.5 -31q-72 -4 -127 6t-90.5 33.5t-50.5 59t-7 81.5q8 52 19.5 76.5t24.5 37t26.5 20.5t25.5 28l84 -47t89 -37t124.5 -26.5t191.5 -14.5q121 -4 223.5 31t189 99.5t158 153t131 190.5
t108.5 212t90 218.5t74.5 209l63.5 182.5l118.5 341.5l113.5 340.5l131 400.5t147 419t167 416t190 393t214.5 349t241.5 283.5t272 197.5t304 90.5zM1423 1593q-54 -19 -125.5 -65t-151.5 -114t-166 -154.5t-170.5 -187t-163.5 -211.5t-145.5 -228t-117 -236.5
t-77.5 -237.5l112 -10.5l123 -12.5q82 -8 162 13.5t157 68.5t149 116t137 155t122 187.5t103.5 212t81 228.5t56.5 237q6 38 7.5 85t-6.5 85.5t-28.5 60t-58.5 8.5z" />
    <glyph glyph-name="acircumflex" unicode="&#xe2;" horiz-adv-x="1890" 
d="M1514 2822h216l183 -706h-91l-267 489l-620 -489h-114zM1729 1843l-146.5 -342.5t-139.5 -348.5t-122.5 -361.5t-94.5 -380.5q-4 -19 -10 -43.5t-8.5 -47t2.5 -39t24 -18.5q24 -3 47 10t45 33.5l44 43t45 38.5l37 -46q-59 -46 -125.5 -107.5t-137 -117t-144 -94.5
t-146.5 -44q-21 -1 -34 13.5t-19 37.5t-5.5 49t4.5 47q24 105 56.5 209t69 207.5l74.5 207t72 207.5l-126 -143l-146.5 -157.5l-161 -161.5l-168 -155.5t-168 -139.5t-161.5 -113.5t-148 -77t-128 -30.5q-38 -1 -54.5 28.5t-19.5 74t2 94l9 87.5q11 113 46.5 241t92 260.5
t135 264t176 251t213 223t247 179.5t278 119t306.5 43h388zM1364 1650h-307q-94 0 -176.5 -27.5t-155 -78.5t-135 -123t-116.5 -161t-100 -191.5t-84.5 -215.5t-70 -233.5t-58.5 -243.5q-4 -20 -7 -46t-1.5 -49.5t10.5 -39t29 -13.5q56 4 133 51.5t165.5 125.5t183.5 180.5
t187 216.5t176.5 233.5t152 232t113.5 211t61 171.5z" />
    <glyph glyph-name="atilde" unicode="&#xe3;" horiz-adv-x="1890" 
d="M1743 1843l-145 -342.5t-140 -348.5t-123 -361.5t-95 -380.5q-3 -19 -9.5 -43.5t-8.5 -47t3 -39t23 -18.5q25 -3 48 10t45.5 33.5t44 43t44.5 38.5l37 -46q-59 -46 -125.5 -107.5t-137 -117t-144 -94.5t-146.5 -44q-21 -1 -34 13.5t-19 37.5t-5.5 49t4.5 47
q24 105 56.5 209t69 207.5l74.5 207t72 207.5l-126 -143l-146.5 -157.5l-160.5 -161.5t-168 -155.5t-168.5 -139.5t-162 -113.5t-148 -77t-127.5 -30.5q-39 -1 -55 28.5t-19.5 74t2 94t8.5 87.5q12 113 47 241t92 260.5t135.5 264t175.5 251t212.5 223t247.5 179.5
t278.5 119t306.5 43h387zM1379 1650h-307q-94 0 -176.5 -27.5t-155 -78.5t-135 -123t-116.5 -161t-100 -191.5t-84.5 -215.5t-70.5 -233.5t-58 -243.5q-4 -20 -7.5 -46t-1.5 -49.5t11 -39t29 -13.5q56 4 133 51.5t165.5 125.5t183.5 180.5t187 216.5t176.5 233.5t152 232
t113.5 211t61 171.5zM2113 2651q-40 -77 -81 -143.5t-89 -115.5t-105.5 -77t-130.5 -28q-47 0 -111.5 16t-135.5 36.5t-143.5 39t-135.5 22.5q-31 2 -63.5 -8.5t-62.5 -31t-55 -51t-40 -69.5h-80q39 99 84.5 166t95.5 109t103.5 60t108.5 18q51 0 117.5 -18l137.5 -39
t141.5 -38.5t130.5 -17.5q64 0 122.5 38t100.5 132h91z" />
    <glyph glyph-name="adieresis" unicode="&#xe4;" horiz-adv-x="1890" 
d="M1749 1843l-146 -342.5t-139.5 -348.5t-122.5 -361.5t-95 -380.5q-4 -19 -10 -43.5t-8.5 -47t2.5 -39t24 -18.5q24 -3 47 10t45.5 33.5t44.5 43t44 38.5l38 -46q-60 -46 -126.5 -107.5t-137 -117t-144 -94.5t-146.5 -44q-21 -1 -34 13.5t-18.5 37.5t-5.5 49t4 47
q24 105 56.5 209t69 207.5l74.5 207t72 207.5l-125.5 -143l-147 -157.5l-160.5 -161.5t-168 -155.5t-168.5 -139.5t-161.5 -113.5t-148 -77t-128 -30.5q-38 -1 -54.5 28.5t-19.5 74t2 94l9 87.5q11 113 46.5 241t92 260.5t135 264t176 251t213 223t247 179.5t278 119
t307.5 43h387zM1384 1650h-307q-94 0 -176.5 -27.5t-155 -78.5t-135 -123t-116.5 -161t-100 -191.5t-84.5 -215.5t-70 -233.5t-58.5 -243.5q-4 -20 -7 -46t-1.5 -49.5t10.5 -39t29 -13.5q56 4 133 51.5t165.5 125.5t183.5 180.5t187 216.5t176.5 233.5t152.5 232t114 211
t60 171.5zM1813 2241q-36 0 -66 14t-49.5 38t-28 56t-1.5 68q6 37 25.5 69t48 56t63 38t70.5 14q37 0 66.5 -14t49 -38t27.5 -56t2 -69q-6 -36 -25.5 -68t-48 -56t-63 -38t-70.5 -14zM1131 2241q-36 0 -66 14t-49.5 38t-28 56t-1.5 68q6 37 25.5 69t48 56t63 38t70.5 14
q37 0 66.5 -14t49 -38t28 -56t2.5 -69q-7 -36 -26.5 -68t-47.5 -56t-63 -38t-71 -14z" />
    <glyph glyph-name="aring" unicode="&#xe5;" horiz-adv-x="1890" 
d="M1712 1843l-145.5 -342.5t-140 -348.5t-122.5 -361.5t-95 -380.5q-4 -19 -10 -43.5t-8 -47t3 -39t23 -18.5q25 -3 48 10t45 33.5l44 43t45 38.5l37 -46q-59 -46 -125.5 -107.5t-137 -117t-144 -94.5t-146.5 -44q-21 -1 -34 13.5t-19 37.5t-5.5 49t4.5 47q23 105 56 209
t69.5 207.5l74.5 207t72 207.5l-126 -143l-146.5 -157.5l-161 -161.5l-168 -155.5t-168 -139.5t-162 -113.5t-148 -77t-127.5 -30.5q-39 -1 -55 28.5t-19.5 74t2 94t8.5 87.5q12 113 47 241t92 260.5t135.5 264t175.5 251t212.5 223t247.5 179.5t278.5 119t306.5 43h387z
M1348 1650h-307q-94 0 -176.5 -27.5t-155 -78.5t-135 -123t-117 -161t-100 -191.5t-84 -215.5t-70.5 -233.5t-58 -243.5q-4 -20 -7.5 -46t-1.5 -49.5t11 -39t29 -13.5q56 4 133 51.5t165 125.5t183 180.5t187.5 216.5t177 233.5t152 232t113.5 211t61 171.5zM1391 2218
q66 0 128.5 25.5t113.5 68.5t86.5 101.5t46.5 123.5q12 66 -3 124t-51 101t-89 68.5t-119 25.5t-128.5 -25.5t-113.5 -68.5t-86 -101t-47 -124q-12 -65 3 -123.5t51 -101.5t89.5 -68.5t118.5 -25.5zM1377 2071q-97 0 -175 37t-130.5 100t-74.5 148t-5 181q17 97 68.5 182
t126.5 148t166.5 100t187.5 37t174.5 -37t130.5 -100t74 -148t5 -182q-17 -96 -68.5 -181t-126 -148t-166 -100t-187.5 -37z" />
    <glyph glyph-name="ae" unicode="&#xe6;" horiz-adv-x="2380" 
d="M1800 1820l-112 -250l128.5 90.5t145.5 88.5t154.5 70.5t155.5 35.5q52 4 90.5 -15t62 -51.5t31 -72.5t-4.5 -78q-41 -132 -138 -242.5t-230 -198t-290 -151t-318 -101.5q-42 -94 -67 -192t-47 -196q-19 -85 -17 -152t22.5 -112.5t58.5 -68t90 -19.5q69 4 134 31.5
t126.5 68t120 89l113.5 95.5l49 -45l-199 -168t-212 -157.5t-222 -117t-227 -45.5q-45 0 -77.5 11t-54.5 30t-35 45.5t-19 57.5t-7 65t1 68t6 67.5t8 63.5q9 77 29.5 150.5t48.5 147t61.5 149l68.5 156.5l-137.5 -156l-152.5 -165.5l-162.5 -165l-168 -156.5t-167.5 -139.5
t-161.5 -113.5t-151 -79t-134.5 -36q-22 -3 -37 4.5t-24.5 22.5t-14 35.5t-5.5 44.5t1 50.5t5.5 52.5t7.5 50.5t7 45.5q24 134 64 272.5t99.5 273.5t138.5 262.5t179.5 240.5t223 207.5t269.5 163.5t319 108.5t371 41.5zM1516 1047q94 0 189.5 32.5t178 92.5t142.5 144
t82 186q7 30 1.5 61t-20.5 56t-37 40t-50 13q-54 -4 -102.5 -27t-90.5 -59t-78 -82.5t-66.5 -97t-54.5 -102.5t-43 -100t-31.5 -88.5t-19.5 -68.5zM1470 1627h-342q-90 0 -169.5 -27.5t-149.5 -77.5t-131.5 -121t-115 -159.5t-100.5 -191t-87.5 -215.5t-75.5 -235t-66 -247
q-5 -21 -6.5 -45.5t2.5 -46t15 -37.5t31 -19q35 -7 97.5 28t142 101.5t171 158.5t186 201t186.5 229t171.5 241.5t142 239.5t98.5 223z" />
    <glyph glyph-name="ccedilla" unicode="&#xe7;" horiz-adv-x="1270" 
d="M1190 1502q-25 25 -52.5 49t-56.5 41t-59 27t-60 8q-72 -4 -133 -35.5t-113 -83t-96 -119.5t-80.5 -146t-66.5 -162t-54.5 -167.5t-44.5 -163l-36 -147.5q-7 -30 -11.5 -63.5t-6 -68.5t2 -70t11.5 -66.5t22 -58.5t34.5 -46t49 -29t64.5 -8q70 4 137.5 33.5t132.5 72
t127.5 93l121.5 97.5l26 -45q-45 -44 -112 -102.5t-147 -118.5t-169 -115.5t-180 -93.5l-129 -263q36 8 70.5 9.5t68.5 1.5q85 0 143 -25.5t90.5 -69.5t42 -102t-1.5 -121q-12 -67 -51.5 -127t-102 -105t-145 -72t-181.5 -27q-70 0 -140.5 12.5t-136 35t-124 54t-102.5 69.5
l64 103q34 -22 80 -46t99.5 -44t114 -33.5t124.5 -13.5q51 0 98 8t85 30.5t65 62.5t38 104q9 47 -4.5 81.5t-43 56.5t-70.5 33t-88 11q-43 0 -87 -8.5t-88 -14.5l178 356q-30 -6 -59.5 -10t-58.5 -4q-81 0 -129 40t-70.5 101.5t-23.5 133t12 133.5q38 186 97.5 346.5
t133.5 298t160 251t177.5 205.5t187 162t188 119.5t180 79t163.5 40.5q31 5 66 -4.5t62.5 -28.5t43 -46t9.5 -58q-7 -39 -35.5 -71.5t-66.5 -60t-79 -51z" />
    <glyph glyph-name="egrave" unicode="&#xe8;" horiz-adv-x="1320" 
d="M1119 1855q60 8 101 -12t64 -54t29 -75.5t-5 -75.5q-17 -57 -52.5 -114.5t-85 -114t-110.5 -109.5t-131 -100.5t-145.5 -88.5t-153 -72.5t-155.5 -53t-152 -29.5q-15 -54 -34 -108l-37 -108t-32 -108t-19 -109l-8 -106t9 -101.5t51 -80t118 -42.5q64 -7 125.5 21
t122.5 72.5t122 96.5t124 95l39 -34q-97 -94 -199 -178t-208 -149.5t-216.5 -107.5t-224.5 -53q-44 -5 -76 3.5t-56 26t-39 43.5t-24 57t-12 65.5t-1.5 69.5t6 68.5t11.5 63.5q42 190 100 353t129 300.5t152 251t168 204.5t177.5 159.5t181 117t178 77t168.5 39.5zM362 1047
q102 0 203 34.5t184.5 96t141.5 147.5t76 188q7 39 0.5 67t-22.5 47.5t-38.5 30.5t-47.5 14q-33 5 -68.5 -8t-71 -39.5t-70.5 -65t-69 -84.5t-65.5 -99t-59.5 -108t-51.5 -111.5t-41.5 -109.5zM1244 2116l-421 512q-31 39 -36.5 62.5t-2.5 40.5t13 35.5t25.5 33t36 24
t45.5 9.5q14 0 28.5 -7t28 -16.5t23.5 -19t13 -14.5l350 -660h-103z" />
    <glyph glyph-name="eacute" unicode="&#xe9;" horiz-adv-x="1320" 
d="M1119 1855q60 8 101 -12t64 -54t29 -75.5t-5 -75.5q-17 -57 -52.5 -114.5t-85 -114t-110.5 -109.5t-131 -100.5t-145.5 -88.5t-153 -72.5t-155.5 -53t-152 -29.5q-15 -54 -34 -108l-37 -108t-32 -108t-19 -109l-8 -106t9 -101.5t51 -80t118 -42.5q64 -7 125.5 21
t122.5 72.5t122 96.5t124 95l39 -34q-97 -94 -199 -178t-208 -149.5t-216.5 -107.5t-224.5 -53q-44 -5 -76 3.5t-56 26t-39 43.5t-24 57t-12 65.5t-1.5 69.5t6 68.5t11.5 63.5q42 190 100 353t129 300.5t152 251t168 204.5t177.5 159.5t181 117t178 77t168.5 39.5zM362 1047
q102 0 203 34.5t184.5 96t141.5 147.5t76 188q7 39 0.5 67t-22.5 47.5t-38.5 30.5t-47.5 14q-33 5 -68.5 -8t-71 -39.5t-70.5 -65t-69 -84.5t-65.5 -99t-59.5 -108t-51.5 -111.5t-41.5 -109.5zM994 2116h-103l583 660q5 5 18 14.5t30 19t34.5 16.5t30.5 7q25 0 42.5 -9.5
t27.5 -24t13.5 -33t0.5 -35.5t-16.5 -40.5t-58.5 -62.5z" />
    <glyph glyph-name="ecircumflex" unicode="&#xea;" horiz-adv-x="1320" 
d="M1221 2810h215l184 -705h-91l-267 489l-621 -489h-113zM1121 1855q60 8 101 -12t64 -54t28.5 -75.5t-4.5 -75.5q-17 -57 -52.5 -114.5t-84.5 -114t-110.5 -109.5t-131.5 -100.5t-145.5 -88.5t-153 -72.5t-155.5 -53t-152 -29.5q-15 -54 -34 -108l-37 -108t-32 -108
t-19 -109q-5 -51 -9 -106t9.5 -101.5t51.5 -80t118 -42.5q64 -7 125.5 21t122.5 72.5t122 96.5t124 95l39 -34q-97 -94 -199 -178t-208.5 -149.5t-216.5 -107.5t-225 -53q-43 -5 -75.5 3.5t-56 26t-38.5 43.5t-24 57t-12 65.5t-1.5 69.5t6.5 68.5t11 63.5q42 190 100 353
t129 300.5t152 251t168 204.5t177.5 159.5t181 117t178 77t168.5 39.5zM364 1047q102 0 202.5 34.5t184 96t142.5 147.5t77 188q6 39 -0.5 67t-22.5 47.5t-38.5 30.5t-47.5 14q-33 5 -68.5 -8t-71 -39.5t-70.5 -65t-69 -84.5t-65.5 -99t-59.5 -108t-51.5 -111.5
t-41.5 -109.5z" />
    <glyph glyph-name="edieresis" unicode="&#xeb;" horiz-adv-x="1320" 
d="M1140 1855q60 8 101 -12t64 -54t29 -75.5t-5 -75.5q-17 -57 -52.5 -114.5t-84.5 -114t-110.5 -109.5t-131 -100.5t-145.5 -88.5t-153.5 -72.5t-155.5 -53t-152 -29.5q-15 -54 -34 -108l-36.5 -108t-32 -108t-19.5 -109l-8 -106t9 -101.5t51.5 -80t117.5 -42.5
q64 -7 126 21t122.5 72.5t121.5 96.5t124 95l39 -34q-97 -94 -199 -178t-208 -149.5t-216.5 -107.5t-224.5 -53q-43 -5 -75.5 3.5t-56 26t-39 43.5t-24 57t-12 65.5t-2 69.5t6.5 68.5t11 63.5q43 190 100.5 353t128.5 300.5t152 251t168 204.5t177.5 159.5t181 117t178 77
t168.5 39.5zM383 1047q103 0 203.5 34.5t184 96t142 147.5t76.5 188q7 39 0 67t-22.5 47.5t-38 30.5t-48.5 14q-33 5 -68 -8t-71 -39.5t-71 -65t-69 -84.5t-65.5 -99t-59 -108t-51.5 -111.5t-42 -109.5zM1520 2241q-36 0 -66 14t-49.5 38t-28 56t-1.5 68q6 37 25.5 69t48 56
t63 38t70.5 14t65.5 -14t49.5 -38t28 -56t2 -69q-7 -36 -26.5 -68t-47.5 -56t-62.5 -38t-70.5 -14zM838 2241q-36 0 -66 14t-49.5 38t-28 56t-1.5 68q6 37 25.5 69t48 56t63 38t70.5 14t66 -14t49.5 -38t27.5 -56t2 -69q-6 -36 -25.5 -68t-48 -56t-63 -38t-70.5 -14z" />
    <glyph glyph-name="igrave" unicode="&#xec;" horiz-adv-x="1015" 
d="M684 1855q20 1 35 -11.5t24.5 -31.5t12.5 -41t-2 -42q-47 -166 -107 -331l-122.5 -330l-120.5 -332t-101 -338q-4 -14 -5 -32.5t1 -35t9.5 -27t21.5 -7.5q30 5 56.5 22t51.5 38.5t49.5 45t50.5 42.5l13.5 -23l13.5 -23q-65 -76 -141 -153.5t-153 -140.5t-151 -103.5
t-133 -44.5q-23 -2 -38 14t-22.5 40t-8.5 52.5t6 51.5q45 169 103.5 337l122 335l125 334.5t112.5 336.5q5 15 7 35.5t0 38.5t-9.5 29.5t-22.5 9.5q-30 -4 -56.5 -21t-51.5 -39l-50 -45.5t-51 -42.5l-49 46q37 24 73.5 53l73.5 60l73.5 63l73.5 61.5t73 55.5t72.5 46.5
t71.5 33t69 14.5zM879 2116l-422 512q-31 39 -36.5 62.5t-2.5 40.5t13 35.5t25.5 33t36 24t46.5 9.5q13 0 28 -7t28.5 -16.5t23 -19t12.5 -14.5l350 -660h-102z" />
    <glyph glyph-name="iacute" unicode="&#xed;" horiz-adv-x="1015" 
d="M684 1855q20 1 35 -11.5t24.5 -31.5t12.5 -41t-2 -42q-47 -166 -107 -331l-122.5 -330l-120.5 -332t-101 -338q-4 -14 -5 -32.5t1 -35t9.5 -27t21.5 -7.5q30 5 56.5 22t51.5 38.5t49.5 45t50.5 42.5l13.5 -23l13.5 -23q-65 -76 -141 -153.5t-153 -140.5t-151 -103.5
t-133 -44.5q-23 -2 -38 14t-22.5 40t-8.5 52.5t6 51.5q45 169 103.5 337l122 335l125 334.5t112.5 336.5q5 15 7 35.5t0 38.5t-9.5 29.5t-22.5 9.5q-30 -4 -56.5 -21t-51.5 -39l-50 -45.5t-51 -42.5l-49 46q37 24 73.5 53l73.5 60l73.5 63l73.5 61.5t73 55.5t72.5 46.5
t71.5 33t69 14.5zM605 2116h-102l582 660q5 5 18 14.5t30 19t34.5 16.5t30.5 7q25 0 42.5 -9.5t28 -24t13.5 -33t0 -35.5q-2 -17 -15.5 -40.5t-58.5 -62.5z" />
    <glyph glyph-name="icircumflex" unicode="&#xee;" horiz-adv-x="1015" 
d="M834 2822h215l183 -706h-90l-267 489l-621 -489h-114zM686 1855q19 1 34 -11.5t24.5 -31.5t12.5 -41t-3 -42q-46 -166 -106 -331l-122 -330l-120.5 -332t-101.5 -338q-4 -14 -5.5 -32.5t1 -35t10 -27t21.5 -7.5q30 5 56.5 22t51.5 38.5l50 45t50 42.5l13.5 -23l13.5 -23
q-65 -76 -141 -153.5t-153 -140.5t-151 -103.5t-134 -44.5q-22 -2 -37 14t-23 40t-8 52.5t6 51.5q45 169 104 337l122 335l125 334.5t112 336.5q5 15 7 35.5t0 38.5t-9.5 29.5t-22.5 9.5q-30 -4 -56.5 -21t-51.5 -39l-49.5 -45.5t-51.5 -42.5l-48 46q72 48 146 113
l147.5 124.5t145.5 102.5t141 47z" />
    <glyph glyph-name="idieresis" unicode="&#xef;" horiz-adv-x="1015" 
d="M706 1855q19 1 34 -11.5t25 -31.5t12.5 -41t-2.5 -42q-46 -166 -106.5 -331l-122.5 -330l-120.5 -332t-101.5 -338q-3 -14 -4.5 -32.5t0.5 -35t9.5 -27t21.5 -7.5q30 5 56.5 22t52 38.5t50 45t50.5 42.5q6 -12 13 -23t13 -23q-65 -76 -141 -153.5t-153 -140.5
t-150.5 -103.5t-134.5 -44.5q-22 -2 -37 14t-22.5 40t-8 52.5t5.5 51.5q45 169 104 337l122 335l125 334.5t112 336.5q5 15 7.5 35.5t0.5 38.5t-9.5 29.5t-23.5 9.5q-30 -4 -56 -21t-51.5 -39t-50 -45.5t-51.5 -42.5l-48 46q36 24 72.5 53l73.5 60l74 63l73.5 61.5t73 55.5
t72.5 46.5t71 33t70 14.5zM1131 2241q-36 0 -65.5 14t-49 38t-28 56t-2.5 68q6 37 26 69t48 56t63 38t71 14t65.5 -14t49 -38t28 -56t2.5 -69q-7 -36 -26.5 -68t-47.5 -56t-62.5 -38t-71.5 -14zM449 2241q-36 0 -65.5 14t-49 38t-28 56t-2.5 68q6 37 26 69t48 56t63 38
t71 14t65.5 -14t49.5 -38t28 -56t2 -69q-7 -36 -26 -68t-47.5 -56t-63 -38t-71.5 -14z" />
    <glyph glyph-name="eth" unicode="&#xf0;" horiz-adv-x="1620" 
d="M1180 1786q3 94 -0.5 184.5t-15.5 181.5t-32 183.5t-50 190.5l-551 -285l-37 114l563 284q-56 99 -110 183t-120 157.5t-149.5 138.5t-197.5 125l88 45q123 -30 226 -93.5t186 -143.5t145.5 -167.5t104.5 -164.5l568 319l46 -125l-548 -274q53 -132 92 -267t59 -272.5
t17.5 -278.5t-32.5 -285q-27 -124 -61.5 -243t-81.5 -234.5t-107.5 -227.5t-138.5 -221q-48 -68 -105.5 -133t-120.5 -124.5t-130 -113t-135 -99t-135.5 -82t-130.5 -61.5t-121 -39t-107 -14q-53 0 -93.5 13.5t-70 36t-49.5 54.5t-32 69.5t-17 79t-5 84t4.5 84t10.5 79.5
q25 136 74 276t120 275t163.5 261t203.5 235q81 80 169.5 143t173.5 108t159.5 71t126.5 30q24 2 48 -3.5t47 -14.5t45 -19.5t44 -19.5zM851 1661q-85 -6 -156.5 -37.5t-132 -82t-110.5 -117t-91 -143t-73 -159.5t-56.5 -166.5t-42.5 -164.5t-31 -154q-6 -32 -11 -68
t-8 -72.5t-2.5 -73t7 -70t19.5 -63t35 -52t54 -37.5t76 -19q71 -7 138.5 20.5t130 81t119.5 128.5t106 163t90.5 184t74 192t54.5 187.5t32 169.5q13 99 1 168t-42.5 111.5t-77 60.5t-103.5 13z" />
    <glyph glyph-name="ntilde" unicode="&#xf1;" horiz-adv-x="2067" 
d="M676 1843q23 0 39 -13.5t24.5 -36t8.5 -51t-9 -58.5q-33 -102 -61 -204.5l-57.5 -205t-63 -205t-77.5 -204.5l149 153l167.5 163l178.5 163l180.5 155t175.5 137t162.5 109t140.5 72t111 26q22 0 39 -14.5t27 -37t13.5 -48t-2.5 -48.5q-41 -168 -104 -334.5l-128 -332.5
t-121.5 -332t-86.5 -332l-5 -32t-2.5 -35.5t5.5 -27t18 -7.5q30 6 56.5 22.5t51.5 38.5l49.5 45t50.5 42l38 -46q-67 -48 -130.5 -105l-128 -111.5t-132.5 -100t-144 -69.5q-27 -9 -45.5 8t-28.5 47t-12 65t5 61q41 170 99 337.5l120 335l123.5 334.5t110.5 336q3 14 2 29.5
t-6 29t-14.5 22.5t-22.5 10q-36 2 -102 -34.5t-150.5 -103.5t-181.5 -160t-195 -202.5t-192 -232.5t-172 -249.5t-134 -253t-79 -243.5l-334 -158l138.5 383.5l126.5 374l117 370l110 373.5q3 13 2.5 30t-6 31.5t-15 23t-22.5 5.5q-31 -6 -58.5 -23t-54.5 -38.5t-53 -44.5
t-54 -41l-37 45q34 25 71 56l75 63.5l77 66l77.5 64.5t76 58t73 47t69 31.5t63.5 11.5zM1967 2651q-39 -77 -80 -143.5t-89.5 -115.5t-106 -77t-130.5 -28q-47 0 -111 16t-135 36.5t-143.5 39t-136.5 22.5q-31 2 -63.5 -8.5t-62.5 -31t-55 -51t-40 -69.5h-80q39 99 84.5 166
t95.5 109t103.5 60t108.5 18q52 0 118 -18l137 -39t141.5 -38.5t130.5 -17.5q64 0 122.5 38t100.5 132h91z" />
    <glyph glyph-name="glyph204" horiz-adv-x="1620" 
d="M1116 1855q58 0 102 -13.5t77 -37t55.5 -55.5t36 -70.5t19 -81.5t4.5 -88t-7 -90t-15 -88q-19 -83 -46 -174.5t-64.5 -185.5t-87 -188t-113.5 -180q-50 -68 -106 -131t-116.5 -120.5t-123.5 -108.5t-126.5 -94t-126.5 -76.5t-123 -57t-115.5 -36t-105.5 -12.5
q-62 0 -107 12.5t-77 34t-52.5 51.5t-31.5 65.5t-14.5 75t-2 80t6.5 81t11 77.5q25 166 86.5 338t154 330t213.5 291.5t265 223.5l127.5 79.5t132.5 73t135 54t135 21.5zM863 1650q-74 0 -140 -27.5t-123.5 -75t-106.5 -112.5t-90 -140.5t-74.5 -159t-58.5 -167.5
t-43.5 -165.5t-28.5 -154.5l-11 -73t-9.5 -79t-3.5 -79.5t7 -76t21.5 -67.5t40.5 -53.5t64 -35.5t91 -13q68 0 129 27t116 74.5t103 112t90 139t77.5 156t65 163t52.5 160t40 146.5q29 115 26 208t-32.5 158t-81 100t-120.5 35zM1321 2116l-421 512q-31 39 -36.5 62.5
t-2.5 40.5t13 35.5t25.5 33t36 24t45.5 9.5q14 0 28.5 -7t28 -16.5t23.5 -19t13 -14.5l350 -660h-103z" />
    <glyph glyph-name="oacute" unicode="&#xf3;" horiz-adv-x="1620" 
d="M1116 1855q58 0 102 -13.5t77 -37t55.5 -55.5t36 -70.5t19 -81.5t4.5 -88t-7 -90t-15 -88q-19 -83 -46 -174.5t-64.5 -185.5t-87 -188t-113.5 -180q-50 -68 -106 -131t-116.5 -120.5t-123.5 -108.5t-126.5 -94t-126.5 -76.5t-123 -57t-115.5 -36t-105.5 -12.5
q-62 0 -107 12.5t-77 34t-52.5 51.5t-31.5 65.5t-14.5 75t-2 80t6.5 81t11 77.5q25 166 86.5 338t154 330t213.5 291.5t265 223.5l127.5 79.5t132.5 73t135 54t135 21.5zM863 1650q-74 0 -140 -27.5t-123.5 -75t-106.5 -112.5t-90 -140.5t-74.5 -159t-58.5 -167.5
t-43.5 -165.5t-28.5 -154.5l-11 -73t-9.5 -79t-3.5 -79.5t7 -76t21.5 -67.5t40.5 -53.5t64 -35.5t91 -13q68 0 129 27t116 74.5t103 112t90 139t77.5 156t65 163t52.5 160t40 146.5q29 115 26 208t-32.5 158t-81 100t-120.5 35zM1071 2116h-103l583 660q5 5 18 14.5t30 19
t34.5 16.5t30.5 7q25 0 42.5 -9.5t27.5 -24t13.5 -33t0.5 -35.5t-16.5 -40.5t-58.5 -62.5z" />
    <glyph glyph-name="ograve" unicode="&#xf2;" horiz-adv-x="1620" 
d="M1287 2822h216l183 -706h-91l-267 489l-620 -489h-114zM1117 1855q57 0 101.5 -13.5t77.5 -37t55 -55.5t35.5 -70.5t19 -81.5t5 -88t-6.5 -90t-15 -88q-19 -83 -46 -174.5t-64.5 -185.5t-87 -188t-113.5 -180q-50 -68 -106.5 -131t-116.5 -120.5t-123.5 -108.5t-127 -94
t-126.5 -76.5t-123 -57t-115.5 -36t-104.5 -12.5q-62 0 -107 12.5t-77.5 34t-52.5 51.5t-31 65.5t-14.5 75t-2 80t6.5 81l10 77.5q26 166 87 338t154 330t214 291.5t265 223.5l127.5 79.5t132.5 73t134.5 54t135.5 21.5zM864 1650q-74 0 -140 -27.5t-123.5 -75t-107 -112.5
t-90.5 -140.5t-74 -159t-58.5 -167.5t-43.5 -165.5t-28 -154.5l-11 -73t-9.5 -79t-3.5 -79.5t6.5 -76t21.5 -67.5t40.5 -53.5t63.5 -35.5t92 -13q68 0 129 27t115.5 74.5t103 112t90.5 139t77.5 156t64.5 163t52.5 160t40.5 146.5q29 115 25.5 208t-32.5 158t-80.5 100
t-120.5 35z" />
    <glyph glyph-name="ograve" unicode="&#xf4;" horiz-adv-x="1620" 
d="M1287 2822h216l183 -706h-91l-267 489l-620 -489h-114zM1117 1855q57 0 101.5 -13.5t77.5 -37t55 -55.5t35.5 -70.5t19 -81.5t5 -88t-6.5 -90t-15 -88q-19 -83 -46 -174.5t-64.5 -185.5t-87 -188t-113.5 -180q-50 -68 -106.5 -131t-116.5 -120.5t-123.5 -108.5t-127 -94
t-126.5 -76.5t-123 -57t-115.5 -36t-104.5 -12.5q-62 0 -107 12.5t-77.5 34t-52.5 51.5t-31 65.5t-14.5 75t-2 80t6.5 81l10 77.5q26 166 87 338t154 330t214 291.5t265 223.5l127.5 79.5t132.5 73t134.5 54t135.5 21.5zM864 1650q-74 0 -140 -27.5t-123.5 -75t-107 -112.5
t-90.5 -140.5t-74 -159t-58.5 -167.5t-43.5 -165.5t-28 -154.5l-11 -73t-9.5 -79t-3.5 -79.5t6.5 -76t21.5 -67.5t40.5 -53.5t63.5 -35.5t92 -13q68 0 129 27t115.5 74.5t103 112t90.5 139t77.5 156t64.5 163t52.5 160t40.5 146.5q29 115 25.5 208t-32.5 158t-80.5 100
t-120.5 35z" />
    <glyph glyph-name="otilde" unicode="&#xf5;" horiz-adv-x="1620" 
d="M1132 1855q57 0 101.5 -13.5t77.5 -37t55.5 -55.5t36 -70.5t19 -81.5t4.5 -88t-7 -90t-15 -88q-19 -83 -46 -174.5t-64.5 -185.5t-87 -188t-113.5 -180q-50 -68 -106 -131t-116.5 -120.5t-123.5 -108.5t-126.5 -94t-126.5 -76.5t-123 -57t-116 -36t-105 -12.5
q-62 0 -107 12.5t-77 34t-52.5 51.5t-31.5 65.5t-14.5 75t-2 80t6.5 81t11 77.5q25 166 86.5 338t154 330t213.5 291.5t265 223.5l127.5 79.5t132.5 73t135 54t135 21.5zM879 1650q-74 0 -140 -27.5t-123.5 -75t-106.5 -112.5t-90 -140.5t-74.5 -159t-58.5 -167.5
t-43.5 -165.5t-28.5 -154.5l-11 -73t-9.5 -79t-3.5 -79.5t7 -76t21.5 -67.5t40.5 -53.5t64 -35.5t91 -13q68 0 129 27t116 74.5t103 112t90 139t77.5 156t65 163t52.5 160t40 146.5q29 115 26 208t-32.5 158t-81 100t-120.5 35zM1886 2651q-40 -77 -80.5 -143.5
t-88.5 -115.5t-106 -77t-130 -28q-47 0 -111.5 16t-135.5 36.5t-143.5 39t-136.5 22.5q-30 2 -63 -8.5t-63 -31t-55 -51t-40 -69.5h-80q39 99 84.5 166t95.5 109t103.5 60t108.5 18q51 0 117.5 -18l137.5 -39t141.5 -38.5t130.5 -17.5q64 0 122.5 38t100.5 132h91z" />
    <glyph glyph-name="odieresis" unicode="&#xf6;" horiz-adv-x="1620" 
d="M1137 1855q57 0 101.5 -13.5t77.5 -37t55 -55.5t35.5 -70.5t19.5 -81.5t5 -88t-7 -90t-15 -88q-19 -83 -46 -174.5t-64.5 -185.5t-87 -188t-113.5 -180q-50 -68 -106 -131t-116.5 -120.5t-123.5 -108.5t-126.5 -94t-126.5 -76.5t-123 -57t-116 -36t-105 -12.5
q-62 0 -107.5 12.5t-77 34t-52 51.5t-31.5 65.5t-14.5 75t-2 80t6.5 81t11 77.5q25 166 86.5 338t154 330t213.5 291.5t265 223.5l127.5 79.5t132.5 73t134.5 54t135.5 21.5zM884 1650q-74 0 -140 -27.5t-123.5 -75t-107 -112.5t-90 -140.5t-74 -159t-59 -167.5
t-43.5 -165.5t-28 -154.5l-11 -73t-9.5 -79t-3.5 -79.5t6.5 -76t21.5 -67.5t41 -53.5t64 -35.5t91 -13q68 0 129 27t115.5 74.5t103 112t90.5 139t77.5 156t65 163t52.5 160t40 146.5q29 115 26 208t-32.5 158t-81 100t-120.5 35zM1585 2241q-36 0 -66 14t-49.5 38t-28 56
t-1.5 68q6 37 25.5 69t48 56t63 38t70.5 14t65.5 -14t49.5 -38t28 -56t2 -69q-7 -36 -26 -68t-47.5 -56t-63 -38t-70.5 -14zM903 2241q-36 0 -66 14t-49.5 38t-28 56t-1.5 68q6 37 25.5 69t48 56t63 38t70.5 14t66 -14t49.5 -38t28 -56t1.5 -69q-6 -36 -25.5 -68t-48 -56
t-63 -38t-70.5 -14z" />
    <glyph glyph-name="divide" unicode="&#xf7;" horiz-adv-x="3410" 
d="M1791 1695q-47 0 -85.5 18t-64 49t-36 72.5t-2.5 88.5t33.5 88.5t62 72.5t81 49t91.5 18t85 -18t64 -49t36.5 -72.5t2.5 -88.5q-9 -47 -34 -88.5t-61.5 -72.5t-81 -49t-91.5 -18zM1542 284q-47 0 -85.5 18t-63.5 49t-36 72.5t-2 88.5q8 47 33.5 88.5t61.5 72.5t80.5 49
t91.5 18q48 0 86 -18t63.5 -49t36 -72.5t2.5 -88.5t-33.5 -88.5t-61.5 -72.5t-81 -49t-92 -18zM521 1331h2412l-36 -204h-2412z" />
    <glyph glyph-name="oslash" unicode="&#xf8;" horiz-adv-x="1620" 
d="M1695 1991l79 -68l-278 -285q-5 -76 -5.5 -153t-14.5 -154q-25 -142 -83.5 -295t-146.5 -301t-203 -282t-253 -237q-67 -50 -137 -94t-141 -77.5t-143.5 -53.5t-146.5 -24q-35 -2 -73 4.5t-71.5 20t-58.5 36t-37 51.5l-264 -271l-77 79l304 306q1 35 -2 69t-4 68t0 68
t9 69q52 230 127 409t168.5 319t205.5 247.5t239 195.5q68 48 134.5 88t132 69t130.5 45t131 15q69 -2 129 -29.5t99 -96.5zM1156 1457q2 34 -16 70t-48.5 66t-69.5 49t-80 19q-76 0 -143.5 -31.5t-126 -87t-108 -130.5t-91 -162t-75 -181.5t-59.5 -189.5t-44.5 -185.5
t-30.5 -170.5zM270 364q5 -42 23.5 -78t46 -61.5t62.5 -39.5t73 -14q70 0 133 25t118.5 69.5t104 106t90 133.5t76 152t62.5 162t49.5 163t37.5 156q7 36 9 73t6 75z" />
    <glyph glyph-name="ugrave" unicode="&#xf9;" horiz-adv-x="2020" 
d="M648 1843q23 3 40 -12.5t26.5 -40.5t11.5 -53.5t-4 -52.5q-43 -174 -102.5 -344l-124.5 -339.5l-128 -339t-113 -342.5q-5 -14 -5 -35t4.5 -40.5t13.5 -31.5t23 -7q59 19 136 71.5t164 130.5t180 176t183 208t174 227t153 233t119.5 226.5t73.5 206.5l341 193
q-79 -183 -148 -370t-131.5 -375.5l-120.5 -378l-115 -377.5q-4 -16 -6.5 -36t-0.5 -38.5t9.5 -30t23.5 -9.5q32 4 61 20.5t57 39l56 46t56 42.5l38 -46l-70 -62.5l-75.5 -65.5l-78 -65l-78.5 -61.5l-76 -55t-70 -44t-61.5 -30t-50.5 -13.5q-25 -2 -43 14.5t-28.5 42.5
t-13.5 56.5t2 55.5q19 102 51 203.5t69 202.5l75.5 201.5t72.5 201.5l-137 -146.5l-154 -157.5l-164.5 -160l-169 -153.5t-167 -138t-159 -112.5t-145 -77t-123.5 -33q-25 -2 -43.5 13.5t-29.5 39.5t-14.5 52.5t1.5 52.5q42 170 102.5 334l125 328.5l124.5 333t100 347.5
q3 10 4 25t-0.5 28t-7 21t-16.5 5q-30 -6 -57 -22t-53.5 -35.5l-53 -40.5t-53.5 -38l-38 46q70 48 139.5 111l139.5 121.5t139.5 102t139.5 51.5zM1367 2116l-422 512q-31 39 -36.5 62.5t-2.5 40.5q4 17 13.5 35.5t25 33t36 24t46.5 9.5q13 0 28 -7t28.5 -16.5t23.5 -19
t12 -14.5l350 -660h-102z" />
    <glyph glyph-name="uacute" unicode="&#xfa;" horiz-adv-x="2020" 
d="M648 1843q23 3 40 -12.5t26.5 -40.5t11.5 -53.5t-4 -52.5q-43 -174 -102.5 -344l-124.5 -339.5l-128 -339t-113 -342.5q-5 -14 -5 -35t4.5 -40.5t13.5 -31.5t23 -7q59 19 136 71.5t164 130.5t180 176t183 208t174 227t153 233t119.5 226.5t73.5 206.5l341 193
q-79 -183 -148 -370t-131.5 -375.5l-120.5 -378l-115 -377.5q-4 -16 -6.5 -36t-0.5 -38.5t9.5 -30t23.5 -9.5q32 4 61 20.5t57 39l56 46t56 42.5l38 -46l-70 -62.5l-75.5 -65.5l-78 -65l-78.5 -61.5l-76 -55t-70 -44t-61.5 -30t-50.5 -13.5q-25 -2 -43 14.5t-28.5 42.5
t-13.5 56.5t2 55.5q19 102 51 203.5t69 202.5l75.5 201.5t72.5 201.5l-137 -146.5l-154 -157.5l-164.5 -160l-169 -153.5t-167 -138t-159 -112.5t-145 -77t-123.5 -33q-25 -2 -43.5 13.5t-29.5 39.5t-14.5 52.5t1.5 52.5q42 170 102.5 334l125 328.5l124.5 333t100 347.5
q3 10 4 25t-0.5 28t-7 21t-16.5 5q-30 -6 -57 -22t-53.5 -35.5l-53 -40.5t-53.5 -38l-38 46q70 48 139.5 111l139.5 121.5t139.5 102t139.5 51.5zM1116 2116h-102l583 660q4 5 17 14.5t30 19t35 16.5t30 7q26 0 43 -9.5t27.5 -24t14 -33t0.5 -35.5t-17 -40.5t-59 -62.5z" />
    <glyph glyph-name="ucircumflex" unicode="&#xfb;" horiz-adv-x="2020" 
d="M650 1843q23 3 40 -12.5t26.5 -40.5t11.5 -53.5t-4 -52.5q-43 -174 -102.5 -344l-124 -339.5l-128 -339t-113.5 -342.5q-5 -14 -5 -35t5 -40.5t14 -31.5t22 -7q59 19 136 71.5t164 130.5t180 176t183 208t174 227t153 233t119.5 226.5t73.5 206.5l341 193
q-79 -183 -148 -370t-131.5 -375.5l-120.5 -378l-115 -377.5q-4 -16 -6.5 -36t-0.5 -38.5t9.5 -30t23.5 -9.5q32 4 61 20.5t57 39l56 46t56 42.5l38 -46l-70 -62.5l-75.5 -65.5l-78 -65l-78.5 -61.5l-76 -55t-70 -44t-61.5 -30t-50.5 -13.5q-25 -2 -43 14.5t-28.5 42.5
t-13.5 56.5t2 55.5q19 102 51 203.5t69 202.5l75.5 201.5t72.5 201.5l-137 -146.5l-154 -157.5l-164.5 -160l-169 -153.5t-167 -138t-159 -112.5t-145 -77t-124.5 -33q-24 -2 -42.5 13.5t-29.5 39.5t-14.5 52.5t1.5 52.5q42 170 102.5 334l125 328.5l124.5 333t100 347.5
q3 10 4 25t-0.5 28t-7 21t-16.5 5q-30 -6 -57 -22t-53.5 -35.5l-53 -40.5t-53.5 -38l-38 46q70 48 139.5 111l139.5 121.5t139.5 102t139.5 51.5zM1332 2810h216l183 -705h-91l-267 489l-621 -489h-113z" />
    <glyph glyph-name="udieresis" unicode="&#xfc;" horiz-adv-x="2020" 
d="M669 1843q24 3 40.5 -12.5t26 -40.5t11.5 -53.5t-4 -52.5q-43 -174 -102.5 -344l-124 -339.5l-128 -339t-113.5 -342.5q-4 -14 -4 -35t4.5 -40.5t13.5 -31.5t23 -7q59 19 135.5 71.5t163.5 130.5t180 176t183.5 208t174 227t153 233t119.5 226.5t73 206.5l341 193
q-79 -183 -148 -370t-131.5 -375.5l-120.5 -378l-114 -377.5q-5 -16 -7.5 -36t-0.5 -38.5t9.5 -30t23.5 -9.5q32 4 61 20.5t57 39l56 46t57 42.5l37 -46l-69.5 -62.5l-75.5 -65.5l-78.5 -65l-78.5 -61.5l-76 -55t-70 -44t-61.5 -30t-49.5 -13.5q-26 -2 -44 14.5t-28.5 42.5
t-13.5 56.5t2 55.5q19 102 51 203.5t69 202.5l75.5 201.5t72.5 201.5l-137 -146.5l-154 -157.5l-164 -160l-169 -153.5t-167.5 -138t-159 -112.5t-145 -77t-124.5 -33q-23 -2 -42 13.5t-30 39.5t-14.5 52.5t2.5 52.5q41 170 101.5 334l125 328.5l125 333t100.5 347.5
q2 10 3.5 25t-0.5 28t-7 21t-16 5q-30 -6 -57.5 -22t-54 -35.5l-52.5 -40.5t-54 -38l-38 46q70 48 140 111l139.5 121.5t139 102t139.5 51.5zM1632 2241q-36 0 -65.5 14t-49.5 38t-28 56t-2 68q6 37 26 69t48 56t62.5 38t71.5 14q36 0 65.5 -14t49 -38t28 -56t2.5 -69
q-7 -36 -26.5 -68t-47.5 -56t-62.5 -38t-71.5 -14zM950 2241q-36 0 -65.5 14t-49 38t-28 56t-2.5 68q6 37 26 69t48 56t62.5 38t71.5 14q36 0 65.5 -14t49.5 -38t28 -56t2 -69q-7 -36 -26.5 -68t-47.5 -56t-62.5 -38t-71.5 -14z" />
    <glyph glyph-name="yacute" unicode="&#xfd;" horiz-adv-x="1935" 
d="M1618 1707l335 159l-150.5 -388t-146.5 -397q-63 -184 -123 -386.5l-127 -409t-146.5 -410.5t-181.5 -393t-231.5 -355t-296.5 -295.5t-377 -216t-473 -116.5q-48 -5 -103.5 3.5t-100.5 33.5t-69 66.5t-10 101.5q5 19 15 38t21.5 37l24 36t22.5 37q61 -19 119.5 -44.5
l118 -49t121 -39.5t127.5 -15q162 2 296 72t244.5 188.5t200.5 276.5t164.5 336t136.5 366.5t116 369l104 343.5t100 289l-126 -143l-145.5 -156l-159 -160l-167 -154.5t-169 -139t-164 -113.5t-153 -78.5t-136.5 -33.5q-24 -2 -41 12t-27 35.5t-12 48.5t4 51
q41 172 98.5 343l120 340.5l125 340t113.5 341.5q3 10 2 23t-5.5 24t-12 17.5t-17.5 3.5q-29 -8 -55 -24t-51.5 -35t-50 -39.5t-50.5 -37.5l-30 23q44 55 103.5 115t128 115.5t144 102.5t151.5 76q26 10 47 -5.5t33.5 -43.5t17 -61.5t-1.5 -60.5q-44 -177 -106 -351.5
l-129.5 -348.5l-133.5 -348.5t-117 -350.5q-4 -13 -0.5 -30t11.5 -30.5t19.5 -20t23.5 0.5q82 52 169 118.5t175.5 147t176 172t170.5 191.5t158.5 207.5t140 220t115 227.5t83.5 230zM1133 2116h-102l582 660q5 5 18 14.5t30 19t34.5 16.5t30.5 7q25 0 42.5 -9.5t27.5 -24
t13.5 -33t0.5 -35.5q-2 -17 -16 -40.5t-59 -62.5z" />
    <glyph glyph-name="ydieresis" unicode="&#xff;" horiz-adv-x="1935" 
d="M1639 1707l335 159l-150.5 -388t-146.5 -397q-63 -184 -123 -386.5t-127.5 -409t-146.5 -410.5t-181 -393t-231.5 -355t-297 -295.5t-377 -216t-473.5 -116.5q-47 -5 -103 3.5t-100.5 33.5t-69 66.5t-9.5 101.5q5 19 15 38t21.5 37l24 36t22.5 37q61 -19 119.5 -44.5
l118 -49t121 -39.5t126.5 -15q163 2 297 72t244.5 188.5t200.5 276.5t164.5 336t136.5 366.5t116 369l104 343.5t99 289l-125 -143l-145.5 -156l-159 -160t-167.5 -154.5t-169 -139t-164 -113.5t-153 -78.5t-136 -33.5q-24 -2 -41 12t-27 35.5t-12 48.5t4 51q40 172 98 343
l120.5 340.5l125 340t113.5 341.5q2 10 1 23t-5 24t-11.5 17.5t-18.5 3.5q-28 -8 -54 -24t-51.5 -35t-50 -39.5t-50.5 -37.5l-30 23q44 55 103.5 115t128 115.5t144 102.5t151.5 76q26 10 46.5 -5.5t33.5 -43.5t17.5 -61.5t-1.5 -60.5q-44 -177 -106 -351.5l-129.5 -348.5
l-133.5 -348.5t-118 -350.5q-3 -13 0.5 -30t11.5 -30.5t19.5 -20t23.5 0.5q81 52 168.5 118.5t176 147t176 172t170.5 191.5t158.5 207.5t139.5 220t115 227.5t84 230zM1670 2241q-36 0 -65.5 14t-49.5 38t-28.5 56t-1.5 68q6 37 25.5 69t48 56t63 38t70.5 14t65.5 -14
t49.5 -38t28 -56t2 -69q-6 -36 -26 -68t-48 -56t-62.5 -38t-70.5 -14zM988 2241q-36 0 -65.5 14t-49.5 38t-28.5 56t-1.5 68q6 37 25.5 69t48 56t63 38t70.5 14t66 -14t49.5 -38t28 -56t1.5 -69q-6 -36 -25.5 -68t-47.5 -56t-63 -38t-71 -14z" />
    <glyph glyph-name="uni008D" horiz-adv-x="2527" 
d="M34 928h403q50 0 94 -15.5t81 -42.5t66 -64.5t49 -82.5q33 -68 46 -126.5t10.5 -114.5t-17 -112.5t-37.5 -120.5q-33 -107 -111.5 -167t-186.5 -63h-98.5h-98.5h-100.5h-99.5v909zM155 823v-700q65 0 126.5 -7t116.5 -3.5t101.5 26t80.5 83.5q41 57 64 133.5t21.5 154.5
t-30.5 149.5t-92 117.5q-45 30 -90.5 41t-93 12t-98 -3t-106.5 -4zM1574 651q-11 39 -19 64.5t-21.5 44t-38.5 32.5t-69 28q-37 13 -74 19.5t-74 4t-72.5 -16.5t-69.5 -42q-30 -22 -55 -54t-43.5 -70.5t-29.5 -82t-15 -89t0 -90t16.5 -86t34 -76.5t52.5 -62
q44 -44 98.5 -65.5t111.5 -20t112 24t98 66.5q24 24 39 47t23.5 48.5t11.5 55t3 67.5h-281v101h394v-480h-80l-29 115q-19 -18 -37.5 -37.5t-38.5 -35.5t-43 -28t-52 -17q-33 -9 -61.5 -13t-57 -4t-57.5 2t-62 6q-77 12 -132 46.5t-98 99.5q-44 71 -63.5 149.5t-19.5 160.5
q0 98 27 180t87 159q40 45 76.5 74t76.5 45.5t87 22t107 4.5q53 -3 100 -14t88 -33t74.5 -57t59.5 -86q12 -22 21.5 -52.5t9.5 -54.5h-57h-58zM1964 929v-802h462v-108h-582v910h120z" />
  </font>
</defs>
</svg>
